<svg width="180" height="161" viewBox="0 0 180 161" fill="none" xmlns="http://www.w3.org/2000/svg">
<mask id="mask0_769_12389" style="mask-type:alpha" maskUnits="userSpaceOnUse" x="50" y="134" width="82" height="22">
<rect x="50.1473" y="134.551" width="81.2277" height="21.3223" fill="#D9D9D9"/>
</mask>
<g mask="url(#mask0_769_12389)">
<circle cx="90.7612" cy="116.782" r="30.9681" fill="#F2F0EB"/>
</g>
<circle opacity="0.6" cx="28.4147" cy="63.1175" r="2.51005" transform="rotate(-180 28.4147 63.1175)" stroke="#A69D79" stroke-width="1.38954"/>
<path d="M136.593 76.8638C136.831 76.6262 137.018 76.3566 137.174 76.059C137.33 76.3566 137.517 76.6263 137.754 76.8638C137.992 77.1013 138.262 77.2884 138.559 77.4444C138.261 77.6005 137.992 77.7876 137.754 78.0252C137.517 78.2627 137.33 78.5323 137.174 78.8298C137.018 78.5323 136.831 78.2626 136.593 78.0251C136.356 77.7875 136.086 77.6004 135.788 77.4444C136.086 77.2883 136.355 77.1013 136.593 76.8638Z" fill="#A69D79" stroke="#A69D79" stroke-width="2"/>
<path d="M47.1651 31.0654C47.4962 32.0356 47.8796 32.8155 48.4933 33.4291C49.107 34.0428 49.887 34.426 50.857 34.7571C49.8867 35.0884 49.1067 35.4718 48.493 36.0855C47.8794 36.6991 47.4962 37.4789 47.1651 38.4488C46.834 37.4788 46.4508 36.6989 45.8372 36.0853C45.2236 35.4716 44.4437 35.0882 43.4735 34.757C44.4436 34.426 45.2235 34.0427 45.8372 33.4291C46.4508 32.8155 46.834 32.0355 47.1651 31.0654Z" fill="#A69D79" stroke="#A69D79" stroke-width="2"/>
<path d="M48.239 134.349H131.108" stroke="#343239" stroke-width="2"/>
<path d="M72.3472 92.4478C72.9877 90.1251 76.2816 90.1251 76.9221 92.4478L87.6302 131.276C88.0469 132.787 86.9102 134.28 85.3428 134.28H63.9265C62.3591 134.28 61.2223 132.787 61.639 131.276L72.3472 92.4478Z" fill="white" stroke="#343239" stroke-width="2" stroke-linecap="round"/>
<path d="M107.39 123.201C108.261 121.493 110.693 121.471 111.596 123.162L116.602 132.535C117.024 133.325 116.451 134.28 115.555 134.28H103.673C102.786 134.28 102.213 133.344 102.616 132.554L107.39 123.201Z" fill="white" stroke="#343239" stroke-width="2" stroke-linecap="round"/>
<path d="M83.2058 57.7547L90.5059 41.8629C94.3229 33.5537 106.527 34.9165 108.417 43.863L113.608 68.4327" stroke="#343239" stroke-width="2" stroke-dasharray="2.46 4.3"/>
<circle cx="85.6604" cy="67.8697" r="9.85751" transform="rotate(-44.2587 85.6604 67.8697)" fill="white" stroke="#343239" stroke-width="2"/>
<circle cx="64.1585" cy="65.4763" r="9.85751" transform="rotate(-44.2587 64.1585 65.4763)" fill="white" stroke="#343239" stroke-width="2"/>
<circle cx="72.9363" cy="60.7405" r="9.85751" transform="rotate(-8.40347 72.9363 60.7405)" fill="white" stroke="#343239" stroke-width="2"/>
<path d="M74.7222 58.66L74.6617 58.5891C74.2618 58.1201 73.6765 57.85 73.0602 57.85V57.85M71.3982 62.8295L71.5066 62.9742C71.8732 63.4635 72.4488 63.7516 73.0602 63.7516V63.7516M73.0602 57.85L72.9073 57.85C72.2377 57.85 71.6682 58.3384 71.566 59.0001V59.0001C71.4682 59.6339 71.8273 60.2496 72.427 60.4765L73.8694 61.0224C74.5437 61.2776 74.9049 62.0117 74.6955 62.7017V62.7017C74.5062 63.3252 73.9313 63.7516 73.2796 63.7516L73.0602 63.7516M73.0602 57.85L73.0602 55.6042M73.0602 63.7516L73.0602 65.7284" stroke="#343239" stroke-width="2"/>
<mask id="path-14-inside-1_769_12389" fill="white">
<path d="M51.4091 67.8773C51.3994 70.979 52.0006 74.0521 53.1786 76.9214C54.3565 79.7906 56.0881 82.3998 58.2744 84.5998C60.4607 86.7999 63.0589 88.5478 65.9207 89.7437C68.7825 90.9397 71.8518 91.5602 74.9534 91.57C78.055 91.5797 81.1282 90.9785 83.9975 89.8005C86.8667 88.6226 89.4758 86.891 91.6759 84.7047C93.876 82.5184 95.6239 79.9202 96.8198 77.0584C98.0157 74.1966 98.6363 71.1273 98.646 68.0257L75.0276 67.9515L51.4091 67.8773Z"/>
</mask>
<path d="M51.4091 67.8773C51.3994 70.979 52.0006 74.0521 53.1786 76.9214C54.3565 79.7906 56.0881 82.3998 58.2744 84.5998C60.4607 86.7999 63.0589 88.5478 65.9207 89.7437C68.7825 90.9397 71.8518 91.5602 74.9534 91.57C78.055 91.5797 81.1282 90.9785 83.9975 89.8005C86.8667 88.6226 89.4758 86.891 91.6759 84.7047C93.876 82.5184 95.6239 79.9202 96.8198 77.0584C98.0157 74.1966 98.6363 71.1273 98.646 68.0257L75.0276 67.9515L51.4091 67.8773Z" fill="#DFDCD1" stroke="#343239" stroke-width="4" mask="url(#path-14-inside-1_769_12389)"/>
<path d="M58.0268 68.2524C58.0198 70.4886 58.4533 72.7042 59.3025 74.7728C60.1518 76.8414 61.4001 78.7224 62.9764 80.3086C64.5526 81.8947 66.4258 83.1549 68.489 84.0171C70.5522 84.8793 72.7651 85.3267 75.0012 85.3338C77.2373 85.3408 79.4529 84.9073 81.5215 84.058C83.5901 83.2088 85.4712 81.9604 87.0574 80.3842C88.6435 78.808 89.9037 76.9348 90.7659 74.8716C91.6281 72.8084 92.0755 70.5955 92.0825 68.3594" stroke="#343239" stroke-width="2"/>
<path d="M63.2083 68.1517C63.2034 69.7064 63.5048 71.2468 64.0952 72.6849C64.6856 74.1231 65.5536 75.4309 66.6494 76.5337C67.7453 77.6364 69.0476 78.5125 70.482 79.112C71.9165 79.7114 73.4549 80.0225 75.0096 80.0274C76.5642 80.0323 78.1046 79.7309 79.5428 79.1405C80.981 78.55 82.2888 77.6821 83.3916 76.5863C84.4943 75.4904 85.3704 74.1881 85.9699 72.7536C86.5693 71.3192 86.8804 69.7807 86.8853 68.2261" stroke="#343239" stroke-width="2"/>
<circle cx="101.552" cy="99.7037" r="9.85751" transform="rotate(-60.5679 101.552 99.7037)" fill="white" stroke="#343239" stroke-width="2"/>
<circle cx="116.91" cy="104.599" r="9.85751" transform="rotate(-60.5679 116.91 104.599)" fill="white" stroke="#343239" stroke-width="2"/>
<circle cx="115.251" cy="78.0473" r="9.85751" transform="rotate(3.55621 115.251 78.0473)" fill="white" stroke="#343239" stroke-width="2"/>
<path d="M117.061 75.8912L117 75.8203C116.6 75.3513 116.015 75.0812 115.399 75.0812V75.0812M113.737 80.0606L113.845 80.2054C114.212 80.6947 114.787 80.9828 115.399 80.9828V80.9828M115.399 75.0812H115.246C114.576 75.0812 114.007 75.5695 113.905 76.2313V76.2313C113.807 76.865 114.166 77.4807 114.766 77.7077L116.208 78.2536C116.882 78.5088 117.243 79.2429 117.034 79.9328V79.9328C116.845 80.5564 116.27 80.9828 115.618 80.9828H115.399M115.399 75.0812V72.8076M115.399 80.9828V82.9595" stroke="#343239" stroke-width="2"/>
<path d="M129.948 100.763C129.948 106.152 127.807 111.32 123.997 115.13C120.187 118.94 115.019 121.081 109.63 121.081C104.242 121.081 99.0737 118.94 95.2634 115.13C91.4531 111.32 89.3125 106.152 89.3125 100.763L109.63 100.763H129.948Z" fill="#F2F0EB" stroke="#343239" stroke-width="2" stroke-linecap="round"/>
</svg>
