<svg fill="none" height="456" viewBox="0 0 481 456" width="481" xmlns="http://www.w3.org/2000/svg" xmlns:xlink="http://www.w3.org/1999/xlink"><filter id="a" color-interpolation-filters="sRGB" filterUnits="userSpaceOnUse" height="947.949" width="467.525" x="6.42236" y="-3.3175"><feFlood flood-opacity="0" result="BackgroundImageFix"/><feColorMatrix in="SourceAlpha" result="hardAlpha" type="matrix" values="0 0 0 0 0 0 0 0 0 0 0 0 0 0 0 0 0 0 127 0"/><feOffset dy="16"/><feGaussianBlur stdDeviation="17.5"/><feColorMatrix type="matrix" values="0 0 0 0 0 0 0 0 0 0 0 0 0 0 0 0 0 0 0.15 0"/><feBlend in2="BackgroundImageFix" mode="normal" result="effect1_dropShadow_3931_32002"/><feColorMatrix in="SourceAlpha" result="hardAlpha" type="matrix" values="0 0 0 0 0 0 0 0 0 0 0 0 0 0 0 0 0 0 127 0"/><feOffset dy="63"/><feGaussianBlur stdDeviation="31.5"/><feColorMatrix type="matrix" values="0 0 0 0 0 0 0 0 0 0 0 0 0 0 0 0 0 0 0.13 0"/><feBlend in2="effect1_dropShadow_3931_32002" mode="normal" result="effect2_dropShadow_3931_32002"/><feColorMatrix in="SourceAlpha" result="hardAlpha" type="matrix" values="0 0 0 0 0 0 0 0 0 0 0 0 0 0 0 0 0 0 127 0"/><feOffset dy="142"/><feGaussianBlur stdDeviation="42.5"/><feColorMatrix type="matrix" values="0 0 0 0 0 0 0 0 0 0 0 0 0 0 0 0 0 0 0.08 0"/><feBlend in2="effect2_dropShadow_3931_32002" mode="normal" result="effect3_dropShadow_3931_32002"/><feColorMatrix in="SourceAlpha" result="hardAlpha" type="matrix" values="0 0 0 0 0 0 0 0 0 0 0 0 0 0 0 0 0 0 127 0"/><feOffset dy="253"/><feGaussianBlur stdDeviation="50.5"/><feColorMatrix type="matrix" values="0 0 0 0 0 0 0 0 0 0 0 0 0 0 0 0 0 0 0.02 0"/><feBlend in2="effect3_dropShadow_3931_32002" mode="normal" result="effect4_dropShadow_3931_32002"/><feBlend in="SourceGraphic" in2="effect4_dropShadow_3931_32002" mode="normal" result="shape"/></filter><filter id="b" color-interpolation-filters="sRGB" filterUnits="userSpaceOnUse" height="48.1484" width="242.867" x="118.751" y="148.854"><feFlood flood-opacity="0" result="BackgroundImageFix"/><feBlend in="SourceGraphic" in2="BackgroundImageFix" mode="normal" result="shape"/><feColorMatrix in="SourceAlpha" result="hardAlpha" type="matrix" values="0 0 0 0 0 0 0 0 0 0 0 0 0 0 0 0 0 0 127 0"/><feOffset dy="-.708066"/><feComposite in2="hardAlpha" k2="-1" k3="1" operator="arithmetic"/><feColorMatrix type="matrix" values="0 0 0 0 0 0 0 0 0 0 0 0 0 0 0 0 0 0 0.05 0"/><feBlend in2="shape" mode="normal" result="effect1_innerShadow_3931_32002"/></filter><filter id="c" color-interpolation-filters="sRGB" filterUnits="userSpaceOnUse" height="48.1485" width="242.867" x="118.751" y="242.319"><feFlood flood-opacity="0" result="BackgroundImageFix"/><feBlend in="SourceGraphic" in2="BackgroundImageFix" mode="normal" result="shape"/><feColorMatrix in="SourceAlpha" result="hardAlpha" type="matrix" values="0 0 0 0 0 0 0 0 0 0 0 0 0 0 0 0 0 0 127 0"/><feOffset dy="-.708066"/><feComposite in2="hardAlpha" k2="-1" k3="1" operator="arithmetic"/><feColorMatrix type="matrix" values="0 0 0 0 0 0 0 0 0 0 0 0 0 0 0 0 0 0 0.05 0"/><feBlend in2="shape" mode="normal" result="effect1_innerShadow_3931_32002"/></filter><filter id="d" color-interpolation-filters="sRGB" filterUnits="userSpaceOnUse" height="48.1485" width="242.867" x="118.751" y="290.467"><feFlood flood-opacity="0" result="BackgroundImageFix"/><feBlend in="SourceGraphic" in2="BackgroundImageFix" mode="normal" result="shape"/><feColorMatrix in="SourceAlpha" result="hardAlpha" type="matrix" values="0 0 0 0 0 0 0 0 0 0 0 0 0 0 0 0 0 0 127 0"/><feOffset dy="-.708066"/><feComposite in2="hardAlpha" k2="-1" k3="1" operator="arithmetic"/><feColorMatrix type="matrix" values="0 0 0 0 0 0 0 0 0 0 0 0 0 0 0 0 0 0 0.05 0"/><feBlend in2="shape" mode="normal" result="effect1_innerShadow_3931_32002"/></filter><filter id="e" color-interpolation-filters="sRGB" filterUnits="userSpaceOnUse" height="48.1485" width="242.867" x="118.751" y="338.616"><feFlood flood-opacity="0" result="BackgroundImageFix"/><feBlend in="SourceGraphic" in2="BackgroundImageFix" mode="normal" result="shape"/><feColorMatrix in="SourceAlpha" result="hardAlpha" type="matrix" values="0 0 0 0 0 0 0 0 0 0 0 0 0 0 0 0 0 0 127 0"/><feOffset dy="-.708066"/><feComposite in2="hardAlpha" k2="-1" k3="1" operator="arithmetic"/><feColorMatrix type="matrix" values="0 0 0 0 0 0 0 0 0 0 0 0 0 0 0 0 0 0 0.05 0"/><feBlend in2="shape" mode="normal" result="effect1_innerShadow_3931_32002"/></filter><linearGradient id="f" gradientUnits="userSpaceOnUse" x1="240.185" x2="240.185" y1="427.5" y2="455.5"><stop offset="0" stop-color="#d9d9d9" stop-opacity="0"/><stop offset="1" stop-color="#646973" stop-opacity=".5"/></linearGradient><clipPath id="g"><path d="m.18457.5h480v455h-480z"/></clipPath><clipPath id="h"><rect height="574.949" rx="32" width="265.525" x="107.422" y="15.6825"/></clipPath><clipPath id="i"><path d="m137.162 213.996h11.3291v11.3291h-11.3291z"/></clipPath><clipPath id="j"><path d="m137.159 261.435h11.3291v11.3291h-11.3291z"/></clipPath><clipPath id="k"><path d="m137.163 309.583h11.3291v11.3291h-11.3291z"/></clipPath><clipPath id="l"><path d="m137.163 309.581h11.3291v11.3291h-11.3291z"/></clipPath><clipPath id="m"><path d="m137.159 357.732h11.3291v11.3291h-11.3291z"/></clipPath><mask id="n" fill="#fff"><path d="m118.751 197.002h242.867v45.317h-242.867z" fill="#fff"/></mask><g clip-path="url(#g)"><path d="m454.185 256c0-110.457-89.543-200-200-200h-28c-110.457 0-200.0004 89.543-200.0004 200v175c0 13.255 10.7451 24 24 24h380.0004c13.254 0 24-10.745 24-24z" fill="#6e7b62"/><g filter="url(#a)"><g clip-path="url(#h)"><rect fill="#eff2f0" height="574.949" rx="32" width="265.525" x="107.422" y="15.6825"/><path d="m0 0h265.525v52.4033h-265.525z" fill="#eff2f0" transform="translate(107.422 31.7925)"/><path clip-rule="evenodd" d="m130.081 54.4538c1.564 0 2.832-1.268 2.832-2.8322 0-1.5643-1.268-2.8323-2.832-2.8323-1.565 0-2.833 1.268-2.833 2.8323 0 1.5642 1.268 2.8322 2.833 2.8322zm0 1.4162c2.346 0 4.248-1.9021 4.248-4.2484 0-2.3464-1.902-4.2484-4.248-4.2484-2.347 0-4.249 1.902-4.249 4.2484 0 2.3463 1.902 4.2484 4.249 4.2484z" fill="#151418" fill-rule="evenodd"/><path clip-rule="evenodd" d="m130.081 58.7022c-2.623 0-4.973 1.2653-6.521 3.2656l-1.12-.8666c1.795-2.3196 4.546-3.8151 7.641-3.8151 3.094 0 5.846 1.4955 7.64 3.8151l-1.12.8666c-1.547-2.0003-3.898-3.2656-6.52-3.2656z" fill="#151418" fill-rule="evenodd"/><path d="m217.214 58.9539v-8.7687h3.874c1.938 0 2.843.8539 2.843 2.2941 0 .8284-.446 1.5677-1.377 1.8608 1.071.1912 1.734.9941 1.734 2.0137 0 1.4912-1.02 2.6001-2.945 2.6001zm4.015-3.9511h-2.575v2.7658h2.575c1.109 0 1.606-.5736 1.606-1.4403 0-.7647-.523-1.3255-1.606-1.3255zm-.242-3.6323h-2.333v2.4725h2.32c1.019 0 1.516-.548 1.516-1.3127 0-.7137-.42-1.1598-1.503-1.1598zm4.456 5.9265c0-1.1088.599-1.6696 2.026-1.8863l1.262-.2039c.663-.102.803-.1402.803-.5226 0-.599-.395-1.0706-1.224-1.0706-.828 0-1.261.4461-1.312 1.0961h-1.313c.089-1.2873 1.045-2.1284 2.625-2.1284 1.747 0 2.6.8284 2.6 2.2941v4.0785h-1.312v-.9687h-.051c-.293.6628-1.007 1.0706-2.04 1.0706-1.287 0-2.064-.65-2.064-1.7588zm4.091-.9432v-.5735c-.115.1529-.331.2549-.637.2931l-1.071.1912c-.701.102-1.007.3696-1.007.8922 0 .5098.357.8667.982.8667.905 0 1.733-.5481 1.733-1.6697zm3.161 2.6001v-6.2197h1.325v.9049h.051c.357-.701.995-1.0578 1.925-1.0578 1.236 0 2.332.6627 2.332 2.6v3.7726h-1.376v-3.5942c0-1.2363-.51-1.6569-1.326-1.6569-.879 0-1.555.7393-1.555 2.001v3.2501zm7.406 0v-9.3295h1.376v5.901l2.562-2.7912h1.555l-2.32 2.4981 2.562 3.7216h-1.606l-1.873-2.753-.88.9559v1.7971zm6.67-7.9275v-1.402h1.478v1.402zm.051 7.9275v-6.2197h1.376v6.2197zm3.248 0v-6.2197h1.326v.9049h.051c.357-.701.994-1.0578 1.924-1.0578 1.237 0 2.333.6627 2.333 2.6v3.7726h-1.377v-3.5942c0-1.2363-.51-1.6569-1.325-1.6569-.88 0-1.555.7393-1.555 2.001v3.2501zm7.138.7264h1.3c.013.7265.663 1.1471 1.581 1.1471 1.096 0 1.848-.5608 1.848-2.2049v-.599h-.051c-.395.7647-1.147 1.0833-2.065 1.0833-1.568 0-2.778-1.1343-2.778-3.2118 0-2.0647 1.287-3.3137 2.88-3.3137.905 0 1.568.3186 1.963 1.0833h.051v-.9304h1.312v5.8883c0 2.3451-1.351 3.2373-3.173 3.2373-1.67 0-2.83-.7138-2.868-2.1795zm1.262-3.7853c0 1.3765.726 2.103 1.695 2.103.956 0 1.708-.7902 1.708-2.1412 0-1.3765-.727-2.1667-1.708-2.1667-.969 0-1.695.8412-1.695 2.2049z" fill="#151418"/><path d="m118.751 95.5249c0-6.2569 5.073-11.3291 11.33-11.3291h220.208c6.257 0 11.329 5.0722 11.329 11.3291v53.3291h-242.867z" fill="#fff"/><path d="m130.345 101.744v-.552h5.182v.552h-2.265v5.781h-.653v-5.781zm6.232 2.614c0-1.868 1.224-3.267 3.056-3.267 1.777 0 3.056 1.399 3.056 3.267 0 1.869-1.279 3.268-3.056 3.268-1.823 0-3.056-1.399-3.056-3.268zm.681 0c0 1.528.948 2.67 2.375 2.67 1.418 0 2.375-1.142 2.375-2.67s-.957-2.669-2.375-2.669c-1.427 0-2.375 1.141-2.375 2.669zm6.478-2.614v-.552h5.183v.552h-2.265v5.781h-.653v-5.781zm5.66 5.781 2.384-6.333h.764l2.384 6.333h-.681l-.672-1.823h-2.854l-.672 1.823zm1.528-2.384h2.439l-1.197-3.268h-.036zm5.899 2.384v-6.333h.653v5.762h3.231v.571zm8.78 0v-6.333h2.54c1.353 0 1.961.598 1.961 1.602 0 .653-.368 1.169-1.077 1.38v.028c.847.138 1.325.709 1.325 1.473 0 1.067-.69 1.85-2.052 1.85zm2.697-3.01h-2.044v2.439h2.044c.957 0 1.399-.524 1.399-1.27 0-.663-.442-1.169-1.399-1.169zm-.157-2.752h-1.887v2.181h1.906c.837 0 1.288-.497 1.288-1.16 0-.626-.359-1.021-1.307-1.021zm3.74 5.762 2.384-6.333h.764l2.384 6.333h-.681l-.672-1.823h-2.854l-.672 1.823zm1.528-2.384h2.439l-1.196-3.268h-.037zm5.899 2.384v-6.333h.654v5.762h3.23v.571zm5.399 0 2.384-6.333h.764l2.384 6.333h-.681l-.672-1.823h-2.854l-.672 1.823zm1.528-2.384h2.439l-1.197-3.268h-.037zm5.899 2.384v-6.333h.626l3.7 5.228h.028l-.028-5.228h.653v6.333h-.625l-3.701-5.201h-.027l.027 5.201zm7.167-3.167c0-1.85 1.206-3.267 3.01-3.267 1.454 0 2.384.837 2.66 2.052h-.672c-.257-.92-.911-1.454-1.988-1.454-1.408 0-2.329 1.151-2.329 2.669 0 1.501.93 2.67 2.301 2.67 1.114 0 1.749-.534 2.016-1.455h.672c-.294 1.216-1.224 2.053-2.688 2.053-1.776 0-2.982-1.39-2.982-3.268zm7.843 3.167v-6.333h4.197v.571h-3.544v2.255h2.845v.561h-2.845v2.375h3.618v.571z" fill="#6e7277"/><g fill="#151418"><path d="m139.466 126.022c0 2.166-2.082 3.08-4.227 3.186v1.317h-.425v-1.317c-1.508-.021-2.592-.467-3.463-.998-.509-1.296-.467-2.741.064-2.741.17 0 .234.022.297.234.51 1.593 1.657 2.634 3.102 2.868v-4.504l-.106-.042c-2.061-.701-3.59-1.721-3.59-3.611 0-1.721 1.359-3.017 3.696-3.144v-1.381h.425v1.36h.021c1.296 0 2.4.318 3.292.849.51 1.296.468 2.741-.063 2.741-.17 0-.234-.043-.298-.234-.552-1.636-1.678-2.57-2.952-2.762v4.461l.085.021c1.741.595 4.142 1.339 4.142 3.697zm-6.84-6.182c0 1.275.935 1.848 2.188 2.316v-4.355h-.085c-1.53 0-2.103 1.041-2.103 2.039zm2.91 8.794c1.338-.021 2.294-.658 2.294-2.06 0-1.487-1.168-1.933-2.591-2.379v4.439zm5.303 1.891v-.425c1.423-.127 1.848-.361 1.848-1.147v-9.113c0-.956-.191-.977-.892-.934l-.871.063v-.403l2.825-1.317c.488-.213.637.021.637.34v11.364c0 .786.425 1.02 1.827 1.147v.425zm11.608.212c-3.016 0-4.843-1.614-4.843-3.866 0-1.444.765-2.74 2.804-3.462-1.254-.637-1.976-1.784-1.976-3.08 0-1.955 1.721-3.335 4.227-3.335 2.528 0 4.036 1.444 4.036 3.186 0 1.083-.594 2.188-2.145 2.868 1.975.637 3.122 1.933 3.122 3.611 0 2.315-2.166 4.078-5.225 4.078zm.297-8.284c1.785.489 2.528-1.062 2.528-2.379 0-1.253-.658-2.528-2.698-2.528-1.784 0-2.421 1.105-2.421 2.23 0 1.105.616 2.146 2.4 2.634zm-.085 7.732c2.146 0 3.08-1.381 3.08-2.995 0-1.53-.828-2.315-2.973-2.889l-.277-.064c-1.699-.488-3.335.234-3.335 2.443 0 1.827 1.169 3.505 3.505 3.505zm7.328 2.358-.276-.297c.424-.362.764-.978.764-1.317 0-.234-.127-.362-.34-.362-.616 0-1.083-.467-1.083-1.104 0-.701.552-1.147 1.19-1.147.871 0 1.253.743 1.253 1.572 0 .998-.595 2.06-1.508 2.655zm7.6-1.806c-2.655 0-4.716-1.508-4.716-3.738 0-.999.425-1.317 1.041-1.317 1.041 0 .553.828 1.232 2.485.404.977 1.19 2.018 2.677 2.018 1.805 0 3.165-1.551 3.165-3.696 0-2.209-1.317-4.248-3.739-4.248-1.317 0-2.358.573-2.931 1.444h-.446l.51-6.351h6.075l1.487-.298-.234 1.955h-6.946l-.319 3.844c.744-.786 2.146-1.359 3.527-1.359 2.272 0 4.97 1.466 4.97 4.546 0 2.697-2.294 4.715-5.353 4.715zm11.491-13.743c3.675 0 4.907 3.122 4.886 6.351-.022 3.59-1.551 7.392-5.63 7.392-.849 0-1.699-.148-2.336-.701l.255-.403c.764.403 1.232.446 1.635.446 3.229 0 4.185-3.654 4.185-6.352-.276.701-1.742 1.933-3.654 1.933-2.315 0-4.099-1.784-4.099-4.163 0-2.337 1.742-4.503 4.758-4.503zm-.17.552c-1.933 0-2.676 1.976-2.676 3.696 0 2.061 1.04 3.59 2.803 3.59 1.615 0 3.017-1.317 3.017-3.356 0-1.848-1.147-3.93-3.144-3.93zm7.808 12.979 6.627-11.534h-4.567c-1.359 0-2.252.106-2.804 1.338h-.531l.956-3.165 1.572.17h6.776l-6.67 13.191zm10.558.127c-.616 0-1.147-.531-1.147-1.168s.531-1.168 1.147-1.168c.637 0 1.168.531 1.168 1.168s-.531 1.168-1.168 1.168zm4.045-.127 6.628-11.534h-4.567c-1.36 0-2.252.106-2.804 1.338h-.531l.956-3.165 1.572.17h6.776l-6.67 13.191zm13.606.212c-2.655 0-4.715-1.508-4.715-3.738 0-.999.424-1.317 1.04-1.317 1.041 0 .553.828 1.232 2.485.404.977 1.19 2.018 2.677 2.018 1.806 0 3.165-1.551 3.165-3.696 0-2.209-1.317-4.248-3.739-4.248-1.317 0-2.357.573-2.931 1.444h-.446l.51-6.351h6.075l1.487-.298-.234 1.955h-6.946l-.319 3.844c.744-.786 2.146-1.359 3.527-1.359 2.273 0 4.97 1.466 4.97 4.546 0 2.697-2.294 4.715-5.353 4.715z"/><path d="m337.544 104.022c0 .782-.634 1.416-1.416 1.416-.783 0-1.417-.634-1.417-1.416s.634-1.416 1.417-1.416c.782 0 1.416.634 1.416 1.416z"/><path clip-rule="evenodd" d="m336.128 105.438c.782 0 1.416-.634 1.416-1.416s-.634-1.416-1.416-1.416c-.783 0-1.417.634-1.417 1.416s.634 1.416 1.417 1.416z" fill-rule="evenodd"/><path d="m343.208 104.022c0 .782-.634 1.416-1.416 1.416s-1.416-.634-1.416-1.416.634-1.416 1.416-1.416 1.416.634 1.416 1.416z"/><path clip-rule="evenodd" d="m341.792 105.438c.782 0 1.416-.634 1.416-1.416s-.634-1.416-1.416-1.416-1.416.634-1.416 1.416.634 1.416 1.416 1.416z" fill-rule="evenodd"/><path d="m348.873 104.022c0 .782-.634 1.416-1.416 1.416s-1.417-.634-1.417-1.416.635-1.416 1.417-1.416 1.416.634 1.416 1.416z"/><path clip-rule="evenodd" d="m347.457 105.438c.782 0 1.416-.634 1.416-1.416s-.634-1.416-1.416-1.416-1.417.634-1.417 1.416.635 1.416 1.417 1.416z" fill-rule="evenodd"/></g><g filter="url(#b)"><path d="m0 0h242.867v48.1485h-242.867z" fill="#fff" transform="translate(118.751 148.854)"/><rect fill="#5c6857" height="25.4904" rx="12.7452" width="25.4904" x="130.081" y="160.183"/><path d="m138.637 168.038h8.378v5.584c0 2.313-1.875 4.189-4.189 4.189s-4.189-1.876-4.189-4.189z" stroke="#eff2f0" stroke-width="1.0621"/><path d="m141.056 175.367 3.54-3.54" stroke="#eff2f0" stroke-width=".944088"/><circle cx="144.314" cy="175.182" fill="#eff2f0" r=".534166"/><circle cx="141.316" cy="172.251" fill="#eff2f0" r=".534166"/><path d="m146.602 170.317h-7.553" stroke="#eff2f0" stroke-width="1.0621"/><g fill="#151418"><path d="m167.931 176.428v-7.794h2.889c1.71 0 2.662 1.008 2.662 2.447s-.952 2.515-2.662 2.515h-2.085v2.832zm2.923-7.092h-2.119v3.558h2.119c1.212 0 1.824-.805 1.824-1.813s-.612-1.745-1.824-1.745zm3.944 7.092v-5.528h.737v.906h.034c.26-.634.77-1.031 1.484-1.031.238 0 .51.034.782.227l-.25.691c-.26-.136-.475-.182-.691-.182-.872 0-1.325.941-1.325 1.994v2.923zm3.927-7.205v-1.088h.838v1.088zm.034 7.205v-5.528h.77v5.528zm2.578 0v-5.528h.736v.906h.034c.329-.691.997-1.031 1.756-1.031.771 0 1.428.329 1.734 1.178.374-.849 1.087-1.178 1.903-1.178 1.042 0 1.881.6 1.881 2.198v3.455h-.771v-3.353c0-1.178-.453-1.632-1.269-1.632-.849 0-1.597.725-1.597 2.119v2.866h-.77v-3.353c0-1.178-.499-1.632-1.269-1.632-.85 0-1.598.737-1.598 2.108v2.877zm9.44-1.439c0-.963.533-1.427 1.756-1.642l1.19-.204c.578-.091.747-.147.747-.453 0-.782-.464-1.281-1.325-1.281s-1.359.442-1.416 1.213h-.737c.057-1.088.839-1.847 2.153-1.847 1.371 0 2.096.736 2.096 2.017v3.636h-.737v-.985c-.317.634-1.03 1.076-1.914 1.076-1.122 0-1.813-.623-1.813-1.53zm3.693-.963v-.623c-.124.148-.328.238-.634.284l-1.167.204c-.759.124-1.121.396-1.121 1.019 0 .578.385.974 1.099.974 1.019 0 1.823-.611 1.823-1.858zm2.5 2.402v-5.528h.736v.906h.034c.261-.634.77-1.031 1.484-1.031.238 0 .51.034.782.227l-.249.691c-.261-.136-.476-.182-.691-.182-.873 0-1.326.941-1.326 1.994v2.923zm3.859 1.915h.306c.691 0 1.111-.419 1.382-1.19l.204-.555-2.175-5.698h.839l1.699 4.69h.034l1.688-4.69h.77l-2.424 6.469c-.306.815-.827 1.631-1.881 1.631h-.442z"/><path d="m298.584 174.23h1.223c.057.895.657 1.383 1.518 1.383.895 0 1.473-.454 1.473-1.269 0-.714-.498-.975-1.303-1.213l-.963-.294c-.781-.238-1.767-.816-1.767-2.141 0-1.133.804-1.972 2.017-2.153v-1.223h1.087v1.223c1.11.181 1.915.941 2.005 2.085h-1.212c-.102-.816-.645-1.167-1.337-1.167-.702 0-1.302.351-1.302 1.11 0 .714.396.929 1.212 1.201l.963.295c1.223.373 1.869 1.019 1.869 2.163 0 1.269-.884 2.119-2.198 2.3v1.258h-1.087v-1.258c-1.326-.181-2.153-.997-2.198-2.3zm6.45.102c0-.963.521-1.722 1.428-1.96-.646-.215-1.133-.985-1.133-1.756 0-1.257.985-2.118 2.481-2.118 1.495 0 2.481.861 2.481 2.118 0 .771-.487 1.541-1.133 1.756.906.238 1.427.997 1.427 1.96 0 1.416-1.053 2.232-2.775 2.232s-2.776-.816-2.776-2.232zm1.246-.09c0 .861.567 1.337 1.53 1.337s1.529-.476 1.529-1.337c0-.816-.578-1.337-1.529-1.337-.952 0-1.53.521-1.53 1.337zm1.53-2.345c.736 0 1.314-.476 1.314-1.247 0-.759-.578-1.2-1.314-1.2-.737 0-1.314.441-1.314 1.2 0 .771.577 1.247 1.314 1.247zm4.626 4.531h-.589v-1.382h1.393v1.292l-.532 1.824h-.646zm7.461 0h-5.279c.057-1.79.634-2.628 1.869-3.444l.884-.578c.759-.509 1.224-.827 1.224-1.642 0-.612-.374-1.247-1.303-1.247-.873 0-1.337.488-1.405 1.462h-1.156c.091-1.869 1.281-2.481 2.572-2.481 1.484 0 2.526.838 2.526 2.243 0 1.303-.759 1.869-1.665 2.447l-.872.578c-1.043.68-1.235 1.167-1.269 1.643h3.863zm1.069-2.356h1.201c0 1.042.635 1.495 1.496 1.495.906 0 1.495-.464 1.495-1.337 0-.861-.668-1.325-1.518-1.325h-.578v-1.008h.589c.714 0 1.281-.476 1.281-1.247 0-.759-.556-1.166-1.281-1.166-.713 0-1.28.43-1.28 1.302h-1.11c0-1.416.997-2.288 2.402-2.288 1.45 0 2.435.838 2.435 2.107 0 .85-.498 1.496-1.121 1.733.816.238 1.427.918 1.427 1.994 0 1.416-1.144 2.232-2.741 2.232-1.609 0-2.697-.77-2.697-2.492zm9.181 2.492c-1.994 0-2.787-1.767-2.787-4.033s.793-4.033 2.787-4.033 2.787 1.767 2.787 4.033-.793 4.033-2.787 4.033zm0-1.053c1.031 0 1.507-1.031 1.507-2.98s-.476-2.98-1.507-2.98c-1.042 0-1.507 1.031-1.507 2.98s.476 2.98 1.507 2.98zm4.037.917v-1.382h1.394v1.382zm3.689 0 3.172-6.707h-4.112v-1.087h5.438v.804l-3.229 6.99zm5.442-3.716c0-3.138 1.348-4.214 2.98-4.214 1.642 0 2.322.861 2.413 2.13h-1.201c-.057-.657-.34-1.133-1.212-1.133-.918 0-1.643.725-1.7 2.843v.023c.306-.578 1.088-.918 1.847-.918 1.371 0 2.447.929 2.447 2.527 0 1.677-1.28 2.594-2.674 2.594-1.586 0-2.9-.985-2.9-3.852zm2.934-.272c-.872 0-1.518.657-1.518 1.552v.012c0 .917.601 1.563 1.45 1.563.827 0 1.484-.555 1.484-1.586 0-.94-.645-1.541-1.416-1.541z"/></g></g><path d="m118.751 197.002h242.867v45.317h-242.867z" fill="#fff"/><path d="m361.618 241.611h-242.867v1.416h242.867z" fill="#151418" fill-opacity=".05" mask="url(#n)"/><g clip-path="url(#i)"><path clip-rule="evenodd" d="m144.902 213.996h-1.416-.925v2.055c-2.124.132-3.822 1.837-3.944 3.964h-1.455v1.062h1.448v2.478h-1.448v1.062h11.329v-1.062h-1.449v-2.478h1.449v-1.062h-1.456c-.111-1.947-1.542-3.54-3.412-3.897v-1.06h1.279zm-5.22 6.019c.124-1.628 1.484-2.91 3.144-2.91s3.02 1.282 3.145 2.91zm-.01 3.54h2.667v-2.478h-2.667zm3.729 0h2.579v-2.478h-2.579z" fill="#a69d79" fill-rule="evenodd"/></g><circle cx="142.826" cy="219.661" r="12.0371" stroke="#eff2f0" stroke-width="1.41613"/><path d="m142.826 207.623c1.581 0 3.146.312 4.607.917 1.46.605 2.787 1.491 3.905 2.609 1.117 1.118 2.004 2.445 2.609 3.905.605 1.461.916 3.026.916 4.607 0 1.58-.311 3.146-.916 4.606s-1.492 2.787-2.609 3.905c-1.118 1.118-2.445 2.004-3.905 2.609-1.461.605-3.026.917-4.607.917" stroke="#a69d79" stroke-width="1.3806"/><path d="m166.991 216.046v-.68h6.378v.68h-2.787v7.115h-.805v-7.115zm5.62 5.676c0-.963.532-1.428 1.756-1.643l1.189-.204c.578-.09.748-.147.748-.453 0-.782-.464-1.28-1.325-1.28s-1.36.442-1.416 1.212h-.737c.057-1.088.838-1.847 2.153-1.847 1.37 0 2.096.737 2.096 2.017v3.637h-.737v-.986c-.317.634-1.031 1.076-1.914 1.076-1.122 0-1.813-.623-1.813-1.529zm3.693-.963v-.623c-.124.147-.328.238-.634.283l-1.167.204c-.759.125-1.122.396-1.122 1.02 0 .577.385.974 1.099.974 1.02 0 1.824-.612 1.824-1.858zm1.752 2.402 1.96-2.776-1.926-2.753h.906l1.484 2.164 1.473-2.164h.838l-1.937 2.742 1.971 2.787h-.917l-1.507-2.21-1.496 2.21zm5.24-2.765c0-1.71 1.088-2.889 2.549-2.889 1.394 0 2.38.963 2.38 2.629v.317h-4.124v.045c.034 1.28.691 2.119 1.778 2.119.895 0 1.405-.499 1.53-1.133h.77c-.147.997-1.065 1.801-2.3 1.801-1.665 0-2.583-1.133-2.583-2.889zm2.549-2.22c-.872 0-1.529.657-1.699 1.699h3.297c-.079-1.144-.68-1.699-1.598-1.699zm3.392 3.376h.736c0 .816.68 1.133 1.439 1.133.94 0 1.439-.317 1.439-1.042 0-.533-.284-.748-.952-.873l-1.02-.181c-.725-.125-1.518-.419-1.518-1.428 0-1.042.895-1.654 2.074-1.654 1.121 0 2.061.567 2.061 1.711h-.736c0-.714-.555-1.11-1.325-1.11-.771 0-1.326.34-1.326.986 0 .509.329.725 1.008.849l1.02.181c.85.148 1.484.476 1.484 1.485 0 1.132-.918 1.676-2.186 1.676-1.326 0-2.198-.589-2.198-1.733z" fill="#151418"/><path d="m299.606 220.963h1.224c.056.895.657 1.382 1.518 1.382.895 0 1.472-.453 1.472-1.269 0-.714-.498-.974-1.302-1.212l-.963-.295c-.782-.238-1.768-.815-1.768-2.141 0-1.133.805-1.971 2.017-2.152v-1.224h1.087v1.224c1.111.181 1.915.94 2.006 2.084h-1.212c-.102-.816-.646-1.167-1.337-1.167-.703 0-1.303.351-1.303 1.111 0 .713.396.929 1.212 1.2l.963.295c1.224.374 1.869 1.02 1.869 2.164 0 1.269-.883 2.118-2.198 2.3v1.257h-1.087v-1.257c-1.326-.182-2.153-.997-2.198-2.3zm7.175-2.934-.532-.907 2.56-1.756h.861v6.775h1.813v1.02h-4.973v-1.02h1.937v-5.257zm6.677 5.132h-.589v-1.383h1.394v1.292l-.533 1.824h-.646zm1.933-1.824v-.827l3.716-5.144h1.02v4.951h1.065v1.02h-1.065v1.824h-1.224v-1.824zm1.224-1.02h2.288v-3.115zm5.396.759h1.224c.09.601.532 1.224 1.484 1.224.77 0 1.484-.544 1.484-1.552 0-.997-.634-1.575-1.484-1.575-.589 0-.986.294-1.337.736l-1.121-.09.237-4.453h4.487v1.054h-3.388l-.136 2.232h.057c.306-.272.77-.476 1.405-.476 1.405 0 2.504.918 2.504 2.492 0 1.779-1.303 2.629-2.708 2.629-1.643 0-2.583-.873-2.708-2.221zm6.428-1.631c0-3.138 1.348-4.215 2.979-4.215 1.643 0 2.323.861 2.414 2.13h-1.201c-.057-.657-.34-1.133-1.213-1.133-.917 0-1.642.725-1.699 2.844v.023c.306-.578 1.088-.918 1.847-.918 1.371 0 2.447.929 2.447 2.526 0 1.677-1.28 2.595-2.674 2.595-1.586 0-2.9-.986-2.9-3.852zm2.934-.272c-.872 0-1.518.657-1.518 1.552v.011c0 .918.601 1.564 1.45 1.564.827 0 1.484-.555 1.484-1.586 0-.941-.645-1.541-1.416-1.541zm3.833 3.988v-1.383h1.394v1.383zm3.689 0 3.172-6.707h-4.112v-1.088h5.438v.805l-3.229 6.99zm5.454-2.085h1.223c.091.601.533 1.224 1.484 1.224.771 0 1.484-.544 1.484-1.552 0-.997-.634-1.575-1.484-1.575-.589 0-.985.294-1.337.736l-1.121-.09.238-4.453h4.486v1.054h-3.387l-.136 2.232h.056c.306-.272.771-.476 1.405-.476 1.405 0 2.504.918 2.504 2.492 0 1.779-1.303 2.629-2.708 2.629-1.643 0-2.583-.873-2.707-2.221z" fill="#151418"/><g filter="url(#c)"><path d="m0 0h242.867v48.1485h-242.867z" fill="#fff" transform="translate(118.751 242.319)"/><rect fill="#c2955a" height="25.4904" rx="12.7452" width="25.4904" x="130.081" y="253.648"/><g clip-path="url(#j)"><path clip-rule="evenodd" d="m140.931 261.669c.09-.18.273-.294.475-.294h2.831c.201 0 .385.114.475.294s.071.395-.05.556l-.974 1.298 1.29.43c1.566.522 2.622 1.988 2.622 3.638v2.339c0 1.596-1.294 2.89-2.891 2.89h-3.775c-1.597 0-2.891-1.294-2.891-2.89v-2.339c0-1.65 1.056-3.116 2.622-3.638l1.289-.429-.973-1.299c-.121-.161-.14-.376-.05-.556zm1.536.769.354.471.354-.471zm.355 1.916-1.821.607c-1.132.377-1.896 1.437-1.896 2.63v2.339c0 1.01.819 1.828 1.829 1.828h3.775c1.01 0 1.829-.818 1.829-1.828v-2.339c0-1.193-.764-2.253-1.896-2.63zm1.34 2.185c-.226-.242-.512-.425-.831-.523v-.601h-1.062v.605c-.457.171-.798.585-.859 1.094-.072.61.281 1.191.855 1.408l.8.302c.117.044.179.171.143.29-.038.125-.154.211-.285.211h-.123c-.222 0-.432-.081-.588-.225-.066-.061-.109-.102-.123-.116l-.761.741c.038.039.103.099.164.156.224.207.491.353.777.433v.611h1.062v-.6c.42-.132.761-.465.894-.903.198-.654-.145-1.35-.784-1.592l-.801-.302c-.117-.044-.19-.163-.175-.289.016-.137.133-.241.272-.241h.063c.213 0 .426.094.586.266.029.03.057.06.085.089l.765-.737c-.023-.024-.048-.05-.074-.077z" fill="#fff" fill-rule="evenodd"/></g><g fill="#151418"><path d="m167.931 269.893v-7.795h2.889c1.71 0 2.662 1.009 2.662 2.448 0 1.438-.952 2.515-2.662 2.515h-2.085v2.832zm2.923-7.092h-2.119v3.557h2.119c1.212 0 1.824-.804 1.824-1.812 0-1.009-.612-1.745-1.824-1.745zm3.944 7.092v-5.529h.737v.907h.034c.26-.635.77-1.031 1.484-1.031.238 0 .51.034.782.226l-.25.691c-.26-.136-.475-.181-.691-.181-.872 0-1.325.94-1.325 1.994v2.923zm3.354-2.764c0-1.768 1.121-2.889 2.628-2.889 1.598 0 2.629 1.121 2.629 2.889 0 1.767-1.122 2.888-2.629 2.888-1.597 0-2.628-1.121-2.628-2.888zm.804 0c0 1.348.748 2.22 1.824 2.22 1.054 0 1.824-.872 1.824-2.22 0-1.394-.736-2.221-1.824-2.221-1.053 0-1.824.872-1.824 2.221zm9.278 2.764v-4.906h-2.481v4.906h-.771v-4.906h-1.099v-.623h1.099v-.974c0-1.212.612-1.79 1.756-1.79h.567v.668h-.499c-.77 0-1.053.374-1.053 1.156v.94h3.251v5.529zm-.034-7.205v-1.088h.838v1.088zm2.754 5.619v-3.32h-1.087v-.623h1.087v-1.676h.771v1.676h1.506v.623h-1.506v3.286c0 .713.26.951.883.951h.623v.669h-.725c-1.042 0-1.552-.499-1.552-1.586z"/><path d="m298.72 267.695h1.223c.057.895.657 1.382 1.518 1.382.895 0 1.473-.453 1.473-1.269 0-.713-.499-.974-1.303-1.212l-.963-.294c-.782-.238-1.767-.816-1.767-2.142 0-1.133.804-1.971 2.016-2.152v-1.224h1.088v1.224c1.11.181 1.915.94 2.005 2.084h-1.212c-.102-.815-.646-1.167-1.337-1.167-.702 0-1.303.352-1.303 1.111 0 .713.397.929 1.213 1.201l.963.294c1.223.374 1.869 1.02 1.869 2.164 0 1.269-.884 2.119-2.198 2.3v1.257h-1.088v-1.257c-1.325-.181-2.152-.997-2.197-2.3zm7.175-2.934-.533-.907 2.561-1.756h.861v6.775h1.812v1.02h-4.973v-1.02h1.937v-5.256zm6.677 5.132h-.589v-1.382h1.393v1.291l-.532 1.824h-.646zm2.103-3.716c0-3.138 1.348-4.215 2.979-4.215 1.643 0 2.323.861 2.413 2.13h-1.201c-.056-.657-.34-1.133-1.212-1.133-.918 0-1.643.725-1.699 2.844v.023c.306-.578 1.087-.918 1.846-.918 1.371 0 2.447.929 2.447 2.526 0 1.677-1.28 2.595-2.673 2.595-1.586 0-2.9-.986-2.9-3.852zm2.934-.272c-.873 0-1.518.657-1.518 1.552v.011c0 .918.6 1.564 1.45 1.564.827 0 1.484-.555 1.484-1.586 0-.941-.646-1.541-1.416-1.541zm6.235 4.124c-1.994 0-2.787-1.768-2.787-4.033 0-2.266.793-4.034 2.787-4.034s2.787 1.768 2.787 4.034c0 2.265-.793 4.033-2.787 4.033zm0-1.054c1.031 0 1.507-1.031 1.507-2.979 0-1.949-.476-2.98-1.507-2.98-1.042 0-1.507 1.031-1.507 2.98 0 1.948.476 2.979 1.507 2.979zm6.439 1.054c-1.994 0-2.787-1.768-2.787-4.033 0-2.266.793-4.034 2.787-4.034s2.787 1.768 2.787 4.034c0 2.265-.793 4.033-2.787 4.033zm0-1.054c1.031 0 1.507-1.031 1.507-2.979 0-1.949-.476-2.98-1.507-2.98-1.043 0-1.507 1.031-1.507 2.98 0 1.948.476 2.979 1.507 2.979zm4.037.918v-1.382h1.393v1.382zm5.422.136c-1.994 0-2.787-1.768-2.787-4.033 0-2.266.793-4.034 2.787-4.034s2.787 1.768 2.787 4.034c0 2.265-.793 4.033-2.787 4.033zm0-1.054c1.031 0 1.507-1.031 1.507-2.979 0-1.949-.476-2.98-1.507-2.98-1.042 0-1.507 1.031-1.507 2.98 0 1.948.476 2.979 1.507 2.979zm6.439 1.054c-1.994 0-2.787-1.768-2.787-4.033 0-2.266.793-4.034 2.787-4.034s2.787 1.768 2.787 4.034c0 2.265-.793 4.033-2.787 4.033zm0-1.054c1.031 0 1.507-1.031 1.507-2.979 0-1.949-.476-2.98-1.507-2.98-1.042 0-1.507 1.031-1.507 2.98 0 1.948.476 2.979 1.507 2.979z"/></g></g><g filter="url(#d)"><path d="m0 0h242.867v48.1485h-242.867z" fill="#fff" transform="translate(118.751 290.467)"/><rect fill="#3f413e" height="25.4904" rx="12.7452" width="25.4904" x="130.081" y="301.796"/><g clip-path="url(#k)"><g clip-path="url(#l)"><path clip-rule="evenodd" d="m143.614 312.533c.073-.13.115-.281.115-.441 0-.498-.404-.902-.902-.902s-.901.404-.901.902c0 .16.041.311.115.441.252-.046.516-.071.786-.071s.534.025.787.071zm.872.268c.032-.074.059-.151.08-.231 1.084.538 1.788 1.56 1.788 2.678 0 .887-.433 1.7-1.152 2.272l-.201.16v.256 1.289h-.741v-.46-.649l-.636.129c-.256.051-.522.078-.797.078-.42 0-.822-.064-1.193-.18l-.69-.217v.723.576h-.742v-1.71-.206l-.138-.152c-.308-.338-.534-.731-.656-1.155l-.111-.384h-.399-.499v-1.192h.666.341l.142-.311c.127-.279.302-.541.516-.777l.138-.152v-.205-1.194c.306.076.586.218.825.409.012.214.061.418.142.605-.108.048-.211.101-.309.159l.536.917c.362-.212.862-.352 1.431-.352s1.07.14 1.432.352l.536-.917c-.099-.058-.202-.111-.309-.159zm-4.815-2.142c.6 0 1.163.164 1.645.449.322-.493.878-.819 1.511-.819.748 0 1.389.454 1.662 1.102 1.545.543 2.713 1.821 2.9 3.406h.848v.902h-.848c-.117.975-.608 1.84-1.326 2.483v1.123c0 .543-.439.982-.982.982h-.901c-.52 0-.946-.404-.98-.915-.123.009-.247.013-.373.013-.28 0-.554-.022-.821-.066-.008.536-.445.968-.982.968h-.902c-.542 0-.982-.439-.982-.982v-1.592c-.256-.312-.466-.659-.619-1.032h-.202c-.542 0-.982-.44-.982-.982v-1.353c0-.542.44-.982.982-.982h.421c.116-.205.25-.399.4-.581v-1.593-.531zm3.132 3.236h.024.024zm-1.779.451c0 .249-.202.451-.451.451s-.451-.202-.451-.451.202-.451.451-.451.451.202.451.451z" fill="#fff" fill-rule="evenodd"/></g></g><g fill="#151418"><path d="m167.432 314.144c0-2.3 1.507-4.022 3.762-4.022 2.186 0 3.761 1.722 3.761 4.022s-1.575 4.022-3.761 4.022c-2.244 0-3.762-1.722-3.762-4.022zm.839 0c0 1.881 1.167 3.285 2.923 3.285 1.744 0 2.923-1.404 2.923-3.285s-1.179-3.285-2.923-3.285c-1.756 0-2.923 1.404-2.923 3.285zm9.08 3.897-1.642-5.528h.804l1.28 4.724h.045l1.371-4.724h.907l1.37 4.724h.046l1.28-4.724h.77l-1.642 5.528h-.929l-1.349-4.758h-.034l-1.348 4.758zm7.228 0v-5.528h.736v.906h.034c.328-.691.997-1.031 1.813-1.031 1.087 0 2.005.601 2.005 2.266v3.387h-.771v-3.285c0-1.235-.566-1.7-1.393-1.7-.906 0-1.654.737-1.654 2.108v2.877zm5.898-2.764c0-1.711 1.087-2.889 2.549-2.889 1.393 0 2.379.963 2.379 2.628v.318h-4.124v.045c.034 1.28.691 2.118 1.779 2.118.895 0 1.404-.498 1.529-1.132h.77c-.147.997-1.064 1.801-2.299 1.801-1.666 0-2.583-1.133-2.583-2.889zm2.549-2.221c-.873 0-1.53.658-1.7 1.7h3.297c-.079-1.144-.68-1.7-1.597-1.7zm3.745 4.985v-5.528h.736v.906h.034c.26-.634.77-1.031 1.484-1.031.238 0 .51.034.782.227l-.25.691c-.26-.136-.475-.182-.691-.182-.872 0-1.325.941-1.325 1.994v2.923zm4.17-4.939.329-1.654h-.374v-1.201h.906v1.133l-.442 1.722zm1.86 3.331h.736c0 .815.68 1.132 1.439 1.132.94 0 1.439-.317 1.439-1.042 0-.532-.284-.748-.952-.872l-1.02-.181c-.725-.125-1.518-.42-1.518-1.428 0-1.042.895-1.654 2.073-1.654 1.122 0 2.062.567 2.062 1.711h-.736c0-.714-.555-1.11-1.326-1.11-.77 0-1.325.339-1.325.985 0 .51.328.725 1.008.85l1.02.181c.85.147 1.484.476 1.484 1.484 0 1.133-.918 1.677-2.187 1.677-1.325 0-2.197-.589-2.197-1.733zm8.377 1.608v-7.794h2.889c1.711 0 2.662 1.008 2.662 2.447s-.951 2.515-2.662 2.515h-2.084v2.832zm2.923-7.092h-2.118v3.558h2.118c1.212 0 1.824-.805 1.824-1.813s-.612-1.745-1.824-1.745zm3.527 5.653c0-.963.533-1.427 1.756-1.642l1.19-.204c.578-.091.748-.147.748-.453 0-.782-.465-1.281-1.326-1.281s-1.359.442-1.416 1.213h-.736c.056-1.088.838-1.847 2.152-1.847 1.371 0 2.096.736 2.096 2.017v3.636h-.736v-.985c-.318.634-1.031 1.076-1.915 1.076-1.122 0-1.813-.623-1.813-1.53zm3.694-.963v-.623c-.125.148-.329.238-.635.284l-1.167.204c-.759.124-1.121.396-1.121 1.019 0 .578.385.974 1.099.974 1.019 0 1.824-.611 1.824-1.858zm1.834 4.317h.306c.691 0 1.11-.419 1.382-1.19l.204-.555-2.176-5.698h.839l1.699 4.69h.034l1.688-4.69h.771l-2.425 6.469c-.306.815-.827 1.631-1.881 1.631h-.441z"/><path d="m298.72 315.843h1.223c.057.895.657 1.383 1.518 1.383.895 0 1.473-.454 1.473-1.269 0-.714-.499-.975-1.303-1.212l-.963-.295c-.782-.238-1.767-.816-1.767-2.141 0-1.133.804-1.971 2.016-2.153v-1.223h1.088v1.223c1.11.182 1.915.941 2.005 2.085h-1.212c-.102-.816-.646-1.167-1.337-1.167-.702 0-1.303.351-1.303 1.11 0 .714.397.929 1.213 1.201l.963.295c1.223.373 1.869 1.019 1.869 2.163 0 1.269-.884 2.119-2.198 2.3v1.258h-1.088v-1.258c-1.325-.181-2.152-.997-2.197-2.3zm6.507.114h1.223c.091.6.533 1.223 1.484 1.223.771 0 1.484-.544 1.484-1.552 0-.997-.634-1.575-1.484-1.575-.589 0-.985.295-1.337.737l-1.121-.091.238-4.452h4.486v1.053h-3.387l-.136 2.232h.056c.306-.272.771-.476 1.405-.476 1.405 0 2.504.918 2.504 2.493 0 1.779-1.303 2.628-2.708 2.628-1.643 0-2.583-.872-2.707-2.22zm7.345 2.084h-.589v-1.382h1.393v1.292l-.532 1.824h-.646zm4.833.136c-1.994 0-2.787-1.767-2.787-4.033s.793-4.033 2.787-4.033 2.787 1.767 2.787 4.033-.793 4.033-2.787 4.033zm0-1.053c1.031 0 1.507-1.031 1.507-2.98s-.476-2.979-1.507-2.979c-1.042 0-1.507 1.03-1.507 2.979s.476 2.98 1.507 2.98zm6.439 1.053c-1.994 0-2.787-1.767-2.787-4.033s.793-4.033 2.787-4.033 2.787 1.767 2.787 4.033-.793 4.033-2.787 4.033zm0-1.053c1.031 0 1.507-1.031 1.507-2.98s-.476-2.979-1.507-2.979c-1.042 0-1.507 1.03-1.507 2.979s.476 2.98 1.507 2.98zm6.439 1.053c-1.994 0-2.787-1.767-2.787-4.033s.793-4.033 2.787-4.033 2.787 1.767 2.787 4.033-.793 4.033-2.787 4.033zm0-1.053c1.031 0 1.507-1.031 1.507-2.98s-.476-2.979-1.507-2.979c-1.043 0-1.507 1.03-1.507 2.979s.476 2.98 1.507 2.98zm4.037.917v-1.382h1.393v1.382zm5.422.136c-1.994 0-2.787-1.767-2.787-4.033s.793-4.033 2.787-4.033 2.787 1.767 2.787 4.033-.793 4.033-2.787 4.033zm0-1.053c1.031 0 1.507-1.031 1.507-2.98s-.476-2.979-1.507-2.979c-1.042 0-1.507 1.03-1.507 2.979s.476 2.98 1.507 2.98zm6.439 1.053c-1.994 0-2.787-1.767-2.787-4.033s.793-4.033 2.787-4.033 2.787 1.767 2.787 4.033-.793 4.033-2.787 4.033zm0-1.053c1.031 0 1.507-1.031 1.507-2.98s-.476-2.979-1.507-2.979c-1.042 0-1.507 1.03-1.507 2.979s.476 2.98 1.507 2.98z"/></g></g><g filter="url(#e)"><path d="m0 0h242.867v48.1485h-242.867z" fill="#fff" transform="translate(118.751 338.616)"/><rect fill="#996847" height="25.4904" rx="12.7452" width="25.4904" x="130.081" y="349.945"/><g clip-path="url(#m)"><path clip-rule="evenodd" d="m139.117 358.993c0-.097.08-.177.177-.177h6.361c.098 0 .177.08.177.177v6.418l-4.619-.012c-.372 0-.674.301-.674.673v1.061c0 .393-.318.711-.711.711-.392 0-.711-.318-.711-.711zm7.778 0v6.421l.717.001c.371.001.671.302.671.673v.885c0 1.077-.874 1.949-1.951 1.947l-6.562-.014v-.001c-.952-.031-1.715-.812-1.715-1.772v-8.14c0-.684.555-1.239 1.239-1.239h6.361c.685 0 1.24.555 1.24 1.239zm-.561 8.865-4.883-.01c.097-.219.15-.461.15-.715v-.67l5.62.013v.497c0 .489-.398.886-.887.885zm-2.095-7.626h-3.54v1.063h3.54z" fill="#fff" fill-rule="evenodd"/></g><g fill="#151418"><path d="m167.432 362.293c0-2.3 1.507-4.022 3.762-4.022 2.186 0 3.761 1.722 3.761 4.022 0 2.299-1.575 4.021-3.761 4.021-2.244 0-3.762-1.722-3.762-4.021zm.839 0c0 1.88 1.167 3.285 2.923 3.285 1.744 0 2.923-1.405 2.923-3.285 0-1.881-1.179-3.286-2.923-3.286-1.756 0-2.923 1.405-2.923 3.286zm8.891 4.973v1.416h-.77v-8.021h.736v.986h.034c.351-.771 1.087-1.11 1.949-1.11 1.359 0 2.413 1.064 2.413 2.843s-1.111 2.934-2.481 2.934c-.861 0-1.53-.339-1.881-1.11h-.034c.034.533.034 1.79.034 2.062zm3.557-3.886c0-1.405-.793-2.175-1.778-2.175-.975 0-1.745.782-1.779 2.119v.101c0 1.405.782 2.221 1.779 2.221s1.778-.872 1.778-2.266zm1.869.045c0-1.71 1.088-2.888 2.549-2.888 1.394 0 2.379.963 2.379 2.628v.317h-4.123v.045c.034 1.281.691 2.119 1.778 2.119.895 0 1.405-.499 1.53-1.133h.77c-.147.997-1.065 1.801-2.3 1.801-1.665 0-2.583-1.133-2.583-2.889zm2.549-2.22c-.872 0-1.529.657-1.699 1.699h3.297c-.08-1.144-.68-1.699-1.598-1.699zm3.745 4.985v-5.529h.737v.907h.034c.26-.635.77-1.031 1.484-1.031.238 0 .51.034.781.226l-.249.691c-.26-.136-.476-.181-.691-.181-.872 0-1.325.94-1.325 1.994v2.923zm3.488-1.439c0-.963.533-1.427 1.756-1.643l1.19-.204c.578-.09.748-.147.748-.453 0-.782-.465-1.28-1.326-1.28s-1.359.442-1.416 1.212h-.736c.056-1.087.838-1.846 2.152-1.846 1.371 0 2.096.736 2.096 2.016v3.637h-.736v-.986c-.318.635-1.031 1.076-1.915 1.076-1.122 0-1.813-.623-1.813-1.529zm3.694-.963v-.623c-.125.147-.329.238-.635.283l-1.167.204c-.759.125-1.121.397-1.121 1.02 0 .577.385.974 1.099.974 1.019 0 1.824-.612 1.824-1.858zm2.568.816v-3.32h-1.087v-.623h1.087v-1.677h.771v1.677h1.507v.623h-1.507v3.286c0 .713.26.951.883.951h.624v.669h-.726c-1.042 0-1.552-.499-1.552-1.586zm3.426-5.62v-1.087h.838v1.087zm.034 7.206v-5.529h.77v5.529zm2.578 0v-5.529h.736v.907h.034c.329-.692.997-1.031 1.813-1.031 1.088 0 2.005.6 2.005 2.265v3.388h-.77v-3.286c0-1.235-.567-1.699-1.394-1.699-.906 0-1.654.736-1.654 2.107v2.878zm6.034.68h.736c0 .804.68 1.268 1.643 1.268 1.042 0 1.881-.555 1.881-2.186v-.748h-.034c-.363.771-1.088 1.11-1.949 1.11-1.359 0-2.413-1.065-2.413-2.843 0-1.779 1.11-2.934 2.481-2.934.861 0 1.529.351 1.881 1.11h.034v-.986h.736v5.291c0 2.084-1.167 2.821-2.617 2.821-1.359 0-2.379-.669-2.379-1.903zm.668-3.399c0 1.405.782 2.175 1.779 2.175.974 0 1.722-.77 1.779-2.119v-.203c-.057-1.337-.805-2.119-1.779-2.119-.997 0-1.779.872-1.779 2.266zm8.169-.046c0-1.71 1.087-2.888 2.549-2.888 1.393 0 2.379.963 2.379 2.628v.317h-4.124v.045c.034 1.281.691 2.119 1.779 2.119.895 0 1.404-.499 1.529-1.133h.77c-.147.997-1.065 1.801-2.299 1.801-1.666 0-2.583-1.133-2.583-2.889zm2.549-2.22c-.873 0-1.53.657-1.7 1.699h3.297c-.079-1.144-.68-1.699-1.597-1.699zm2.842 4.985 1.96-2.776-1.926-2.753h.906l1.484 2.164 1.473-2.164h.838l-1.937 2.742 1.971 2.787h-.917l-1.507-2.209-1.495 2.209zm6.607 1.076v1.416h-.77v-8.021h.736v.986h.034c.351-.771 1.088-1.11 1.949-1.11 1.359 0 2.413 1.064 2.413 2.843s-1.11 2.934-2.481 2.934c-.861 0-1.53-.339-1.881-1.11h-.034c.034.533.034 1.79.034 2.062zm3.557-3.886c0-1.405-.793-2.175-1.778-2.175-.974 0-1.745.782-1.779 2.119v.101c0 1.405.782 2.221 1.779 2.221s1.778-.872 1.778-2.266zm1.87.045c0-1.71 1.087-2.888 2.549-2.888 1.393 0 2.379.963 2.379 2.628v.317h-4.124v.045c.034 1.281.691 2.119 1.779 2.119.895 0 1.404-.499 1.529-1.133h.77c-.147.997-1.065 1.801-2.299 1.801-1.666 0-2.583-1.133-2.583-2.889zm2.549-2.22c-.873 0-1.53.657-1.7 1.699h3.297c-.079-1.144-.68-1.699-1.597-1.699zm3.745 4.985v-5.529h.736v.907h.034c.328-.692.997-1.031 1.813-1.031 1.087 0 2.005.6 2.005 2.265v3.388h-.771v-3.286c0-1.235-.566-1.699-1.393-1.699-.906 0-1.654.736-1.654 2.107v2.878zm5.864-1.609h.736c0 .816.68 1.133 1.439 1.133.94 0 1.439-.317 1.439-1.042 0-.533-.284-.748-.952-.873l-1.02-.181c-.725-.125-1.518-.419-1.518-1.427 0-1.043.895-1.654 2.073-1.654 1.122 0 2.062.566 2.062 1.71h-.736c0-.713-.555-1.11-1.326-1.11-.77 0-1.325.34-1.325.986 0 .509.329.725 1.008.849l1.02.182c.85.147 1.484.475 1.484 1.484 0 1.133-.918 1.676-2.187 1.676-1.325 0-2.197-.589-2.197-1.733zm5.388-1.156c0-1.71 1.088-2.888 2.549-2.888 1.394 0 2.379.963 2.379 2.628v.317h-4.123v.045c.034 1.281.691 2.119 1.778 2.119.895 0 1.405-.499 1.53-1.133h.77c-.147.997-1.065 1.801-2.3 1.801-1.665 0-2.583-1.133-2.583-2.889zm2.549-2.22c-.872 0-1.529.657-1.699 1.699h3.297c-.08-1.144-.68-1.699-1.598-1.699zm3.392 3.376h.736c0 .816.68 1.133 1.439 1.133.94 0 1.439-.317 1.439-1.042 0-.533-.284-.748-.952-.873l-1.02-.181c-.725-.125-1.518-.419-1.518-1.427 0-1.043.895-1.654 2.074-1.654 1.121 0 2.061.566 2.061 1.71h-.736c0-.713-.555-1.11-1.325-1.11-.771 0-1.326.34-1.326.986 0 .509.329.725 1.008.849l1.02.182c.85.147 1.484.475 1.484 1.484 0 1.133-.918 1.676-2.186 1.676-1.326 0-2.198-.589-2.198-1.733z"/><path d="m298.72 363.992h1.223c.057.895.657 1.382 1.518 1.382.895 0 1.473-.453 1.473-1.269 0-.714-.499-.974-1.303-1.212l-.963-.295c-.782-.237-1.767-.815-1.767-2.141 0-1.133.804-1.971 2.016-2.152v-1.224h1.088v1.224c1.11.181 1.915.94 2.005 2.084h-1.212c-.102-.815-.646-1.167-1.337-1.167-.702 0-1.303.352-1.303 1.111 0 .713.397.929 1.213 1.201l.963.294c1.223.374 1.869 1.02 1.869 2.164 0 1.269-.884 2.118-2.198 2.3v1.257h-1.088v-1.257c-1.325-.182-2.152-.997-2.197-2.3zm11.854 2.198h-5.28c.057-1.79.635-2.629 1.87-3.444l.883-.578c.759-.51 1.224-.827 1.224-1.643 0-.612-.374-1.246-1.303-1.246-.872 0-1.337.487-1.405 1.461h-1.155c.09-1.869 1.28-2.481 2.571-2.481 1.485 0 2.527.839 2.527 2.244 0 1.302-.759 1.869-1.666 2.447l-.872.577c-1.042.68-1.235 1.167-1.269 1.643h3.864zm1.998 0h-.589v-1.382h1.393v1.291l-.532 1.824h-.646zm2.091-2.357h1.201c0 1.043.634 1.496 1.495 1.496.907 0 1.496-.465 1.496-1.337 0-.861-.668-1.326-1.518-1.326h-.578v-1.008h.589c.714 0 1.28-.476 1.28-1.246 0-.759-.555-1.167-1.28-1.167-.714 0-1.28.431-1.28 1.303h-1.11c0-1.416.997-2.289 2.401-2.289 1.451 0 2.436.839 2.436 2.108 0 .849-.498 1.495-1.121 1.733.815.238 1.427.918 1.427 1.994 0 1.416-1.144 2.232-2.742 2.232-1.608 0-2.696-.771-2.696-2.493zm7.13-2.775-.532-.907 2.56-1.756h.861v6.775h1.813v1.02h-4.974v-1.02h1.938v-5.257zm8.49 5.268c-1.994 0-2.787-1.768-2.787-4.033 0-2.266.793-4.034 2.787-4.034s2.787 1.768 2.787 4.034c0 2.265-.793 4.033-2.787 4.033zm0-1.054c1.031 0 1.507-1.031 1.507-2.979 0-1.949-.476-2.98-1.507-2.98-1.043 0-1.507 1.031-1.507 2.98 0 1.948.476 2.979 1.507 2.979zm4.037.918v-1.382h1.393v1.382zm8.05 0h-5.279c.057-1.79.635-2.629 1.869-3.444l.884-.578c.759-.51 1.224-.827 1.224-1.643 0-.612-.374-1.246-1.303-1.246-.873 0-1.337.487-1.405 1.461h-1.156c.091-1.869 1.281-2.481 2.572-2.481 1.484 0 2.526.839 2.526 2.244 0 1.302-.759 1.869-1.665 2.447l-.872.577c-1.043.68-1.235 1.167-1.269 1.643h3.863zm.911-1.824v-.827l3.716-5.144h1.019v4.951h1.065v1.02h-1.065v1.824h-1.223v-1.824zm1.223-1.02h2.289v-3.115z"/></g></g><path d="m118.751 386.764h242.867v45.316c0 6.257-5.072 11.329-11.329 11.329h-220.208c-6.257 0-11.33-5.072-11.33-11.329z" fill="#fff"/><rect fill="#000" fill-opacity=".05" height="33.9872" rx="16.9936" width="106.918" x="130.081" y="398.093"/><path d="m154.464 418.59 2.9-7.795h1.507l2.9 7.795h-1.348l-.668-1.892h-3.32l-.679 1.892zm2.345-2.957h2.572l-1.258-3.569h-.045zm5.64.238c0-1.835 1.144-2.946 2.56-2.946.793 0 1.405.295 1.745.963h.045c-.057-.725-.057-1.484-.057-1.858v-1.733h1.224v8.293h-1.167v-.827h-.045c-.34.668-1.02.963-1.836.963-1.393 0-2.469-1.02-2.469-2.855zm1.268 0c0 1.212.635 1.869 1.507 1.869.861 0 1.518-.702 1.518-1.914 0-1.213-.657-1.915-1.518-1.915-.872 0-1.507.748-1.507 1.96zm5.525 0c0-1.835 1.144-2.946 2.56-2.946.793 0 1.405.295 1.745.963h.045c-.057-.725-.057-1.484-.057-1.858v-1.733h1.224v8.293h-1.167v-.827h-.045c-.34.668-1.02.963-1.836.963-1.393 0-2.469-1.02-2.469-2.855zm1.268 0c0 1.212.635 1.869 1.507 1.869.861 0 1.518-.702 1.518-1.914 0-1.213-.657-1.915-1.518-1.915-.872 0-1.507.748-1.507 1.96zm8.399 2.719v-5.529h1.178v.805h.046c.317-.635.906-.941 1.676-.941.771 0 1.439.295 1.756 1.099.397-.804 1.043-1.099 1.858-1.099 1.088 0 1.96.589 1.96 2.243v3.422h-1.223v-3.274c0-1.031-.374-1.394-1.065-1.394-.737 0-1.337.657-1.337 1.756v2.912h-1.224v-3.274c0-1.031-.396-1.394-1.065-1.394-.736 0-1.336.646-1.336 1.768v2.9zm9.661-2.764c0-1.779 1.189-2.901 2.82-2.901 1.723 0 2.821 1.088 2.821 2.901 0 1.778-1.178 2.9-2.821 2.9-1.722 0-2.82-1.088-2.82-2.9zm1.268 0c0 1.166.612 1.914 1.552 1.914.941 0 1.553-.748 1.553-1.914 0-1.213-.612-1.915-1.553-1.915-.94 0-1.552.748-1.552 1.915zm5.655 2.764v-5.529h1.179v.805h.045c.317-.623.883-.941 1.711-.941 1.098 0 2.073.589 2.073 2.311v3.354h-1.224v-3.195c0-1.099-.453-1.473-1.178-1.473-.782 0-1.382.657-1.382 1.779v2.889zm6.187-2.753c0-1.756 1.155-2.912 2.741-2.912 1.541 0 2.583.986 2.583 2.697v.407h-4.067c.057 1.088.635 1.734 1.53 1.734.781 0 1.166-.419 1.291-.873h1.19c-.148.997-1.043 1.836-2.493 1.836-1.778 0-2.775-1.065-2.775-2.889zm2.741-1.949c-.725 0-1.257.499-1.427 1.326h2.764c-.091-.907-.555-1.326-1.337-1.326zm4.91 4.702-2.062-5.529h1.337l1.438 4.26h.046l1.438-4.26h1.235l-2.277 6.299c-.328.895-.918 1.813-2.118 1.813h-.612v-1.008h.362c.635 0 1.077-.363 1.337-1.077l.17-.498z" fill="#151418"/><rect fill="#000" fill-opacity=".05" height="33.9872" rx="16.9936" width="106.918" x="242.663" y="398.093"/><path d="m264.251 418.59v-7.795h1.654l2.617 6.061h.034l2.583-6.061h1.631v7.795h-1.28l.102-5.937h-.046l-2.537 5.937h-.986l-2.538-5.835h-.045l.091 5.835zm9.923-2.764c0-1.779 1.189-2.901 2.821-2.901 1.722 0 2.821 1.088 2.821 2.901 0 1.778-1.179 2.9-2.821 2.9-1.722 0-2.821-1.088-2.821-2.9zm1.269 0c0 1.166.611 1.914 1.552 1.914.94 0 1.552-.748 1.552-1.914 0-1.213-.612-1.915-1.552-1.915-.941 0-1.552.748-1.552 1.915zm6.835 2.764-2.062-5.529h1.337l1.439 4.26h.045l1.439-4.26h1.235l-2.006 5.529zm3.811-2.753c0-1.756 1.155-2.912 2.741-2.912 1.541 0 2.583.986 2.583 2.697v.407h-4.067c.057 1.088.635 1.734 1.53 1.734.781 0 1.167-.419 1.291-.873h1.19c-.147.997-1.042 1.836-2.493 1.836-1.778 0-2.775-1.065-2.775-2.889zm2.741-1.949c-.725 0-1.257.499-1.427 1.326h2.764c-.09-.907-.555-1.326-1.337-1.326zm6.296 4.702v-5.529h1.178v.805h.045c.318-.635.907-.941 1.677-.941.771 0 1.439.295 1.756 1.099.397-.804 1.042-1.099 1.858-1.099 1.088 0 1.96.589 1.96 2.243v3.422h-1.223v-3.274c0-1.031-.374-1.394-1.065-1.394-.737 0-1.337.657-1.337 1.756v2.912h-1.224v-3.274c0-1.031-.396-1.394-1.065-1.394-.736 0-1.337.646-1.337 1.768v2.9zm9.66-2.764c0-1.779 1.19-2.901 2.821-2.901 1.722 0 2.821 1.088 2.821 2.901 0 1.778-1.178 2.9-2.821 2.9-1.722 0-2.821-1.088-2.821-2.9zm1.269 0c0 1.166.612 1.914 1.552 1.914.941 0 1.552-.748 1.552-1.914 0-1.213-.611-1.915-1.552-1.915-.94 0-1.552.748-1.552 1.915zm5.655 2.764v-5.529h1.178v.805h.046c.317-.623.883-.941 1.71-.941 1.099 0 2.074.589 2.074 2.311v3.354h-1.224v-3.195c0-1.099-.453-1.473-1.178-1.473-.782 0-1.382.657-1.382 1.779v2.889zm6.186-2.753c0-1.756 1.156-2.912 2.742-2.912 1.541 0 2.583.986 2.583 2.697v.407h-4.067c.057 1.088.634 1.734 1.529 1.734.782 0 1.167-.419 1.292-.873h1.189c-.147.997-1.042 1.836-2.492 1.836-1.779 0-2.776-1.065-2.776-2.889zm2.742-1.949c-.725 0-1.257.499-1.427 1.326h2.764c-.091-.907-.555-1.326-1.337-1.326zm4.909 4.702-2.061-5.529h1.336l1.439 4.26h.046l1.438-4.26h1.235l-2.277 6.299c-.329.895-.918 1.813-2.118 1.813h-.612v-1.008h.362c.635 0 1.077-.363 1.337-1.077l.17-.498z" fill="#151418"/></g></g><path d="m107.553 427.5h265.264v28h-265.264z" fill="url(#f)" opacity=".2"/></g></svg>