<svg width="180" height="160" viewBox="0 0 180 160" fill="none" xmlns="http://www.w3.org/2000/svg">
<mask id="mask0_1959_179823" style="mask-type:alpha" maskUnits="userSpaceOnUse" x="54" y="130" width="72" height="13">
<rect x="54" y="130" width="72" height="13" fill="#D9D9D9"/>
</mask>
<g mask="url(#mask0_1959_179823)">
<circle cx="90.0901" cy="111.909" r="30.9681" fill="#EFF2F0"/>
</g>
<path d="M49 130L131.75 130" stroke="#343239" stroke-width="2"/>
<path d="M143.468 24.7861C143.468 21.7976 141.045 19.375 138.056 19.375H40.7295L42.4795 24.5531C42.4795 28.7795 42.1045 27.625 40.7295 30.1973H138.056C141.045 30.1973 143.468 27.7746 143.468 24.7861Z" fill="#EFF2F0"/>
<mask id="path-5-inside-1_1959_179823" fill="white">
<path d="M35.1448 93.1105C35.1448 97.0432 38.3328 100.231 42.2654 100.231L132.524 100.231C136.457 100.231 139.645 97.0432 139.645 93.1105L139.645 30.5909C139.645 29.8428 139.038 29.2363 138.29 29.2363L36.4994 29.2363C35.7512 29.2363 35.1448 29.8428 35.1448 30.5909L35.1448 93.1105Z"/>
</mask>
<path d="M36.4994 29.2363L36.4994 27.2363L36.4994 29.2363ZM35.1448 30.5909L37.1448 30.5909L35.1448 30.5909ZM139.645 30.5909L137.645 30.5909L139.645 30.5909ZM138.29 29.2363V31.2363V29.2363ZM132.524 100.231V98.2312V100.231ZM42.2654 100.231L42.2654 102.231L42.2654 100.231ZM35.1448 93.1105H33.1448H35.1448ZM42.2654 102.231L132.524 102.231V98.2312L42.2654 98.2312L42.2654 102.231ZM141.645 93.1105L141.645 30.5909L137.645 30.5909L137.645 93.1105H141.645ZM138.29 27.2363L36.4994 27.2363L36.4994 31.2363L138.29 31.2363V27.2363ZM33.1448 30.5909L33.1448 93.1105H37.1448L37.1448 30.5909L33.1448 30.5909ZM36.4994 27.2363C34.6467 27.2363 33.1448 28.7382 33.1448 30.5909L37.1448 30.5909C37.1448 30.9474 36.8558 31.2363 36.4994 31.2363L36.4994 27.2363ZM141.645 30.5909C141.645 28.7382 140.143 27.2363 138.29 27.2363V31.2363C137.934 31.2363 137.645 30.9474 137.645 30.5909L141.645 30.5909ZM132.524 102.231C137.561 102.231 141.645 98.1477 141.645 93.1105H137.645C137.645 95.9386 135.352 98.2312 132.524 98.2312V102.231ZM42.2654 98.2312C39.4374 98.2312 37.1448 95.9386 37.1448 93.1105H33.1448C33.1448 98.1478 37.2282 102.231 42.2654 102.231L42.2654 98.2312Z" fill="#343239" mask="url(#path-5-inside-1_1959_179823)"/>
<path d="M90 99.5L90 130" stroke="#343239" stroke-width="2"/>
<path d="M90.6216 107.82C90.9376 107.367 90.9376 106.633 90.6216 106.18C90.3055 105.727 89.7931 105.727 89.4771 106.18L90.6216 107.82ZM89.4771 106.18L73.4278 129.18L74.5723 130.82L90.6216 107.82L89.4771 106.18Z" fill="#343239"/>
<path d="M89.4771 107.82C89.161 107.367 89.161 106.633 89.4771 106.18C89.7931 105.727 90.3055 105.727 90.6216 106.18L89.4771 107.82ZM90.6216 106.18L106.671 129.18L105.526 130.82L89.4771 107.82L90.6216 106.18Z" fill="#343239"/>
<path d="M36.7382 80.6384H24.6911C24.0642 80.6384 23.6338 80.0077 23.8622 79.424L28.3724 67.8979C30.3626 62.8119 31.156 57.3361 30.6912 51.8943L28.7275 28.9023V26.0652C28.7275 22.2862 31.791 19.2227 35.57 19.2227H37.0164C39.9966 19.2227 42.4125 21.6386 42.4125 24.6188V26.8996C42.4125 28.6202 41.0177 30.0149 39.2972 30.0149V30.0149C37.5767 30.0149 36.1819 28.6201 36.1819 26.8996V23.0055V36.5793" stroke="#343239" stroke-width="2"/>
<path d="M136.858 30.25H137.589C140.627 30.25 143.089 27.7876 143.089 24.75V24.75C143.089 21.7124 140.627 19.25 137.589 19.25H35.5002" stroke="#343239" stroke-width="2"/>
<path d="M76.2498 43.7207H49.5067" stroke="#343239" stroke-width="2"/>
<path d="M62.2498 48.7207H49.5067" stroke="#343239" stroke-width="2"/>
<path d="M59.7067 71.4548L57.1384 77.1164C56.4552 78.6225 54.2979 78.5692 53.6899 77.0311C53.0466 75.4036 50.7214 75.4684 50.1696 77.1291L46.7344 87.4693C46.3018 88.7712 47.2786 90.1121 48.6504 90.0997L126.955 89.3929C128.053 89.383 128.937 88.4905 128.937 87.393L128.937 48.0614C128.937 46.0083 126.214 45.288 125.199 47.0725L114.423 66.0173C113.605 67.456 111.493 67.3347 110.844 65.8118L106.65 55.9587C105.965 54.3497 103.69 54.3326 102.981 55.9312L99.4871 63.8102C98.8089 65.3394 96.6647 65.4098 95.8877 63.9283L94.2859 60.8746C93.4702 59.3194 91.1897 59.4953 90.6221 61.1571L87.9139 69.0866C87.3509 70.7348 85.0965 70.9259 84.2643 69.3959L80.8068 63.0395C80.0133 61.5806 77.8903 61.6685 77.22 63.1879L69.8514 79.892C69.1137 81.5642 66.7045 81.4524 66.1248 79.7192L63.4247 71.6467C62.8482 69.9231 60.4575 69.7997 59.7067 71.4548Z" fill="#E0E7DB" stroke="#343239" stroke-width="2"/>
</svg>
