<svg width="180" height="160" viewBox="0 0 180 160" fill="none" xmlns="http://www.w3.org/2000/svg">
<rect x="84.7346" y="15" width="65.0153" height="119" rx="7" fill="white" stroke="#343239" stroke-width="2"/>
<path d="M116.5 42.8887H139.75" stroke="#343239" stroke-width="2"/>
<path d="M116.5 48.7051H132.053" stroke="#343239" stroke-width="2"/>
<path d="M116.5 65.8887H139.75" stroke="#343239" stroke-width="2"/>
<path d="M116.5 71.7051H132.053" stroke="#343239" stroke-width="2"/>
<path d="M116.5 88.8887H139.75" stroke="#343239" stroke-width="2"/>
<path d="M116.5 94.7051H132.053" stroke="#343239" stroke-width="2"/>
<path d="M116.5 111.889H139.75" stroke="#343239" stroke-width="2"/>
<path d="M116.5 117.705H132.053" stroke="#343239" stroke-width="2"/>
<g clip-path="url(#clip0_1959_179339)">
<path d="M108.997 49.9909V50.7409C109.411 50.7409 109.747 50.4051 109.747 49.9909H108.997ZM95.0156 49.9909H94.2656C94.2656 50.4051 94.6014 50.7409 95.0156 50.7409V49.9909ZM96.8 44.3368V45.0868H97.4132L97.535 44.4858L96.8 44.3368ZM106.451 40.5779L107.186 40.4289L106.451 40.5779ZM98.8636 40.2637H105.149V38.7637H98.8636V40.2637ZM105.716 40.7269L106.478 44.4858L107.948 44.1878L107.186 40.4289L105.716 40.7269ZM108.247 46.1212V49.9909H109.747V46.1212H108.247ZM108.997 49.2409H108.02V50.7409H108.997V49.2409ZM107.27 49.9909V52.0985H108.77V49.9909H107.27ZM107.355 52.0126H105.726V53.5126H107.355V52.0126ZM105.812 52.0985V49.9909H104.312V52.0985H105.812ZM105.062 49.2409H98.951V50.7409H105.062V49.2409ZM98.201 49.9909V52.0985H99.701V49.9909H98.201ZM98.2869 52.0126H96.6574V53.5126H98.2869V52.0126ZM96.7434 52.0985V49.9909H95.2434V52.0985H96.7434ZM95.9934 49.2409H95.0156V50.7409H95.9934V49.2409ZM95.7656 49.9909V46.1212H94.2656V49.9909H95.7656ZM97.535 44.4858L98.297 40.7269L96.8269 40.4289L96.0649 44.1878L97.535 44.4858ZM107.213 43.5868H96.8V45.0868H107.213V43.5868ZM108.02 49.2409H105.062V50.7409H108.02V49.2409ZM98.951 49.2409H95.9934V50.7409H98.951V49.2409ZM98.201 52.0985C98.201 52.051 98.2395 52.0126 98.2869 52.0126V53.5126C99.0679 53.5126 99.701 52.8795 99.701 52.0985H98.201ZM105.726 52.0126C105.773 52.0126 105.812 52.051 105.812 52.0985H104.312C104.312 52.8795 104.945 53.5126 105.726 53.5126V52.0126ZM95.7656 46.1212C95.7656 45.5499 96.2287 45.0868 96.8 45.0868V43.5868C95.4003 43.5868 94.2656 44.7215 94.2656 46.1212H95.7656ZM107.213 45.0868C107.784 45.0868 108.247 45.5499 108.247 46.1212H109.747C109.747 44.7215 108.613 43.5868 107.213 43.5868V45.0868ZM107.27 52.0985C107.27 52.051 107.308 52.0126 107.355 52.0126V53.5126C108.136 53.5126 108.77 52.8795 108.77 52.0985H107.27ZM105.149 40.2637C105.424 40.2637 105.661 40.4574 105.716 40.7269L107.186 40.4289C106.99 39.4601 106.138 38.7637 105.149 38.7637V40.2637ZM96.6574 52.0126C96.7049 52.0126 96.7434 52.051 96.7434 52.0985H95.2434C95.2434 52.8795 95.8765 53.5126 96.6574 53.5126V52.0126ZM98.8636 38.7637C97.8751 38.7637 97.0233 39.4601 96.8269 40.4289L98.297 40.7269C98.3517 40.4574 98.5886 40.2637 98.8636 40.2637V38.7637Z" fill="#343239"/>
<circle cx="105.984" cy="47.2344" r="0.664062" fill="#343239"/>
<circle cx="98.0156" cy="47.2344" r="0.664062" fill="#343239"/>
<path d="M108.997 49.9909V50.7409C109.411 50.7409 109.747 50.4051 109.747 49.9909H108.997ZM95.0156 49.9909H94.2656C94.2656 50.4051 94.6014 50.7409 95.0156 50.7409V49.9909ZM96.8 44.3368V45.0868H97.4132L97.535 44.4858L96.8 44.3368ZM106.451 40.5779L107.186 40.4289L106.451 40.5779ZM98.8636 40.2637H105.149V38.7637H98.8636V40.2637ZM105.716 40.7269L106.478 44.4858L107.948 44.1878L107.186 40.4289L105.716 40.7269ZM108.247 46.1212V49.9909H109.747V46.1212H108.247ZM108.997 49.2409H108.02V50.7409H108.997V49.2409ZM107.27 49.9909V52.0985H108.77V49.9909H107.27ZM107.355 52.0126H105.726V53.5126H107.355V52.0126ZM105.812 52.0985V49.9909H104.312V52.0985H105.812ZM105.062 49.2409H98.951V50.7409H105.062V49.2409ZM98.201 49.9909V52.0985H99.701V49.9909H98.201ZM98.2869 52.0126H96.6574V53.5126H98.2869V52.0126ZM96.7434 52.0985V49.9909H95.2434V52.0985H96.7434ZM95.9934 49.2409H95.0156V50.7409H95.9934V49.2409ZM95.7656 49.9909V46.1212H94.2656V49.9909H95.7656ZM97.535 44.4858L98.297 40.7269L96.8269 40.4289L96.0649 44.1878L97.535 44.4858ZM107.213 43.5868H96.8V45.0868H107.213V43.5868ZM108.02 49.2409H105.062V50.7409H108.02V49.2409ZM98.951 49.2409H95.9934V50.7409H98.951V49.2409ZM98.201 52.0985C98.201 52.051 98.2395 52.0126 98.2869 52.0126V53.5126C99.0679 53.5126 99.701 52.8795 99.701 52.0985H98.201ZM105.726 52.0126C105.773 52.0126 105.812 52.051 105.812 52.0985H104.312C104.312 52.8795 104.945 53.5126 105.726 53.5126V52.0126ZM95.7656 46.1212C95.7656 45.5499 96.2287 45.0868 96.8 45.0868V43.5868C95.4003 43.5868 94.2656 44.7215 94.2656 46.1212H95.7656ZM107.213 45.0868C107.784 45.0868 108.247 45.5499 108.247 46.1212H109.747C109.747 44.7215 108.613 43.5868 107.213 43.5868V45.0868ZM107.27 52.0985C107.27 52.051 107.308 52.0126 107.355 52.0126V53.5126C108.136 53.5126 108.77 52.8795 108.77 52.0985H107.27ZM105.149 40.2637C105.424 40.2637 105.661 40.4574 105.716 40.7269L107.186 40.4289C106.99 39.4601 106.138 38.7637 105.149 38.7637V40.2637ZM96.6574 52.0126C96.7049 52.0126 96.7434 52.051 96.7434 52.0985H95.2434C95.2434 52.8795 95.8765 53.5126 96.6574 53.5126V52.0126ZM98.8636 38.7637C97.8751 38.7637 97.0233 39.4601 96.8269 40.4289L98.297 40.7269C98.3517 40.4574 98.5886 40.2637 98.8636 40.2637V38.7637Z" fill="#343239"/>
<circle cx="105.984" cy="47.2344" r="0.664062" fill="#343239"/>
<circle cx="98.0156" cy="47.2344" r="0.664062" fill="#343239"/>
</g>
<g clip-path="url(#clip1_1959_179339)">
<path d="M98.7688 76.161V68.1119M98.7688 68.1119V68.1119C99.9458 68.1119 100.9 67.1577 100.9 65.9806V61.4043M98.7688 68.1119V61.4043M98.7688 68.1119V68.1119C97.571 68.1119 96.6 67.1409 96.6 65.9431V61.4043" stroke="#343239" stroke-width="1.52656"/>
<path d="M106.771 76.1602V70.2975M106.771 70.2975V62.0742H106.144C105.008 62.0742 104.088 62.9946 104.088 64.13V67.6145C104.088 69.0963 105.289 70.2975 106.771 70.2975V70.2975Z" stroke="#343239" stroke-width="1.52656"/>
<path d="M98.7688 76.161V68.1119M98.7688 68.1119V68.1119C99.9458 68.1119 100.9 67.1577 100.9 65.9806V61.4043M98.7688 68.1119V61.4043M98.7688 68.1119V68.1119C97.571 68.1119 96.6 67.1409 96.6 65.9431V61.4043" stroke="#343239" stroke-width="1.52656"/>
<path d="M106.771 76.1602V70.2975M106.771 70.2975V62.0742H106.144C105.008 62.0742 104.088 62.9946 104.088 64.13V67.6145C104.088 69.0963 105.289 70.2975 106.771 70.2975V70.2975Z" stroke="#343239" stroke-width="1.52656"/>
</g>
<path d="M94.75 86.5156H104.047V95.6406H94.75V86.5156Z" stroke="#343239" stroke-width="1.5"/>
<path d="M104.078 87.8438H106.931L109.25 91.3061V95.6406H104.078V87.8438Z" stroke="#343239" stroke-width="1.5"/>
<circle cx="97.9844" cy="96.3906" r="1.90625" fill="white" stroke="#343239" stroke-width="1.5"/>
<path d="M109.312 91.7422H94.6641" stroke="#343239" stroke-width="1.5"/>
<circle cx="105.953" cy="96.3906" r="1.90625" fill="white" stroke="#343239" stroke-width="1.5"/>
<path fill-rule="evenodd" clip-rule="evenodd" d="M94 85.7656H104.797V96.3906H94V85.7656ZM95.5 94.8906H103.297V87.2656H95.5V94.8906Z" fill="#343239"/>
<path fill-rule="evenodd" clip-rule="evenodd" d="M103.328 87.0938H107.331L110 91.0781V96.3906H103.328V87.0938ZM104.828 94.8906H108.5V91.5341L106.531 88.5938H104.828V94.8906Z" fill="#343239"/>
<path d="M100.641 96.3906C100.641 97.8576 99.4514 99.0469 97.9844 99.0469C96.5174 99.0469 95.3281 97.8576 95.3281 96.3906C95.3281 94.9236 96.5174 93.7344 97.9844 93.7344C99.4514 93.7344 100.641 94.9236 100.641 96.3906Z" fill="white"/>
<path fill-rule="evenodd" clip-rule="evenodd" d="M97.9844 97.5469C98.623 97.5469 99.1406 97.0292 99.1406 96.3906C99.1406 95.752 98.623 95.2344 97.9844 95.2344C97.3458 95.2344 96.8281 95.752 96.8281 96.3906C96.8281 97.0292 97.3458 97.5469 97.9844 97.5469ZM97.9844 99.0469C99.4514 99.0469 100.641 97.8576 100.641 96.3906C100.641 94.9236 99.4514 93.7344 97.9844 93.7344C96.5174 93.7344 95.3281 94.9236 95.3281 96.3906C95.3281 97.8576 96.5174 99.0469 97.9844 99.0469Z" fill="#343239"/>
<path fill-rule="evenodd" clip-rule="evenodd" d="M94.6641 90.9922H109.312V92.4922H94.6641V90.9922Z" fill="#343239"/>
<path d="M108.609 96.3906C108.609 97.8576 107.42 99.0469 105.953 99.0469C104.486 99.0469 103.297 97.8576 103.297 96.3906C103.297 94.9236 104.486 93.7344 105.953 93.7344C107.42 93.7344 108.609 94.9236 108.609 96.3906Z" fill="white"/>
<path fill-rule="evenodd" clip-rule="evenodd" d="M105.953 97.5469C106.592 97.5469 107.109 97.0292 107.109 96.3906C107.109 95.752 106.592 95.2344 105.953 95.2344C105.315 95.2344 104.797 95.752 104.797 96.3906C104.797 97.0292 105.315 97.5469 105.953 97.5469ZM105.953 99.0469C107.42 99.0469 108.609 97.8576 108.609 96.3906C108.609 94.9236 107.42 93.7344 105.953 93.7344C104.486 93.7344 103.297 94.9236 103.297 96.3906C103.297 97.8576 104.486 99.0469 105.953 99.0469Z" fill="#343239"/>
<g clip-path="url(#clip2_1959_179339)">
<path d="M96.7174 122.016H107.289" stroke="#343239" stroke-width="1.5"/>
<path d="M97.3782 111.445H106.628" stroke="#343239" stroke-width="1.5"/>
<path d="M102.003 122.017V108.803" stroke="#343239" stroke-width="1.5" stroke-linecap="round"/>
<path d="M97.3781 118.052C98.4728 118.052 99.3603 117.066 99.3603 115.85L97.3781 111.445L95.396 115.85C95.396 117.066 96.2834 118.052 97.3781 118.052Z" stroke="#343239" stroke-width="1.5" stroke-linejoin="round"/>
<path d="M106.628 118.052C107.723 118.052 108.61 117.066 108.61 115.85L106.628 111.445L104.646 115.85C104.646 117.066 105.533 118.052 106.628 118.052Z" stroke="#343239" stroke-width="1.5" stroke-linejoin="round"/>
<circle cx="102.003" cy="109.873" r="1.23214" fill="white" stroke="#343239" stroke-width="1.5"/>
</g>
<path d="M102.689 21.499C102.689 20.4888 103.508 19.6699 104.518 19.6699L129.967 19.6699C130.977 19.6699 131.796 20.4888 131.796 21.499C131.796 22.5092 130.977 23.3282 129.967 23.3282L104.518 23.3282C103.508 23.3282 102.689 22.5092 102.689 21.499Z" fill="#343239"/>
<path d="M24.5099 134C23.8974 134 23.4288 133.454 23.5214 132.849L26.8982 110.776C26.9794 110.245 27.4358 109.854 27.9725 109.854L77.3546 109.854C77.8914 109.854 78.3478 110.245 78.429 110.776L81.8057 132.849C81.8984 133.454 81.4298 134 80.8172 134L24.5099 134Z" fill="#EFF2F0" stroke="#343239" stroke-width="2" stroke-linejoin="round"/>
<rect x="1.22863" y="0.706059" width="64.3137" height="41.7388" rx="4.14838" transform="matrix(0.965926 -0.258819 0.2627 0.964878 24.7162 70.0069)" fill="white" stroke="#343239" stroke-width="2"/>
<path d="M41.0852 95.7852L62.4623 90.0572" stroke="#343239" stroke-width="2"/>
<path d="M42.3323 100.367L56.5837 96.5485" stroke="#343239" stroke-width="2"/>
<rect x="-0.39446" y="0.686407" width="10.2347" height="12.8384" rx="2.21366" transform="matrix(-0.2627 -0.964878 0.965926 -0.258819 38.3903 90.6378)" fill="#A69D79" stroke="#343239" stroke-width="1.12186"/>
<path d="M40.758 79.7245L43.494 89.7734" stroke="#343239" stroke-width="1.12186"/>
<path d="M47.0958 88.1367L45.3858 81.8562L49.1583 80.8453" stroke="#343239" stroke-width="1.12186"/>
<path d="M47.0958 88.1367L46.4118 85.6245L50.1842 84.6137" stroke="#343239" stroke-width="1.12186"/>
<path d="M38.8673 87.6484L42.6398 86.6376" stroke="#343239" stroke-width="1.12186"/>
<path d="M37.8405 83.8789L41.6129 82.8681" stroke="#343239" stroke-width="1.12186"/>
<mask id="mask0_1959_179339" style="mask-type:alpha" maskUnits="userSpaceOnUse" x="49" y="134" width="82" height="22">
<rect x="49.1276" y="134.051" width="81.2277" height="21.3223" fill="#D9D9D9"/>
</mask>
<g mask="url(#mask0_1959_179339)">
<circle cx="89.2334" cy="110.968" r="30.9681" fill="#EFF2F0"/>
</g>
<path fill-rule="evenodd" clip-rule="evenodd" d="M126.001 135H54.0007V133H126.001V135Z" fill="#343239"/>
<path d="M53.8726 29.0172C53.7907 28.7316 53.5298 28.5353 53.233 28.5353C52.9361 28.5353 52.6752 28.7316 52.5934 29.0172C51.7461 31.9656 51.1751 32.5366 48.2266 33.3839C47.9418 33.4658 47.7448 33.7267 47.7448 34.0235C47.7448 34.3203 47.9411 34.5812 48.2266 34.6631C51.1751 35.5104 51.7461 36.0821 52.5934 39.0299C52.6752 39.3154 52.9361 39.5117 53.233 39.5117C53.5298 39.5117 53.7907 39.3154 53.8726 39.0299C54.7198 36.0821 55.2909 35.511 58.2393 34.6631C58.5249 34.5812 58.7212 34.3197 58.7212 34.0235C58.7212 33.7267 58.5249 33.4658 58.2393 33.3839C55.2916 32.5366 54.7198 31.9656 53.8726 29.0172Z" fill="#A69D79"/>
<path d="M68.8473 40.5201C68.8025 40.3639 68.6598 40.2565 68.4974 40.2565C68.335 40.2565 68.1922 40.3639 68.1475 40.5201C67.6839 42.1332 67.3715 42.4456 65.7584 42.9092C65.6026 42.954 65.4948 43.0967 65.4948 43.2591C65.4948 43.4215 65.6022 43.5642 65.7584 43.609C67.3715 44.0726 67.6839 44.3854 68.1475 45.9981C68.1922 46.1543 68.335 46.2617 68.4974 46.2617C68.6598 46.2617 68.8025 46.1543 68.8473 45.9981C69.3109 44.3854 69.6233 44.0729 71.2364 43.609C71.3926 43.5642 71.5 43.4211 71.5 43.2591C71.5 43.0967 71.3926 42.954 71.2364 42.9092C69.6236 42.4456 69.3109 42.1332 68.8473 40.5201Z" fill="#A69D79"/>
<path d="M78.5 110.5L24.25 133.324" stroke="#343239" stroke-width="2"/>
<defs>
<clipPath id="clip0_1959_179339">
<rect width="16" height="16" fill="white" transform="translate(94 37.7969)"/>
</clipPath>
<clipPath id="clip1_1959_179339">
<rect width="16" height="16" fill="white" transform="translate(94 60.7969)"/>
</clipPath>
<clipPath id="clip2_1959_179339">
<rect width="16" height="16" fill="white" transform="translate(94 106.797)"/>
</clipPath>
</defs>
</svg>
