<svg width="180" height="160" viewBox="0 0 180 160" fill="none" xmlns="http://www.w3.org/2000/svg">
<mask id="mask0_1942_182163" style="mask-type:alpha" maskUnits="userSpaceOnUse" x="56" y="134" width="82" height="22">
<rect x="56" y="134.051" width="81.2277" height="21.3223" fill="#D9D9D9"/>
</mask>
<g mask="url(#mask0_1942_182163)">
<circle cx="96.968" cy="116.283" r="30.9681" fill="black" fill-opacity="0.05"/>
</g>
<path d="M54 133.873H126" stroke="#343239" stroke-width="2"/>
<path d="M43.811 69.5731L70.4333 48.707L97.0555 69.5731H43.811Z" fill="#F2F0EB" stroke="#343239" stroke-width="2" stroke-linecap="round" stroke-linejoin="round"/>
<rect x="48.8477" y="97.7812" width="43.1712" height="5.75616" fill="#F2F0EB" stroke="#343239" stroke-width="2" stroke-linecap="round" stroke-linejoin="round"/>
<rect x="44.5308" y="103.537" width="51.8055" height="5.75616" fill="#F2F0EB" stroke="#343239" stroke-width="2" stroke-linecap="round" stroke-linejoin="round"/>
<rect x="67.5552" y="69.5723" width="5.75616" height="27.9285" fill="#F2F0EB" stroke="#343239" stroke-width="2" stroke-linecap="round" stroke-linejoin="round"/>
<rect x="81.9458" y="69.5723" width="5.75616" height="27.9285" fill="#F2F0EB" stroke="#343239" stroke-width="2" stroke-linecap="round" stroke-linejoin="round"/>
<rect x="53.165" y="69.5723" width="5.75616" height="27.9285" fill="#F2F0EB" stroke="#343239" stroke-width="2" stroke-linecap="round" stroke-linejoin="round"/>
<circle cx="108" cy="65" r="15" fill="#F2F0EB" stroke="#343239" stroke-width="2"/>
<rect x="87.7349" y="30" width="56.7372" height="104.053" rx="7" fill="white" stroke="#343239" stroke-width="2"/>
<path d="M103.348 35.6325C103.348 34.7471 104.065 34.0293 104.951 34.0293L127.256 34.0293C128.142 34.0293 128.859 34.7471 128.859 35.6325C128.859 36.5179 128.142 37.2356 127.256 37.2356L104.951 37.2356C104.065 37.2356 103.348 36.5179 103.348 35.6325Z" fill="#343239"/>
<path fill-rule="evenodd" clip-rule="evenodd" d="M120.266 71.3506L125.973 77.0577L120.266 82.7648L118.852 81.3506L122.145 78.0577H104.559V76.0577H122.145L118.852 72.7648L120.266 71.3506Z" fill="#343239"/>
<path fill-rule="evenodd" clip-rule="evenodd" d="M106.973 88.0577L110.266 91.3506L108.852 92.7648L103.145 87.0577L108.852 81.3506L110.266 82.7648L106.973 86.0577H124.559V88.0577H106.973Z" fill="#343239"/>
<path d="M49.8726 35.7672C49.7907 35.4816 49.5298 35.2853 49.233 35.2853C48.9361 35.2853 48.6752 35.4816 48.5934 35.7672C47.7461 38.7156 47.1751 39.2866 44.2266 40.1339C43.9418 40.2158 43.7448 40.4767 43.7448 40.7735C43.7448 41.0703 43.9411 41.3312 44.2266 41.4131C47.1751 42.2604 47.7461 42.8321 48.5934 45.7799C48.6752 46.0654 48.9361 46.2617 49.233 46.2617C49.5298 46.2617 49.7907 46.0654 49.8726 45.7799C50.7198 42.8321 51.2909 42.261 54.2393 41.4131C54.5249 41.3312 54.7212 41.0697 54.7212 40.7735C54.7212 40.4767 54.5249 40.2158 54.2393 40.1339C51.2916 39.2866 50.7198 38.7156 49.8726 35.7672Z" fill="#A69D79"/>
</svg>
