<svg width="481" height="456" viewBox="0 0 481 456" fill="none" xmlns="http://www.w3.org/2000/svg">
<path d="M455.185 254.75C455.185 144.293 365.642 54.75 255.185 54.75H225.185C114.728 54.75 25.1846 144.293 25.1846 254.75V431.75C25.1846 445.005 35.9297 455.75 49.1846 455.75H431.185C444.439 455.75 455.185 445.005 455.185 431.75V254.75Z" fill="#6E7B62"/>
<mask id="mask0_3931_32050" style="mask-type:alpha" maskUnits="userSpaceOnUse" x="0" y="0" width="481" height="456">
<rect x="0.18457" y="0.25" width="480" height="455" fill="#D9D9D9"/>
</mask>
<g mask="url(#mask0_3931_32050)">
<g filter="url(#filter0_ddddddd_3931_32050)">
<g clip-path="url(#clip0_3931_32050)">
<rect x="107.173" y="16.25" width="265.52" height="548.692" rx="32" fill="#EFF2F0"/>
<path fill-rule="evenodd" clip-rule="evenodd" d="M128.475 50.9858L129.477 51.9878L125.019 56.4462H136.77V57.8631H125.019L129.477 62.3215L128.475 63.3234L122.307 57.1546L128.475 50.9858Z" fill="#151418"/>
<path fill-rule="evenodd" clip-rule="evenodd" d="M349.314 49.4626C348.587 49.4626 347.998 50.0516 347.998 50.7783V51.1161C347.998 51.1508 347.97 51.2221 347.873 51.2574C347.661 51.3348 347.454 51.4233 347.253 51.5222C347.21 51.5432 347.166 51.5489 347.131 51.5444C347.097 51.54 347.076 51.5275 347.061 51.5129L346.854 51.3055C346.34 50.7916 345.507 50.7916 344.993 51.3055L344.173 52.1252C343.659 52.6391 343.659 53.4721 344.173 53.986L344.381 54.1934C344.395 54.208 344.408 54.2296 344.412 54.2632C344.417 54.2986 344.411 54.3426 344.39 54.3852C344.291 54.5861 344.202 54.793 344.125 55.0053C344.09 55.1022 344.018 55.1304 343.984 55.1304H343.646C342.919 55.1304 342.33 55.7195 342.33 56.4461V57.8631C342.33 58.5898 342.919 59.1788 343.646 59.1788H343.984C344.018 59.1788 344.09 59.207 344.125 59.3039C344.202 59.5161 344.291 59.723 344.39 59.9237C344.411 59.9664 344.416 60.0103 344.412 60.0458C344.408 60.0793 344.395 60.101 344.38 60.1156L344.173 60.3229C343.659 60.8367 343.659 61.6698 344.173 62.1836L344.993 63.0034C345.507 63.5172 346.34 63.5172 346.854 63.0034L347.061 62.7961C347.075 62.7816 347.097 62.7691 347.131 62.7647C347.166 62.7601 347.21 62.7659 347.253 62.7869C347.454 62.8859 347.661 62.9744 347.873 63.0518C347.97 63.0871 347.998 63.1584 347.998 63.1931V63.5309C347.998 64.2576 348.587 64.8467 349.314 64.8467H350.731C351.457 64.8467 352.046 64.2576 352.046 63.5309V63.1931C352.046 63.1584 352.075 63.0871 352.171 63.0518C352.384 62.9744 352.591 62.8859 352.791 62.7871C352.834 62.766 352.878 62.7603 352.913 62.7649C352.947 62.7692 352.969 62.7817 352.983 62.7963L353.191 63.0038C353.704 63.5176 354.538 63.5176 355.051 63.0038L355.871 62.184C356.385 61.6702 356.385 60.8371 355.871 60.3232L355.664 60.1158C355.649 60.1012 355.637 60.0796 355.632 60.046C355.628 60.0106 355.633 59.9667 355.654 59.924C355.753 59.7231 355.842 59.5162 355.919 59.3039C355.955 59.207 356.026 59.1788 356.061 59.1788H356.398C357.125 59.1788 357.714 58.5898 357.714 57.8631V56.4461C357.714 55.7195 357.125 55.1304 356.398 55.1304H356.061C356.026 55.1304 355.955 55.1022 355.919 55.0053C355.842 54.7931 355.753 54.5863 355.655 54.3856C355.634 54.3429 355.628 54.299 355.632 54.2635C355.637 54.23 355.649 54.2083 355.664 54.1937L355.871 53.9863C356.385 53.4725 356.385 52.6394 355.871 52.1256L355.051 51.3058C354.538 50.792 353.705 50.792 353.191 51.3058L352.983 51.5131C352.969 51.5277 352.947 51.5402 352.914 51.5445C352.878 51.5491 352.834 51.5433 352.792 51.5223C352.591 51.4234 352.384 51.3348 352.171 51.2574C352.075 51.2221 352.046 51.1508 352.046 51.1161V50.7783C352.046 50.0516 351.457 49.4626 350.731 49.4626H349.314ZM349.212 50.7783C349.212 50.7224 349.258 50.6771 349.314 50.6771H350.731C350.787 50.6771 350.832 50.7224 350.832 50.7783V51.1161C350.832 51.728 351.245 52.2124 351.755 52.3985C351.926 52.4608 352.093 52.5321 352.255 52.6118C352.752 52.8565 353.401 52.813 353.842 52.3719L354.05 52.1646C354.089 52.1251 354.153 52.1251 354.193 52.1646L355.012 52.9844C355.052 53.0239 355.052 53.088 355.012 53.1275L354.805 53.3349C354.364 53.776 354.32 54.4255 354.565 54.9221C354.645 55.0839 354.716 55.2504 354.778 55.4213C354.964 55.9318 355.449 56.3449 356.061 56.3449H356.398C356.454 56.3449 356.5 56.3902 356.5 56.4461V57.8631C356.5 57.919 356.454 57.9643 356.398 57.9643H356.061C355.449 57.9643 354.964 58.3774 354.778 58.8879C354.716 59.0589 354.645 59.2255 354.565 59.3873C354.32 59.884 354.364 60.5335 354.805 60.9746L355.012 61.182C355.052 61.2216 355.052 61.2857 355.012 61.3252L354.193 62.1449C354.153 62.1845 354.089 62.1845 354.049 62.1449L353.842 61.9375C353.401 61.4964 352.751 61.4529 352.255 61.6975C352.093 61.7772 351.926 61.8484 351.755 61.9107C351.245 62.0968 350.832 62.5813 350.832 63.1931V63.5309C350.832 63.5868 350.787 63.6321 350.731 63.6321H349.314C349.258 63.6321 349.212 63.5868 349.212 63.5309V63.1931C349.212 62.5813 348.799 62.0968 348.289 61.9107C348.118 61.8484 347.951 61.7771 347.789 61.6974C347.293 61.4528 346.643 61.4963 346.202 61.9373L345.995 62.1446C345.955 62.1841 345.891 62.1841 345.852 62.1446L345.032 61.3248C344.992 61.2853 344.992 61.2212 345.032 61.1817L345.239 60.9744C345.68 60.5333 345.724 59.8838 345.479 59.3871C345.4 59.2254 345.328 59.0588 345.266 58.8879C345.08 58.3774 344.595 57.9643 343.984 57.9643H343.646C343.59 57.9643 343.545 57.919 343.545 57.8631V56.4461C343.545 56.3902 343.59 56.3449 343.646 56.3449H343.984C344.595 56.3449 345.08 55.9318 345.266 55.4213C345.328 55.2503 345.4 55.0837 345.479 54.9219C345.724 54.4252 345.68 53.7757 345.239 53.3346L345.032 53.1272C344.992 53.0876 344.992 53.0236 345.032 52.984L345.852 52.1643C345.891 52.1247 345.955 52.1247 345.995 52.1643L346.202 52.3717C346.643 52.8128 347.293 52.8563 347.79 52.6117C347.951 52.5321 348.118 52.4608 348.289 52.3985C348.799 52.2124 349.212 51.728 349.212 51.1161V50.7783ZM347.795 57.1546C347.795 55.9249 348.792 54.928 350.022 54.928C351.252 54.928 352.249 55.9249 352.249 57.1546C352.249 58.3844 351.252 59.3813 350.022 59.3813C348.792 59.3813 347.795 58.3844 347.795 57.1546ZM350.022 53.7134C348.121 53.7134 346.581 55.2541 346.581 57.1546C346.581 59.0551 348.121 60.5958 350.022 60.5958C351.922 60.5958 353.463 59.0551 353.463 57.1546C353.463 55.2541 351.922 53.7134 350.022 53.7134Z" fill="#151418"/>
<rect width="265.511" height="141.481" transform="translate(107.311 106.186)" fill="#EFF2F0"/>
<rect width="265.428" height="124.625" transform="translate(107.353 106.186)" fill="#EFF2F0"/>
<path d="M125.573 120.186V110.086H129.669C132.018 110.086 133.325 111.436 133.325 113.374C133.325 115.312 132.018 116.765 129.669 116.765H127.232V120.186H125.573ZM129.596 111.466H127.232V115.4H129.596C130.976 115.4 131.651 114.504 131.651 113.389C131.651 112.258 130.99 111.466 129.596 111.466ZM134.902 120.186V113.022H136.429V114.064H136.473C136.826 113.301 137.442 112.846 138.367 112.846C138.661 112.846 138.998 112.89 139.365 113.139L138.954 114.548C138.646 114.387 138.352 114.314 138.073 114.314C137.002 114.314 136.488 115.356 136.488 116.604V120.186H134.902ZM140.377 111.055V109.44H142.08V111.055H140.377ZM140.436 120.186V113.022H142.022V120.186H140.436ZM144.178 120.186V113.022H145.705V114.064H145.763C146.174 113.242 146.938 112.846 147.936 112.846C148.934 112.846 149.8 113.227 150.211 114.27C150.725 113.227 151.562 112.846 152.619 112.846C154.028 112.846 155.159 113.609 155.159 115.752V120.186H153.573V115.943C153.573 114.607 153.089 114.137 152.193 114.137C151.239 114.137 150.461 114.989 150.461 116.413V120.186H148.875V115.943C148.875 114.607 148.362 114.137 147.496 114.137C146.541 114.137 145.763 114.974 145.763 116.428V120.186H144.178ZM156.712 118.277C156.712 117 157.402 116.354 159.046 116.105L160.5 115.87C161.263 115.752 161.424 115.708 161.424 115.268C161.424 114.578 160.969 114.035 160.015 114.035C159.061 114.035 158.562 114.548 158.503 115.297H156.991C157.094 113.814 158.195 112.846 160.015 112.846C162.026 112.846 163.01 113.8 163.01 115.488V120.186H161.498V119.07H161.439C161.102 119.833 160.279 120.303 159.09 120.303C157.608 120.303 156.712 119.554 156.712 118.277ZM161.424 117.191V116.53C161.292 116.706 161.043 116.824 160.69 116.868L159.457 117.088C158.65 117.206 158.298 117.514 158.298 118.116C158.298 118.703 158.709 119.114 159.428 119.114C160.47 119.114 161.424 118.483 161.424 117.191ZM165.065 120.186V113.022H166.592V114.064H166.636C166.988 113.301 167.605 112.846 168.53 112.846C168.823 112.846 169.161 112.89 169.528 113.139L169.117 114.548C168.809 114.387 168.515 114.314 168.236 114.314C167.165 114.314 166.651 115.356 166.651 116.604V120.186H165.065ZM172.76 120.186L170.088 113.022H171.82L173.685 118.541H173.743L175.608 113.022H177.208L174.257 121.184C173.831 122.344 173.068 123.533 171.512 123.533H170.719V122.226H171.189C172.011 122.226 172.584 121.756 172.921 120.832L173.141 120.186H172.76Z" fill="#151418"/>
<path d="M139.255 148.645C139.255 152.111 135.926 153.572 132.494 153.742V155.848H131.815V153.742C129.403 153.708 127.67 152.994 126.277 152.145C125.461 150.072 125.529 147.762 126.379 147.762C126.651 147.762 126.753 147.796 126.854 148.136C127.67 150.684 129.504 152.349 131.815 152.722V145.52L131.645 145.452C128.349 144.331 125.903 142.7 125.903 139.676C125.903 136.924 128.078 134.852 131.815 134.648V132.439H132.494V134.614H132.528C134.601 134.614 136.367 135.123 137.794 135.973C138.61 138.045 138.542 140.356 137.692 140.356C137.421 140.356 137.319 140.288 137.217 139.982C136.333 137.366 134.533 135.871 132.494 135.565V142.7L132.63 142.734C135.416 143.685 139.255 144.874 139.255 148.645ZM128.315 138.759C128.315 140.797 129.81 141.715 131.815 142.462V135.497H131.679C129.233 135.497 128.315 137.162 128.315 138.759ZM132.97 152.824C135.11 152.79 136.639 151.771 136.639 149.529C136.639 147.151 134.771 146.437 132.494 145.724V152.824H132.97ZM143.659 155.848L154.26 137.4H146.955C144.781 137.4 143.354 137.57 142.47 139.54H141.621L143.15 134.478L145.664 134.75H156.502L145.834 155.848H143.659ZM159.867 159.076L159.425 158.6C160.105 158.022 160.648 157.037 160.648 156.494C160.648 156.12 160.445 155.916 160.105 155.916C159.12 155.916 158.372 155.169 158.372 154.149C158.372 153.028 159.255 152.315 160.275 152.315C161.668 152.315 162.279 153.504 162.279 154.829C162.279 156.426 161.328 158.124 159.867 159.076ZM166.519 155.848L177.12 137.4H169.815C167.641 137.4 166.214 137.57 165.33 139.54H164.481L166.01 134.478L168.524 134.75H179.362L168.694 155.848H166.519ZM188.281 156.188C184.034 156.188 180.738 153.708 180.738 150.208C180.738 148.611 181.418 148.102 182.403 148.102C184.068 148.102 183.287 149.427 184.374 152.077C184.985 153.64 186.14 155.304 188.655 155.304C191.712 155.304 193.683 152.96 193.683 149.461C193.683 146.029 191.78 144.67 189.64 144.67C188.722 144.67 187.873 144.908 186.888 145.316L186.514 144.399C190.285 143.142 192.188 142.36 192.188 139.506C192.188 136.992 190.795 135.022 188.247 135.022C185.869 135.022 184.679 136.822 184.679 139.2C184.679 140.288 184.442 141.137 183.253 141.137C182.063 141.137 181.554 140.288 181.554 139.234C181.554 136.89 183.762 134.206 188.621 134.206C193.071 134.206 195.144 136.313 195.144 138.963C195.144 141.749 192.664 143.006 190.795 143.651C193.071 143.379 196.808 145.146 196.808 149.189C196.808 153.232 193.003 156.188 188.281 156.188ZM207.777 156.188C202.07 156.188 199.352 150.82 199.352 145.18C199.352 139.574 202.07 134.206 207.777 134.206C213.485 134.206 216.203 139.574 216.203 145.18C216.203 150.82 213.485 156.188 207.777 156.188ZM208.083 155.271C211.277 155.271 212.907 152.077 212.907 146.063C212.907 140.729 211.65 135.123 207.471 135.123C204.244 135.123 202.613 138.283 202.613 144.297C202.613 149.699 203.87 155.271 208.083 155.271ZM219.571 156.052C218.586 156.052 217.736 155.203 217.736 154.183C217.736 153.164 218.586 152.315 219.571 152.315C220.59 152.315 221.44 153.164 221.44 154.183C221.44 155.203 220.59 156.052 219.571 156.052ZM226.042 155.848L236.642 137.4H229.337C227.163 137.4 225.736 137.57 224.852 139.54H224.003L225.532 134.478L228.046 134.75H238.884L228.216 155.848H226.042ZM248.738 156.188C242.861 156.188 240.89 151.194 240.924 146.029C240.958 140.288 243.438 134.206 249.927 134.206C251.32 134.206 252.645 134.444 253.699 135.327L253.257 135.973C252.034 135.327 251.286 135.259 250.641 135.259C245.477 135.259 243.982 141.069 243.982 145.384C244.39 144.297 246.768 142.326 249.792 142.326C253.529 142.326 256.349 145.18 256.349 148.951C256.349 152.722 253.597 156.188 248.738 156.188ZM249.044 155.304C252.136 155.304 253.325 152.145 253.325 149.393C253.325 146.097 251.66 143.651 248.806 143.651C246.258 143.651 243.982 145.758 243.982 148.985C243.982 151.975 245.85 155.304 249.044 155.304Z" fill="#343239"/>
<circle cx="333.143" cy="134.517" r="22.6498" fill="#5C6857"/>
<path d="M325.593 125.551H340.692C341.344 125.551 341.872 126.079 341.872 126.731V136.168C341.872 140.99 337.964 144.898 333.143 144.898C328.321 144.898 324.413 140.99 324.413 136.168V126.731C324.413 126.079 324.941 125.551 325.593 125.551Z" stroke="white" stroke-width="1.41561"/>
<path d="M329.45 139.967L336.836 132.581" stroke="white" stroke-width="1.41561"/>
<circle cx="336.118" cy="139.288" r="1.06794" fill="white"/>
<circle cx="330.124" cy="133.428" r="1.06794" fill="white"/>
<path d="M341.813 129.562H324.62" stroke="white" stroke-width="1.41561"/>
<rect x="124.34" y="179.835" width="231.453" height="33.9874" rx="16.9937" fill="white"/>
<path d="M200.448 193.613V192.537H207.085V193.613H204.401V200.329H203.121V193.613H200.448ZM206.836 200.329V194.802H208.014V195.607H208.048C208.319 195.018 208.795 194.667 209.509 194.667C209.735 194.667 209.996 194.701 210.279 194.893L209.962 195.98C209.724 195.856 209.497 195.799 209.282 195.799C208.455 195.799 208.059 196.603 208.059 197.566V200.329H206.836ZM210.666 198.857C210.666 197.872 211.198 197.373 212.467 197.181L213.588 197C214.177 196.909 214.301 196.875 214.301 196.535C214.301 196.003 213.95 195.584 213.214 195.584C212.478 195.584 212.093 195.98 212.048 196.558H210.881C210.961 195.414 211.81 194.667 213.214 194.667C214.766 194.667 215.525 195.403 215.525 196.705V200.329H214.358V199.468H214.313C214.052 200.057 213.418 200.42 212.501 200.42C211.357 200.42 210.666 199.842 210.666 198.857ZM214.301 198.019V197.509C214.2 197.645 214.007 197.736 213.735 197.77L212.784 197.939C212.161 198.03 211.889 198.268 211.889 198.732C211.889 199.185 212.206 199.502 212.761 199.502C213.565 199.502 214.301 199.015 214.301 198.019ZM217.11 200.329V194.802H218.288V195.607H218.333C218.65 194.984 219.217 194.667 220.043 194.667C221.142 194.667 222.116 195.255 222.116 196.977V200.329H220.893V197.135C220.893 196.037 220.44 195.663 219.715 195.663C218.934 195.663 218.333 196.32 218.333 197.441V200.329H217.11ZM223.294 198.676H224.461C224.461 199.344 225.061 199.604 225.672 199.604C226.499 199.604 226.862 199.332 226.862 198.789C226.862 198.381 226.624 198.2 226.069 198.109L225.05 197.939C224.234 197.815 223.419 197.464 223.419 196.422C223.419 195.301 224.381 194.667 225.684 194.667C226.963 194.667 227.937 195.267 227.937 196.445H226.794C226.794 195.867 226.352 195.527 225.684 195.527C225.038 195.527 224.597 195.81 224.597 196.297C224.597 196.671 224.812 196.852 225.48 196.977L226.499 197.147C227.337 197.294 228.085 197.611 228.085 198.71C228.085 199.899 227.111 200.465 225.672 200.465C224.212 200.465 223.294 199.853 223.294 198.676ZM229.635 200.329V195.754H228.593V194.802H229.635V193.976C229.635 192.696 230.258 192.039 231.663 192.039H232.365V193.036H231.776C231.085 193.036 230.858 193.342 230.858 194.021V194.802H232.183V195.754H230.858V200.329H229.635ZM232.584 197.577C232.584 195.822 233.739 194.667 235.325 194.667C236.865 194.667 237.907 195.652 237.907 197.362V197.77H233.841C233.898 198.857 234.475 199.502 235.37 199.502C236.152 199.502 236.537 199.083 236.661 198.63H237.85C237.703 199.627 236.808 200.465 235.359 200.465C233.581 200.465 232.584 199.4 232.584 197.577ZM235.325 195.629C234.6 195.629 234.068 196.127 233.898 196.954H236.661C236.571 196.048 236.106 195.629 235.325 195.629ZM239.13 200.329V194.802H240.307V195.607H240.341C240.613 195.018 241.089 194.667 241.802 194.667C242.029 194.667 242.289 194.701 242.572 194.893L242.255 195.98C242.017 195.856 241.791 195.799 241.576 195.799C240.749 195.799 240.353 196.603 240.353 197.566V200.329H239.13ZM245.887 200.329V194.802H247.065V195.607H247.11C247.427 194.972 248.016 194.667 248.786 194.667C249.556 194.667 250.224 194.961 250.542 195.765C250.938 194.961 251.583 194.667 252.399 194.667C253.486 194.667 254.358 195.255 254.358 196.909V200.329H253.135V197.056C253.135 196.026 252.761 195.663 252.07 195.663C251.334 195.663 250.734 196.32 250.734 197.419V200.329H249.511V197.056C249.511 196.026 249.115 195.663 248.446 195.663C247.71 195.663 247.11 196.309 247.11 197.43V200.329H245.887ZM255.544 197.566C255.544 195.788 256.733 194.667 258.364 194.667C260.085 194.667 261.184 195.754 261.184 197.566C261.184 199.344 260.006 200.465 258.364 200.465C256.642 200.465 255.544 199.378 255.544 197.566ZM256.812 197.566C256.812 198.732 257.424 199.48 258.364 199.48C259.304 199.48 259.915 198.732 259.915 197.566C259.915 196.354 259.304 195.652 258.364 195.652C257.424 195.652 256.812 196.399 256.812 197.566ZM262.465 200.329V194.802H263.643V195.607H263.688C264.005 194.984 264.572 194.667 265.398 194.667C266.497 194.667 267.471 195.255 267.471 196.977V200.329H266.248V197.135C266.248 196.037 265.795 195.663 265.07 195.663C264.288 195.663 263.688 196.32 263.688 197.441V200.329H262.465ZM268.649 197.577C268.649 195.822 269.804 194.667 271.39 194.667C272.93 194.667 273.972 195.652 273.972 197.362V197.77H269.906C269.963 198.857 270.54 199.502 271.435 199.502C272.217 199.502 272.602 199.083 272.726 198.63H273.915C273.768 199.627 272.873 200.465 271.424 200.465C269.646 200.465 268.649 199.4 268.649 197.577ZM271.39 195.629C270.665 195.629 270.133 196.127 269.963 196.954H272.726C272.636 196.048 272.171 195.629 271.39 195.629ZM276.297 200.329L274.236 194.802H275.573L277.011 199.061H277.056L278.494 194.802H279.729L277.453 201.099C277.124 201.994 276.535 202.911 275.335 202.911H274.723V201.903H275.086C275.72 201.903 276.161 201.541 276.422 200.827L276.592 200.329H276.297Z" fill="#151418"/>
<rect x="118.636" y="247.797" width="1672.82" height="33.9874" rx="16.9937" fill="white"/>
<rect width="265.324" height="73.2131" transform="translate(107.292 231.31)" fill="#EFF2F0"/>
<g filter="url(#filter1_i_3931_32050)">
<rect width="132.276" height="61.7031" transform="translate(107.292 231.31)" fill="white"/>
<g clip-path="url(#clip1_3931_32050)">
<path d="M125.348 255.635V247.555H128.377C130.163 247.555 131.09 248.412 131.09 249.88C131.09 251.113 130.444 251.994 129.188 252.264L131.325 255.635H130.421L128.295 252.335H126.181V255.635H125.348ZM128.413 248.283H126.181V251.606H128.413C129.634 251.606 130.257 250.867 130.257 249.88C130.257 248.894 129.622 248.283 128.413 248.283ZM132.124 252.769C132.124 250.937 133.287 249.774 134.848 249.774C136.504 249.774 137.573 250.937 137.573 252.769C137.573 254.601 136.41 255.764 134.848 255.764C133.193 255.764 132.124 254.601 132.124 252.769ZM132.958 252.769C132.958 254.167 133.733 255.071 134.848 255.071C135.941 255.071 136.739 254.167 136.739 252.769C136.739 251.325 135.976 250.467 134.848 250.467C133.756 250.467 132.958 251.372 132.958 252.769ZM138.921 253.415V249.904H139.72V253.309C139.72 254.589 140.307 255.071 141.153 255.071C142.092 255.071 142.832 254.319 142.832 252.875V249.904H143.631V255.635H142.867V254.695H142.832C142.468 255.435 141.799 255.764 140.988 255.764C139.861 255.764 138.921 255.141 138.921 253.415ZM145.648 253.991V250.549H144.52V249.904H145.648V248.165H146.446V249.904H148.008V250.549H146.446V253.955C146.446 254.695 146.716 254.942 147.362 254.942H148.008V255.635H147.257C146.176 255.635 145.648 255.118 145.648 253.991ZM149.199 248.165V247.038H150.068V248.165H149.199ZM149.234 255.635V249.904H150.033V255.635H149.234ZM151.906 255.635V249.904H152.67V250.843H152.705C153.045 250.127 153.738 249.774 154.584 249.774C155.711 249.774 156.663 250.397 156.663 252.123V255.635H155.864V252.229C155.864 250.949 155.277 250.467 154.419 250.467C153.48 250.467 152.705 251.231 152.705 252.652V255.635H151.906ZM158.161 256.339H158.925C158.925 257.173 159.629 257.655 160.628 257.655C161.708 257.655 162.577 257.079 162.577 255.388V254.613H162.542C162.166 255.412 161.414 255.764 160.522 255.764C159.113 255.764 158.02 254.66 158.02 252.816C158.02 250.972 159.171 249.774 160.592 249.774C161.485 249.774 162.178 250.138 162.542 250.925H162.577V249.904H163.34V255.388C163.34 257.549 162.131 258.312 160.628 258.312C159.218 258.312 158.161 257.619 158.161 256.339ZM158.854 252.816C158.854 254.272 159.665 255.071 160.698 255.071C161.708 255.071 162.483 254.272 162.542 252.875V252.663C162.483 251.278 161.708 250.467 160.698 250.467C159.665 250.467 158.854 251.372 158.854 252.816ZM167.756 255.635V249.904H168.52V250.843H168.555C168.895 250.127 169.588 249.774 170.434 249.774C171.561 249.774 172.512 250.397 172.512 252.123V255.635H171.714V252.229C171.714 250.949 171.127 250.467 170.269 250.467C169.33 250.467 168.555 251.231 168.555 252.652V255.635H167.756ZM174.211 253.415V249.904H175.009V253.309C175.009 254.589 175.597 255.071 176.442 255.071C177.382 255.071 178.122 254.319 178.122 252.875V249.904H178.92V255.635H178.157V254.695H178.122C177.758 255.435 177.088 255.764 176.278 255.764C175.15 255.764 174.211 255.141 174.211 253.415ZM180.796 255.635V249.904H181.56V250.843H181.595C181.935 250.127 182.628 249.774 183.415 249.774C184.214 249.774 184.895 250.115 185.212 250.996C185.6 250.115 186.339 249.774 187.185 249.774C188.265 249.774 189.134 250.397 189.134 252.053V255.635H188.336V252.158C188.336 250.937 187.866 250.467 187.021 250.467C186.14 250.467 185.365 251.219 185.365 252.663V255.635H184.566V252.158C184.566 250.937 184.049 250.467 183.251 250.467C182.37 250.467 181.595 251.231 181.595 252.652V255.635H180.796ZM190.935 255.635V247.038H191.733V248.788C191.733 249.07 191.733 250.373 191.698 250.925H191.733C192.097 250.127 192.861 249.774 193.753 249.774C195.162 249.774 196.255 250.878 196.255 252.722C196.255 254.566 195.104 255.764 193.683 255.764C192.79 255.764 192.097 255.412 191.733 254.613H191.698V255.635H190.935ZM191.733 252.663V252.769C191.733 254.225 192.544 255.071 193.577 255.071C194.611 255.071 195.421 254.167 195.421 252.722C195.421 251.266 194.599 250.467 193.577 250.467C192.567 250.467 191.768 251.278 191.733 252.663ZM197.358 252.769C197.358 250.996 198.486 249.774 200.001 249.774C201.445 249.774 202.467 250.773 202.467 252.499V252.828H198.192V252.875C198.227 254.202 198.909 255.071 200.036 255.071C200.964 255.071 201.492 254.554 201.622 253.897H202.42C202.267 254.93 201.316 255.764 200.036 255.764C198.31 255.764 197.358 254.589 197.358 252.769ZM200.001 250.467C199.097 250.467 198.415 251.148 198.239 252.229H201.657C201.575 251.043 200.952 250.467 200.001 250.467ZM203.883 255.635V249.904H204.646V250.843H204.681C204.952 250.185 205.48 249.774 206.22 249.774C206.467 249.774 206.748 249.81 207.03 250.009L206.772 250.726C206.502 250.585 206.279 250.538 206.056 250.538C205.151 250.538 204.681 251.513 204.681 252.605V255.635H203.883Z" fill="#6E7277"/>
<path d="M127.495 271.771C125.502 271.771 124.709 270.004 124.709 267.739C124.709 265.474 125.502 263.707 127.495 263.707C129.488 263.707 130.281 265.474 130.281 267.739C130.281 270.004 129.488 271.771 127.495 271.771ZM127.495 270.717C128.526 270.717 129.001 269.687 129.001 267.739C129.001 265.791 128.526 264.76 127.495 264.76C126.453 264.76 125.989 265.791 125.989 267.739C125.989 269.687 126.465 270.717 127.495 270.717ZM131.191 269.279H132.392C132.392 270.321 133.026 270.774 133.886 270.774C134.792 270.774 135.381 270.31 135.381 269.438C135.381 268.577 134.713 268.113 133.864 268.113H133.286V267.105H133.875C134.589 267.105 135.155 266.629 135.155 265.859C135.155 265.1 134.6 264.693 133.875 264.693C133.162 264.693 132.595 265.123 132.595 265.995H131.486C131.486 264.579 132.482 263.707 133.886 263.707C135.336 263.707 136.321 264.545 136.321 265.814C136.321 266.663 135.823 267.309 135.2 267.546C136.015 267.784 136.627 268.464 136.627 269.54C136.627 270.955 135.483 271.771 133.886 271.771C132.278 271.771 131.191 271 131.191 269.279ZM138.319 266.504L137.786 265.598L140.346 263.843H141.206V270.615H143.018V271.635H138.047V270.615H139.983V265.361L138.319 266.504ZM151.921 271.635H146.643C146.7 269.845 147.277 269.007 148.512 268.192L149.395 267.614C150.154 267.105 150.618 266.788 150.618 265.972C150.618 265.361 150.245 264.726 149.316 264.726C148.444 264.726 147.98 265.213 147.912 266.187H146.757C146.847 264.319 148.036 263.707 149.327 263.707C150.811 263.707 151.853 264.545 151.853 265.95C151.853 267.252 151.094 267.818 150.188 268.396L149.316 268.973C148.274 269.653 148.082 270.14 148.048 270.615H151.909L151.921 271.635ZM153.68 266.504L153.148 265.598L155.707 263.843H156.568V270.615H158.38V271.635H153.408V270.615H155.345V265.361L153.68 266.504ZM159.449 269.551H160.672C160.762 270.151 161.204 270.774 162.155 270.774C162.925 270.774 163.639 270.23 163.639 269.222C163.639 268.226 163.005 267.648 162.155 267.648C161.566 267.648 161.17 267.943 160.819 268.384L159.698 268.294L159.936 263.843H164.42V264.896H161.034L160.898 267.127H160.955C161.261 266.856 161.725 266.652 162.359 266.652C163.763 266.652 164.862 267.569 164.862 269.143C164.862 270.921 163.56 271.771 162.155 271.771C160.513 271.771 159.573 270.899 159.449 269.551ZM168.374 269.551H169.597C169.687 270.151 170.129 270.774 171.08 270.774C171.85 270.774 172.564 270.23 172.564 269.222C172.564 268.226 171.93 267.648 171.08 267.648C170.491 267.648 170.095 267.943 169.744 268.384L168.623 268.294L168.861 263.843H173.345V264.896H169.959L169.823 267.127H169.88C170.186 266.856 170.65 266.652 171.284 266.652C172.688 266.652 173.787 267.569 173.787 269.143C173.787 270.921 172.485 271.771 171.08 271.771C169.438 271.771 168.498 270.899 168.374 269.551ZM174.799 267.92C174.799 264.783 176.147 263.707 177.777 263.707C179.419 263.707 180.099 264.568 180.19 265.836H178.989C178.932 265.179 178.649 264.704 177.777 264.704C176.86 264.704 176.135 265.429 176.079 267.546V267.569C176.384 266.991 177.166 266.652 177.925 266.652C179.295 266.652 180.371 267.58 180.371 269.177C180.371 270.853 179.091 271.771 177.698 271.771C176.113 271.771 174.799 270.785 174.799 267.92ZM177.732 267.648C176.86 267.648 176.215 268.305 176.215 269.2V269.211C176.215 270.128 176.815 270.774 177.664 270.774C178.491 270.774 179.148 270.219 179.148 269.188C179.148 268.249 178.502 267.648 177.732 267.648ZM181.224 269.279H182.425C182.425 270.321 183.059 270.774 183.92 270.774C184.826 270.774 185.414 270.31 185.414 269.438C185.414 268.577 184.746 268.113 183.897 268.113H183.319V267.105H183.908C184.622 267.105 185.188 266.629 185.188 265.859C185.188 265.1 184.633 264.693 183.908 264.693C183.195 264.693 182.628 265.123 182.628 265.995H181.519C181.519 264.579 182.515 263.707 183.92 263.707C185.369 263.707 186.354 264.545 186.354 265.814C186.354 266.663 185.856 267.309 185.233 267.546C186.049 267.784 186.66 268.464 186.66 269.54C186.66 270.955 185.516 271.771 183.92 271.771C182.311 271.771 181.224 271 181.224 269.279Z" fill="#151418"/>
</g>
</g>
<g filter="url(#filter2_i_3931_32050)">
<rect width="133.047" height="61.7031" transform="translate(239.568 231.31)" fill="white"/>
<g clip-path="url(#clip2_3931_32050)">
<path d="M256.731 255.635L259.773 247.555H260.748L263.79 255.635H262.92L262.063 253.309H258.422L257.565 255.635H256.731ZM258.681 252.593H261.793L260.266 248.424H260.219L258.681 252.593ZM264.618 252.769C264.618 250.949 265.769 249.774 267.272 249.774C268.67 249.774 269.504 250.596 269.68 251.865H268.881C268.729 251.019 268.212 250.467 267.272 250.467C266.239 250.467 265.452 251.395 265.452 252.769C265.452 254.143 266.204 255.071 267.272 255.071C268.212 255.071 268.729 254.519 268.881 253.673H269.68C269.504 254.942 268.67 255.764 267.272 255.764C265.628 255.764 264.618 254.589 264.618 252.769ZM270.742 252.769C270.742 250.949 271.893 249.774 273.397 249.774C274.794 249.774 275.628 250.596 275.804 251.865H275.006C274.853 251.019 274.336 250.467 273.397 250.467C272.363 250.467 271.576 251.395 271.576 252.769C271.576 254.143 272.328 255.071 273.397 255.071C274.336 255.071 274.853 254.519 275.006 253.673H275.804C275.628 254.942 274.794 255.764 273.397 255.764C271.752 255.764 270.742 254.589 270.742 252.769ZM276.867 252.769C276.867 250.937 278.029 249.774 279.591 249.774C281.247 249.774 282.316 250.937 282.316 252.769C282.316 254.601 281.153 255.764 279.591 255.764C277.936 255.764 276.867 254.601 276.867 252.769ZM277.701 252.769C277.701 254.167 278.476 255.071 279.591 255.071C280.684 255.071 281.482 254.167 281.482 252.769C281.482 251.325 280.719 250.467 279.591 250.467C278.499 250.467 277.701 251.372 277.701 252.769ZM283.664 253.415V249.904H284.463V253.309C284.463 254.589 285.05 255.071 285.896 255.071C286.835 255.071 287.575 254.319 287.575 252.875V249.904H288.374V255.635H287.61V254.695H287.575C287.211 255.435 286.542 255.764 285.731 255.764C284.604 255.764 283.664 255.141 283.664 253.415ZM290.25 255.635V249.904H291.013V250.843H291.048C291.389 250.127 292.082 249.774 292.927 249.774C294.055 249.774 295.006 250.397 295.006 252.123V255.635H294.207V252.229C294.207 250.949 293.62 250.467 292.763 250.467C291.823 250.467 291.048 251.231 291.048 252.652V255.635H290.25ZM296.87 253.99V250.549H295.743V249.904H296.87V248.165H297.669V249.904H299.231V250.549H297.669V253.955C297.669 254.695 297.939 254.942 298.585 254.942H299.231V255.635H298.479C297.399 255.635 296.87 255.118 296.87 253.99ZM302.991 255.635V249.904H303.755V250.843H303.79C304.131 250.127 304.824 249.774 305.669 249.774C306.797 249.774 307.748 250.397 307.748 252.123V255.635H306.949V252.229C306.949 250.949 306.362 250.467 305.505 250.467C304.565 250.467 303.79 251.231 303.79 252.652V255.635H302.991ZM309.446 253.415V249.904H310.245V253.309C310.245 254.589 310.832 255.071 311.678 255.071C312.617 255.071 313.357 254.319 313.357 252.875V249.904H314.156V255.635H313.392V254.695H313.357C312.993 255.435 312.324 255.764 311.513 255.764C310.386 255.764 309.446 255.141 309.446 253.415ZM316.032 255.635V249.904H316.795V250.843H316.83C317.171 250.127 317.864 249.774 318.65 249.774C319.449 249.774 320.13 250.115 320.447 250.996C320.835 250.115 321.575 249.774 322.42 249.774C323.501 249.774 324.37 250.397 324.37 252.053V255.635H323.571V252.158C323.571 250.937 323.101 250.467 322.256 250.467C321.375 250.467 320.6 251.219 320.6 252.663V255.635H319.801V252.158C319.801 250.937 319.285 250.467 318.486 250.467C317.605 250.467 316.83 251.231 316.83 252.652V255.635H316.032ZM326.17 255.635V247.038H326.969V248.788C326.969 249.07 326.969 250.373 326.933 250.925H326.969C327.333 250.127 328.096 249.774 328.989 249.774C330.398 249.774 331.49 250.878 331.49 252.722C331.49 254.566 330.339 255.764 328.918 255.764C328.025 255.764 327.333 255.412 326.969 254.613H326.933V255.635H326.17ZM326.969 252.663V252.769C326.969 254.225 327.779 255.071 328.812 255.071C329.846 255.071 330.656 254.167 330.656 252.722C330.656 251.266 329.834 250.467 328.812 250.467C327.802 250.467 327.004 251.278 326.969 252.663ZM332.594 252.769C332.594 250.996 333.721 249.774 335.236 249.774C336.681 249.774 337.702 250.773 337.702 252.499V252.828H333.428V252.875C333.463 254.202 334.144 255.071 335.271 255.071C336.199 255.071 336.728 254.554 336.857 253.897H337.655C337.503 254.93 336.552 255.764 335.271 255.764C333.545 255.764 332.594 254.589 332.594 252.769ZM335.236 250.467C334.332 250.467 333.651 251.148 333.475 252.229H336.892C336.81 251.043 336.187 250.467 335.236 250.467ZM339.118 255.635V249.904H339.882V250.843H339.917C340.187 250.185 340.715 249.774 341.455 249.774C341.702 249.774 341.984 249.81 342.266 250.009L342.007 250.726C341.737 250.585 341.514 250.538 341.291 250.538C340.387 250.538 339.917 251.512 339.917 252.605V255.635H339.118Z" fill="#6E7277"/>
<path d="M259.318 269.641C258.22 269.641 257.371 268.792 257.371 267.694C257.371 266.595 258.22 265.746 259.318 265.746C260.417 265.746 261.266 266.595 261.266 267.694C261.266 268.792 260.417 269.641 259.318 269.641ZM264.848 269.641C263.75 269.641 262.9 268.792 262.9 267.694C262.9 266.595 263.75 265.746 264.848 265.746C265.947 265.746 266.796 266.595 266.796 267.694C266.796 268.792 265.947 269.641 264.848 269.641ZM270.378 269.641C269.279 269.641 268.43 268.792 268.43 267.694C268.43 266.595 269.279 265.746 270.378 265.746C271.476 265.746 272.326 266.595 272.326 267.694C272.326 268.792 271.476 269.641 270.378 269.641ZM275.908 269.641C274.809 269.641 273.96 268.792 273.96 267.694C273.96 266.595 274.809 265.746 275.908 265.746C277.006 265.746 277.856 266.595 277.856 267.694C277.856 268.792 277.006 269.641 275.908 269.641ZM283.926 269.641C282.827 269.641 281.978 268.792 281.978 267.694C281.978 266.595 282.827 265.746 283.926 265.746C285.024 265.746 285.874 266.595 285.874 267.694C285.874 268.792 285.024 269.641 283.926 269.641ZM289.456 269.641C288.357 269.641 287.508 268.792 287.508 267.694C287.508 266.595 288.357 265.746 289.456 265.746C290.554 265.746 291.403 266.595 291.403 267.694C291.403 268.792 290.554 269.641 289.456 269.641ZM294.985 269.641C293.887 269.641 293.037 268.792 293.037 267.694C293.037 266.595 293.887 265.746 294.985 265.746C296.084 265.746 296.933 266.595 296.933 267.694C296.933 268.792 296.084 269.641 294.985 269.641ZM300.515 269.641C299.417 269.641 298.567 268.792 298.567 267.694C298.567 266.595 299.417 265.746 300.515 265.746C301.614 265.746 302.463 266.595 302.463 267.694C302.463 268.792 301.614 269.641 300.515 269.641ZM306.087 269.811V268.985L309.802 263.843H310.821V268.792H311.885V269.811H310.821V271.635H309.598V269.811H306.087ZM307.31 268.792H309.598V265.678L307.31 268.792ZM313.373 266.504L312.841 265.598L315.4 263.843H316.261V270.615H318.073V271.635H313.101V270.615H315.038V265.361L313.373 266.504ZM319.119 269.279H320.319C320.319 270.321 320.953 270.774 321.814 270.774C322.72 270.774 323.309 270.31 323.309 269.438C323.309 268.577 322.641 268.113 321.791 268.113H321.214V267.105H321.803C322.516 267.105 323.082 266.629 323.082 265.859C323.082 265.1 322.528 264.692 321.803 264.692C321.089 264.692 320.523 265.123 320.523 265.995H319.413C319.413 264.579 320.41 263.707 321.814 263.707C323.264 263.707 324.249 264.545 324.249 265.814C324.249 266.663 323.751 267.309 323.128 267.546C323.943 267.784 324.555 268.464 324.555 269.54C324.555 270.955 323.411 271.771 321.814 271.771C320.206 271.771 319.119 271 319.119 269.279ZM326.563 271.635L329.734 264.93H325.623V263.843H331.059V264.647L327.832 271.635H326.563Z" fill="#151418"/>
</g>
</g>
<rect width="265.428" height="38.0882" transform="translate(107.24 304.523)" fill="white"/>
<path d="M125.064 331.949V325.618H127.438C128.837 325.618 129.564 326.29 129.564 327.44C129.564 328.406 129.058 329.096 128.073 329.308L129.748 331.949H129.039L127.374 329.363H125.718V331.949H125.064ZM127.466 326.189H125.718V328.793H127.466C128.423 328.793 128.911 328.213 128.911 327.44C128.911 326.667 128.414 326.189 127.466 326.189ZM131.915 331.949V325.618H136.111V326.189H132.568V328.443H135.412V329.004H132.568V331.378H136.185V331.949H131.915ZM137.768 328.783C137.768 326.934 138.973 325.517 140.777 325.517C142.231 325.517 143.16 326.354 143.436 327.569H142.764C142.507 326.649 141.854 326.115 140.777 326.115C139.369 326.115 138.449 327.265 138.449 328.783C138.449 330.283 139.378 331.452 140.749 331.452C141.863 331.452 142.498 330.918 142.764 329.998H143.436C143.142 331.213 142.212 332.05 140.749 332.05C138.973 332.05 137.768 330.66 137.768 328.783ZM145.608 331.949V325.618H149.804V326.189H146.261V328.443H149.104V329.004H146.261V331.378H149.877V331.949H145.608ZM152.108 331.949V325.618H152.734L156.433 330.845H156.46L156.433 325.618H157.086V331.949H156.46L152.761 326.75H152.734L152.761 331.949H152.108ZM158.914 326.17V325.618H164.095V326.17H161.831V331.949H161.178V326.17H158.914ZM168.133 331.949L170.516 325.618H171.28L173.663 331.949H172.982L172.311 330.127H169.458L168.787 331.949H168.133ZM169.661 329.565H172.099L170.903 326.299H170.866L169.661 329.565ZM174.991 328.783C174.991 326.934 176.196 325.517 178 325.517C179.454 325.517 180.383 326.354 180.659 327.569H179.987C179.73 326.649 179.076 326.115 178 326.115C176.592 326.115 175.672 327.265 175.672 328.783C175.672 330.283 176.601 331.452 177.972 331.452C179.086 331.452 179.721 330.918 179.987 329.998H180.659C180.365 331.213 179.435 332.05 177.972 332.05C176.196 332.05 174.991 330.66 174.991 328.783ZM182.067 326.17V325.618H187.247V326.17H184.984V331.949H184.331V326.17H182.067ZM189.079 331.949V325.618H189.733V331.949H189.079ZM193.919 331.949L191.582 325.618H192.263L194.287 331.268H194.324L196.348 325.618H197.001L194.646 331.949H193.919ZM198.854 331.949V325.618H199.508V331.949H198.854ZM201.338 326.17V325.618H206.518V326.17H204.255V331.949H203.602V326.17H201.338ZM210.193 331.949V329.427L207.92 325.618H208.656L210.524 328.756H210.543L212.466 325.618H213.147L210.846 329.372V331.949H210.193Z" fill="#151418"/>
<mask id="path-23-inside-1_3931_32050" fill="white">
<path d="M107.193 342.611H372.713V399.255H107.193V342.611Z"/>
</mask>
<path d="M107.193 342.611H372.713V399.255H107.193V342.611Z" fill="white"/>
<path d="M372.713 398.547H107.193V399.963H372.713V398.547Z" fill="#151418" fill-opacity="0.05" mask="url(#path-23-inside-1_3931_32050)"/>
<circle cx="134.099" cy="370.933" r="12.0369" stroke="#D4E0DA" stroke-width="1.41611"/>
<g clip-path="url(#clip3_3931_32050)">
<path fill-rule="evenodd" clip-rule="evenodd" d="M134.392 365.266V366.455C135.198 366.581 135.94 366.991 136.477 367.621L136.561 367.719L135.753 368.408L135.669 368.31C135.217 367.781 134.557 367.476 133.861 367.476H133.65C132.987 367.476 132.423 367.959 132.322 368.614C132.225 369.242 132.58 369.851 133.174 370.076L135.167 370.83C136.359 371.281 136.998 372.58 136.628 373.801C136.321 374.812 135.43 375.526 134.392 375.618V376.595H133.33V375.583C132.522 375.448 131.789 375.007 131.29 374.341L131.14 374.141L131.99 373.504L132.14 373.704C132.546 374.246 133.184 374.566 133.861 374.566H134.164C134.83 374.566 135.418 374.13 135.612 373.492C135.82 372.806 135.461 372.077 134.791 371.823L132.798 371.069C131.735 370.667 131.099 369.576 131.272 368.452C131.437 367.386 132.285 366.574 133.33 366.435V365.266H134.392Z" fill="#151418"/>
</g>
<g clip-path="url(#clip4_3931_32050)">
<g clip-path="url(#clip5_3931_32050)">
<path d="M146.419 373.765H143.021C141.633 373.765 140.939 373.765 140.409 374.036C139.942 374.273 139.563 374.652 139.326 375.119C139.056 375.649 139.056 376.343 139.056 377.731V381.129C139.056 382.517 139.056 383.211 139.326 383.741C139.563 384.208 139.942 384.587 140.409 384.824C140.939 385.094 141.633 385.094 143.021 385.094H146.419C147.807 385.094 148.501 385.094 149.031 384.824C149.498 384.587 149.877 384.208 150.114 383.741C150.385 383.211 150.385 382.517 150.385 381.129V377.731C150.385 376.343 150.385 375.649 150.114 375.119C149.877 374.652 149.498 374.273 149.031 374.036C148.501 373.765 147.807 373.765 146.419 373.765Z" fill="#3396CD"/>
<path d="M147.512 376.071C147.756 376.473 147.865 376.887 147.865 377.41C147.865 379.079 146.441 381.246 145.285 382.767H142.645L141.587 376.436L143.899 376.217L144.461 380.721C144.984 379.869 145.63 378.53 145.63 377.617C145.63 377.117 145.544 376.778 145.41 376.498L147.512 376.071Z" fill="white"/>
</g>
</g>
<path d="M158.581 363.69V363.294H159.85V363.656C159.85 364.653 160.326 364.982 160.983 364.982C161.64 364.982 162.116 364.664 162.116 363.634V358.139H163.396V363.634C163.396 365.412 162.422 366.069 160.983 366.069C159.578 366.069 158.581 365.412 158.581 363.69ZM164.94 358.887V357.641H166.254V358.887H164.94ZM164.986 365.933V360.405H166.209V365.933H164.986ZM167.873 365.933V357.641H169.097V365.933H167.873ZM170.761 365.933V357.641H171.984V365.933H170.761ZM182.334 365.933L182.164 364.902H182.13C181.587 365.684 180.794 366.069 179.649 366.069C177.35 366.069 175.809 364.37 175.809 362.036C175.809 359.702 177.384 358.003 179.729 358.003C181.632 358.003 182.855 359.102 183.161 360.518H181.859C181.621 359.77 180.952 359.136 179.729 359.136C178.143 359.136 177.134 360.348 177.134 362.036C177.134 363.724 178.188 364.936 179.695 364.936C180.918 364.936 182.006 364.234 182.006 362.976V362.795H179.729V361.764H183.161V365.933H182.334ZM184.45 364.461C184.45 363.475 184.982 362.976 186.251 362.784L187.372 362.603C187.962 362.512 188.086 362.478 188.086 362.138C188.086 361.606 187.735 361.186 186.999 361.186C186.262 361.186 185.877 361.583 185.832 362.161H184.665C184.744 361.017 185.594 360.269 186.999 360.269C188.551 360.269 189.31 361.005 189.31 362.308V365.933H188.143V365.072H188.098C187.837 365.661 187.203 366.024 186.285 366.024C185.141 366.024 184.45 365.446 184.45 364.461ZM188.086 363.622V363.112C187.984 363.248 187.792 363.339 187.52 363.373L186.568 363.543C185.945 363.634 185.673 363.871 185.673 364.336C185.673 364.789 185.99 365.106 186.545 365.106C187.35 365.106 188.086 364.619 188.086 363.622ZM190.896 365.933V360.405H192.074V361.209H192.108C192.38 360.62 192.856 360.269 193.57 360.269C193.796 360.269 194.057 360.303 194.34 360.495L194.023 361.583C193.785 361.458 193.558 361.402 193.343 361.402C192.516 361.402 192.119 362.206 192.119 363.169V365.933H190.896ZM195.166 365.933V357.641H196.39V365.933H195.166ZM197.737 364.461C197.737 363.475 198.269 362.976 199.538 362.784L200.66 362.603C201.249 362.512 201.373 362.478 201.373 362.138C201.373 361.606 201.022 361.186 200.286 361.186C199.549 361.186 199.164 361.583 199.119 362.161H197.952C198.031 361.017 198.881 360.269 200.286 360.269C201.838 360.269 202.597 361.005 202.597 362.308V365.933H201.43V365.072H201.385C201.124 365.661 200.49 366.024 199.572 366.024C198.428 366.024 197.737 365.446 197.737 364.461ZM201.373 363.622V363.112C201.271 363.248 201.079 363.339 200.807 363.373L199.855 363.543C199.232 363.634 198.96 363.871 198.96 364.336C198.96 364.789 199.277 365.106 199.833 365.106C200.637 365.106 201.373 364.619 201.373 363.622ZM204.183 365.933V360.405H205.361V361.209H205.407C205.724 360.586 206.29 360.269 207.117 360.269C208.216 360.269 209.19 360.858 209.19 362.58V365.933H207.967V362.739C207.967 361.64 207.514 361.266 206.789 361.266C206.007 361.266 205.407 361.923 205.407 363.044V365.933H204.183ZM210.381 363.214C210.381 361.379 211.525 360.269 212.941 360.269C213.734 360.269 214.346 360.563 214.685 361.232H214.731C214.674 360.507 214.674 359.748 214.674 359.374V357.641H215.898V365.933H214.731V365.106H214.685C214.346 365.775 213.666 366.069 212.85 366.069C211.457 366.069 210.381 365.05 210.381 363.214ZM211.649 363.214C211.649 364.427 212.284 365.084 213.156 365.084C214.017 365.084 214.674 364.381 214.674 363.169C214.674 361.957 214.017 361.254 213.156 361.254C212.284 361.254 211.649 362.002 211.649 363.214Z" fill="#151418"/>
<path d="M311.106 363.554V362.557H313.156V360.495H314.198V362.557H316.249V363.554H314.198V365.605H313.156V363.554H311.106ZM317.329 363.735H318.553C318.609 364.63 319.21 365.118 320.071 365.118C320.966 365.118 321.544 364.664 321.544 363.849C321.544 363.135 321.045 362.874 320.241 362.637L319.278 362.342C318.496 362.104 317.511 361.526 317.511 360.201C317.511 359.068 318.315 358.23 319.527 358.048V356.825H320.615V358.048C321.725 358.23 322.529 358.989 322.62 360.133H321.408C321.306 359.317 320.762 358.966 320.071 358.966C319.368 358.966 318.768 359.317 318.768 360.076C318.768 360.79 319.165 361.005 319.98 361.277L320.943 361.572C322.167 361.946 322.812 362.591 322.812 363.735C322.812 365.004 321.929 365.854 320.615 366.035V367.293H319.527V366.035C318.202 365.854 317.375 365.038 317.329 363.735ZM329.183 365.933H323.904C323.961 364.143 324.539 363.305 325.773 362.489L326.657 361.912C327.416 361.402 327.881 361.085 327.881 360.269C327.881 359.657 327.507 359.023 326.578 359.023C325.705 359.023 325.241 359.51 325.173 360.484H324.017C324.108 358.615 325.298 358.003 326.589 358.003C328.073 358.003 329.115 358.841 329.115 360.246C329.115 361.549 328.356 362.115 327.45 362.693L326.578 363.271C325.535 363.951 325.343 364.438 325.309 364.914H329.172L329.183 365.933ZM330.275 363.849H331.499C331.589 364.449 332.031 365.072 332.983 365.072C333.753 365.072 334.467 364.528 334.467 363.52C334.467 362.523 333.832 361.946 332.983 361.946C332.393 361.946 331.997 362.24 331.646 362.682L330.524 362.591L330.762 358.139H335.248V359.193H331.861L331.725 361.424H331.782C332.088 361.152 332.552 360.949 333.187 360.949C334.591 360.949 335.69 361.866 335.69 363.441C335.69 365.22 334.387 366.069 332.983 366.069C331.34 366.069 330.4 365.197 330.275 363.849ZM339.433 366.069C337.439 366.069 336.646 364.302 336.646 362.036C336.646 359.77 337.439 358.003 339.433 358.003C341.427 358.003 342.22 359.77 342.22 362.036C342.22 364.302 341.427 366.069 339.433 366.069ZM339.433 365.016C340.464 365.016 340.94 363.985 340.94 362.036C340.94 360.088 340.464 359.057 339.433 359.057C338.391 359.057 337.926 360.088 337.926 362.036C337.926 363.985 338.402 365.016 339.433 365.016ZM343.47 365.933V364.551H344.863V365.933H343.47ZM348.892 366.069C346.898 366.069 346.105 364.302 346.105 362.036C346.105 359.77 346.898 358.003 348.892 358.003C350.886 358.003 351.679 359.77 351.679 362.036C351.679 364.302 350.886 366.069 348.892 366.069ZM348.892 365.016C349.923 365.016 350.399 363.985 350.399 362.036C350.399 360.088 349.923 359.057 348.892 359.057C347.85 359.057 347.385 360.088 347.385 362.036C347.385 363.985 347.861 365.016 348.892 365.016ZM355.331 366.069C353.337 366.069 352.544 364.302 352.544 362.036C352.544 359.77 353.337 358.003 355.331 358.003C357.325 358.003 358.118 359.77 358.118 362.036C358.118 364.302 357.325 366.069 355.331 366.069ZM355.331 365.016C356.362 365.016 356.838 363.985 356.838 362.036C356.838 360.088 356.362 359.057 355.331 359.057C354.289 359.057 353.824 360.088 353.824 362.036C353.824 363.985 354.3 365.016 355.331 365.016Z" fill="#151418"/>
<path d="M160.79 382.933L158.272 376.113H159.006L161.187 382.2H161.226L163.407 376.113H164.111L161.573 382.933H160.79ZM164.296 380.515C164.296 379.018 165.248 377.987 166.527 377.987C167.746 377.987 168.608 378.829 168.608 380.287V380.564H165V380.604C165.03 381.724 165.605 382.457 166.556 382.457C167.34 382.457 167.786 382.021 167.895 381.466H168.569C168.44 382.339 167.637 383.042 166.556 383.042C165.099 383.042 164.296 382.051 164.296 380.515ZM166.527 378.572C165.763 378.572 165.188 379.147 165.04 380.059H167.924C167.855 379.057 167.33 378.572 166.527 378.572ZM170.002 382.933V378.096H170.646V378.889H170.676C170.963 378.284 171.548 377.987 172.262 377.987C173.213 377.987 174.016 378.512 174.016 379.969V382.933H173.342V380.059C173.342 378.978 172.847 378.572 172.123 378.572C171.33 378.572 170.676 379.216 170.676 380.415V382.933H170.002ZM175.727 382.933V378.096H176.372V378.889H176.401C176.689 378.284 177.274 377.987 177.938 377.987C178.612 377.987 179.187 378.274 179.455 379.018C179.782 378.274 180.406 377.987 181.12 377.987C182.032 377.987 182.765 378.512 182.765 379.91V382.933H182.091V379.999C182.091 378.968 181.695 378.572 180.981 378.572C180.238 378.572 179.583 379.206 179.583 380.425V382.933H178.909V379.999C178.909 378.968 178.473 378.572 177.799 378.572C177.056 378.572 176.401 379.216 176.401 380.415V382.933H175.727ZM184.116 380.515C184.116 378.968 185.098 377.987 186.416 377.987C187.814 377.987 188.716 378.968 188.716 380.515C188.716 382.061 187.735 383.042 186.416 383.042C185.018 383.042 184.116 382.061 184.116 380.515ZM184.82 380.515C184.82 381.694 185.474 382.457 186.416 382.457C187.338 382.457 188.012 381.694 188.012 380.515C188.012 379.295 187.368 378.572 186.416 378.572C185.494 378.572 184.82 379.335 184.82 380.515ZM192.816 379.979C192.469 379.979 192.182 379.692 192.182 379.345C192.182 378.998 192.469 378.71 192.816 378.71C193.163 378.71 193.45 378.998 193.45 379.345C193.45 379.692 193.163 379.979 192.816 379.979ZM197.399 382.933V376.113H198.102V382.933H197.399ZM199.995 382.933V378.096H200.639V378.889H200.669C200.957 378.284 201.541 377.987 202.255 377.987C203.207 377.987 204.01 378.512 204.01 379.969V382.933H203.336V380.059C203.336 378.978 202.84 378.572 202.116 378.572C201.323 378.572 200.669 379.216 200.669 380.415V382.933H199.995ZM205.354 380.515C205.354 378.978 206.326 377.987 207.594 377.987C208.774 377.987 209.478 378.681 209.626 379.751H208.952C208.824 379.038 208.387 378.572 207.594 378.572C206.722 378.572 206.058 379.355 206.058 380.515C206.058 381.674 206.692 382.457 207.594 382.457C208.387 382.457 208.824 381.992 208.952 381.278H209.626C209.478 382.348 208.774 383.042 207.594 383.042C206.207 383.042 205.354 382.051 205.354 380.515ZM210.722 380.515C210.722 378.968 211.703 377.987 213.021 377.987C214.419 377.987 215.321 378.968 215.321 380.515C215.321 382.061 214.34 383.042 213.021 383.042C211.624 383.042 210.722 382.061 210.722 380.515ZM211.425 380.515C211.425 381.694 212.08 382.457 213.021 382.457C213.943 382.457 214.617 381.694 214.617 380.515C214.617 379.295 213.973 378.572 213.021 378.572C212.1 378.572 211.425 379.335 211.425 380.515ZM216.737 382.933V378.096H217.381V378.889H217.411C217.698 378.284 218.283 377.987 218.947 377.987C219.621 377.987 220.196 378.274 220.464 379.018C220.791 378.274 221.416 377.987 222.129 377.987C223.041 377.987 223.775 378.512 223.775 379.91V382.933H223.101V379.999C223.101 378.968 222.704 378.572 221.991 378.572C221.247 378.572 220.593 379.206 220.593 380.425V382.933H219.919V379.999C219.919 378.968 219.483 378.572 218.809 378.572C218.065 378.572 217.411 379.216 217.411 380.415V382.933H216.737ZM225.126 380.515C225.126 379.018 226.077 377.987 227.356 377.987C228.575 377.987 229.438 378.829 229.438 380.287V380.564H225.83V380.604C225.859 381.724 226.434 382.457 227.386 382.457C228.169 382.457 228.615 382.021 228.724 381.466H229.398C229.269 382.339 228.466 383.042 227.386 383.042C225.929 383.042 225.126 382.051 225.126 380.515ZM227.356 378.572C226.593 378.572 226.018 379.147 225.869 380.059H228.754C228.684 379.057 228.159 378.572 227.356 378.572Z" fill="#6E7277"/>
<mask id="path-34-inside-2_3931_32050" fill="white">
<path d="M107.193 399.255H372.713V455.9H107.193V399.255Z"/>
</mask>
<path d="M107.193 399.255H372.713V455.9H107.193V399.255Z" fill="white"/>
<path d="M372.713 455.192H107.193V456.608H372.713V455.192Z" fill="#151418" fill-opacity="0.05" mask="url(#path-34-inside-2_3931_32050)"/>
<circle cx="134.099" cy="427.578" r="12.0369" stroke="#D4E0DA" stroke-width="1.41611"/>
<g clip-path="url(#clip6_3931_32050)">
<path fill-rule="evenodd" clip-rule="evenodd" d="M130.394 423.174C130.394 423.077 130.473 422.997 130.571 422.997H136.932C137.029 422.997 137.109 423.077 137.109 423.174V429.592L132.49 429.58C132.118 429.579 131.815 429.881 131.815 430.253V431.314C131.815 431.707 131.497 432.025 131.104 432.025C130.712 432.025 130.394 431.707 130.394 431.314V423.174ZM138.171 423.174V429.594L138.888 429.596C139.259 429.597 139.559 429.898 139.559 430.269V431.154C139.559 432.231 138.685 433.103 137.608 433.101L131.046 433.087L131.046 433.086C130.094 433.055 129.332 432.274 129.332 431.314V423.174C129.332 422.49 129.886 421.935 130.571 421.935H136.932C137.616 421.935 138.171 422.49 138.171 423.174ZM137.61 432.039L132.728 432.029C132.824 431.81 132.877 431.568 132.877 431.314V430.643L138.497 430.657V431.154C138.497 431.643 138.1 432.04 137.61 432.039ZM135.515 424.413H131.975V425.476H135.515V424.413Z" fill="#151418"/>
</g>
<path d="M159.125 422.578V414.783H160.779L163.396 420.844H163.43L166.013 414.783H167.644V422.578H166.364L166.466 416.641H166.421L163.883 422.578H162.897L160.36 416.743H160.314L160.405 422.578H159.125ZM169.037 419.825C169.037 418.069 170.192 416.913 171.778 416.913C173.319 416.913 174.361 417.899 174.361 419.609V420.017H170.294C170.351 421.105 170.928 421.751 171.823 421.751C172.605 421.751 172.99 421.331 173.115 420.878H174.304C174.157 421.875 173.262 422.713 171.812 422.713C170.033 422.713 169.037 421.649 169.037 419.825ZM171.778 417.876C171.053 417.876 170.521 418.375 170.351 419.202H173.115C173.024 418.295 172.56 417.876 171.778 417.876ZM175.584 422.578V417.049H176.762V417.853H176.796C177.068 417.264 177.544 416.913 178.258 416.913C178.484 416.913 178.745 416.947 179.028 417.14L178.711 418.227C178.473 418.103 178.247 418.046 178.031 418.046C177.204 418.046 176.808 418.85 176.808 419.813V422.578H175.584ZM179.303 419.813C179.303 418.035 180.459 416.913 182.056 416.913C183.62 416.913 184.424 417.785 184.571 419.043H183.37C183.268 418.363 182.872 417.899 182.056 417.899C181.195 417.899 180.572 418.669 180.572 419.813C180.572 420.958 181.195 421.728 182.056 421.728C182.872 421.728 183.268 421.263 183.37 420.584H184.571C184.424 421.841 183.62 422.713 182.056 422.713C180.368 422.713 179.303 421.626 179.303 419.813ZM185.477 419.825C185.477 418.069 186.632 416.913 188.218 416.913C189.759 416.913 190.801 417.899 190.801 419.609V420.017H186.734C186.791 421.105 187.369 421.751 188.264 421.751C189.045 421.751 189.43 421.331 189.555 420.878H190.745C190.597 421.875 189.702 422.713 188.252 422.713C186.474 422.713 185.477 421.649 185.477 419.825ZM188.218 417.876C187.493 417.876 186.961 418.375 186.791 419.202H189.555C189.464 418.295 189 417.876 188.218 417.876ZM192.024 422.578V417.049H193.203V417.853H193.237C193.508 417.264 193.984 416.913 194.698 416.913C194.925 416.913 195.185 416.947 195.468 417.14L195.151 418.227C194.913 418.103 194.687 418.046 194.471 418.046C193.644 418.046 193.248 418.85 193.248 419.813V422.578H192.024ZM198.444 420.538C198.444 419.371 199.283 418.748 200.212 418.295C199.543 417.593 199.305 417.185 199.305 416.551C199.305 415.565 200.098 414.647 201.548 414.647C202.964 414.647 203.78 415.361 203.78 416.437C203.78 417.525 202.862 418.069 201.9 418.488L203.78 420.38C203.984 419.927 204.086 419.405 204.086 418.805V418.68H205.185V418.907C205.185 419.496 205.038 420.391 204.55 421.161L205.978 422.578H204.516L203.859 421.92C203.304 422.408 202.545 422.713 201.469 422.713C199.52 422.713 198.444 421.864 198.444 420.538ZM201.469 421.762C202.183 421.762 202.715 421.558 203.123 421.207L200.88 418.975C200.212 419.304 199.679 419.711 199.679 420.425C199.679 421.297 200.461 421.762 201.469 421.762ZM200.438 416.505C200.438 416.947 200.699 417.276 201.231 417.831C202.001 417.468 202.613 417.14 202.613 416.471C202.613 415.939 202.239 415.531 201.548 415.531C200.789 415.531 200.438 415.973 200.438 416.505ZM209.2 420.266H210.469C210.469 421.173 211.149 421.717 212.282 421.717C213.471 421.717 214.14 421.229 214.14 420.402C214.14 419.643 213.403 419.417 212.474 419.236L211.965 419.145C210.696 418.93 209.336 418.578 209.336 416.958C209.336 415.633 210.481 414.647 212.293 414.647C214.049 414.647 215.216 415.497 215.216 416.97H213.959C213.959 416.075 213.245 415.644 212.293 415.644C211.342 415.644 210.605 416.052 210.605 416.834C210.605 417.627 211.41 417.831 212.418 418.012L212.928 418.103C214.162 418.318 215.454 418.714 215.454 420.3C215.454 421.739 214.31 422.713 212.282 422.713C210.288 422.713 209.2 421.796 209.2 420.266ZM218.107 423.608V425.07H216.884V417.049H218.062V417.876H218.107C218.458 417.196 219.127 416.913 219.942 416.913C221.336 416.913 222.412 417.921 222.412 419.768C222.412 421.603 221.268 422.713 219.852 422.713C219.048 422.713 218.458 422.43 218.107 421.751H218.062C218.107 422.476 218.107 423.235 218.107 423.608ZM221.132 419.768C221.132 418.544 220.498 417.899 219.625 417.899C218.776 417.899 218.141 418.578 218.107 419.723V419.813C218.107 421.025 218.753 421.728 219.625 421.728C220.498 421.728 221.132 420.992 221.132 419.768ZM223.677 422.578V417.049H224.855V417.853H224.889C225.161 417.264 225.636 416.913 226.35 416.913C226.577 416.913 226.837 416.947 227.121 417.14L226.803 418.227C226.565 418.103 226.339 418.046 226.124 418.046C225.297 418.046 224.9 418.85 224.9 419.813V422.578H223.677ZM227.902 415.531V414.285H229.216V415.531H227.902ZM227.947 422.578V417.049H229.171V422.578H227.947ZM230.835 422.578V417.049H232.013V417.853H232.058C232.375 417.23 232.942 416.913 233.769 416.913C234.868 416.913 235.842 417.502 235.842 419.224V422.578H234.618V419.383C234.618 418.284 234.165 417.91 233.44 417.91C232.659 417.91 232.058 418.567 232.058 419.689V422.578H230.835ZM237.179 423.223H238.335C238.346 423.869 238.924 424.243 239.74 424.243C240.714 424.243 241.382 423.744 241.382 422.283V421.751H241.337C240.986 422.43 240.317 422.713 239.502 422.713C238.108 422.713 237.032 421.705 237.032 419.859C237.032 418.023 238.176 416.913 239.592 416.913C240.397 416.913 240.986 417.196 241.337 417.876H241.382V417.049H242.549V422.283C242.549 424.368 241.348 425.161 239.728 425.161C238.244 425.161 237.213 424.526 237.179 423.223ZM238.301 419.859C238.301 421.082 238.947 421.728 239.808 421.728C240.657 421.728 241.326 421.025 241.326 419.825C241.326 418.601 240.68 417.899 239.808 417.899C238.947 417.899 238.301 418.646 238.301 419.859Z" fill="#151418"/>
<path d="M301.647 420.198V419.202H303.697V417.14H304.739V419.202H306.79V420.198H304.739V422.249H303.697V420.198H301.647ZM307.87 420.38H309.094C309.15 421.275 309.751 421.762 310.612 421.762C311.507 421.762 312.084 421.309 312.084 420.493C312.084 419.779 311.586 419.519 310.782 419.281L309.819 418.986C309.037 418.748 308.051 418.171 308.051 416.845C308.051 415.712 308.856 414.874 310.068 414.693V413.469H311.156V414.693C312.266 414.874 313.07 415.633 313.161 416.777H311.949C311.847 415.961 311.303 415.61 310.612 415.61C309.909 415.61 309.309 415.961 309.309 416.721C309.309 417.434 309.705 417.649 310.521 417.921L311.484 418.216C312.708 418.59 313.353 419.236 313.353 420.38C313.353 421.649 312.47 422.498 311.156 422.68V423.937H310.068V422.68C308.742 422.498 307.915 421.683 307.87 420.38ZM314.354 420.221H315.555C315.555 421.263 316.19 421.717 317.051 421.717C317.957 421.717 318.546 421.252 318.546 420.38C318.546 419.519 317.878 419.054 317.028 419.054H316.45V418.046H317.039C317.753 418.046 318.319 417.57 318.319 416.8C318.319 416.041 317.764 415.633 317.039 415.633C316.326 415.633 315.759 416.063 315.759 416.936H314.649C314.649 415.52 315.646 414.647 317.051 414.647C318.501 414.647 319.486 415.486 319.486 416.755C319.486 417.604 318.988 418.25 318.365 418.488C319.18 418.726 319.792 419.405 319.792 420.482C319.792 421.898 318.648 422.713 317.051 422.713C315.442 422.713 314.354 421.943 314.354 420.221ZM321.722 422.578H321.133V421.195H322.526V422.487L321.994 424.311H321.348L321.722 422.578ZM323.836 420.493H325.06C325.15 421.093 325.592 421.717 326.544 421.717C327.314 421.717 328.028 421.173 328.028 420.164C328.028 419.168 327.393 418.59 326.544 418.59C325.955 418.59 325.558 418.884 325.207 419.326L324.085 419.236L324.323 414.783H328.809V415.837H325.422L325.286 418.069H325.343C325.649 417.797 326.113 417.593 326.748 417.593C328.152 417.593 329.251 418.51 329.251 420.085C329.251 421.864 327.948 422.713 326.544 422.713C324.901 422.713 323.961 421.841 323.836 420.493ZM332.994 422.713C331 422.713 330.207 420.946 330.207 418.68C330.207 416.415 331 414.647 332.994 414.647C334.988 414.647 335.781 416.415 335.781 418.68C335.781 420.946 334.988 422.713 332.994 422.713ZM332.994 421.66C334.025 421.66 334.501 420.629 334.501 418.68C334.501 416.732 334.025 415.701 332.994 415.701C331.952 415.701 331.487 416.732 331.487 418.68C331.487 420.629 331.963 421.66 332.994 421.66ZM339.433 422.713C337.439 422.713 336.646 420.946 336.646 418.68C336.646 416.415 337.439 414.647 339.433 414.647C341.427 414.647 342.22 416.415 342.22 418.68C342.22 420.946 341.427 422.713 339.433 422.713ZM339.433 421.66C340.464 421.66 340.94 420.629 340.94 418.68C340.94 416.732 340.464 415.701 339.433 415.701C338.391 415.701 337.926 416.732 337.926 418.68C337.926 420.629 338.402 421.66 339.433 421.66ZM343.47 422.578V421.195H344.863V422.578H343.47ZM348.892 422.713C346.898 422.713 346.105 420.946 346.105 418.68C346.105 416.415 346.898 414.647 348.892 414.647C350.886 414.647 351.679 416.415 351.679 418.68C351.679 420.946 350.886 422.713 348.892 422.713ZM348.892 421.66C349.923 421.66 350.399 420.629 350.399 418.68C350.399 416.732 349.923 415.701 348.892 415.701C347.85 415.701 347.385 416.732 347.385 418.68C347.385 420.629 347.861 421.66 348.892 421.66ZM355.331 422.713C353.337 422.713 352.544 420.946 352.544 418.68C352.544 416.415 353.337 414.647 355.331 414.647C357.325 414.647 358.118 416.415 358.118 418.68C358.118 420.946 357.325 422.713 355.331 422.713ZM355.331 421.66C356.362 421.66 356.838 420.629 356.838 418.68C356.838 416.732 356.362 415.701 355.331 415.701C354.289 415.701 353.824 416.732 353.824 418.68C353.824 420.629 354.3 421.66 355.331 421.66Z" fill="#151418"/>
<path d="M159.075 439.578V432.758H159.779V439.578H159.075ZM161.672 439.578V434.74H162.316V435.533H162.346C162.633 434.928 163.218 434.631 163.932 434.631C164.884 434.631 165.687 435.156 165.687 436.614V439.578H165.012V436.703C165.012 435.622 164.517 435.216 163.793 435.216C163 435.216 162.346 435.86 162.346 437.06V439.578H161.672ZM168.421 439.578L166.568 434.74H167.301L168.788 438.844H168.818L170.295 434.74H170.969L169.155 439.578H168.421ZM171.595 437.159C171.595 435.612 172.576 434.631 173.895 434.631C175.292 434.631 176.194 435.612 176.194 437.159C176.194 438.705 175.213 439.687 173.895 439.687C172.497 439.687 171.595 438.705 171.595 437.159ZM172.299 437.159C172.299 438.338 172.953 439.102 173.895 439.102C174.817 439.102 175.491 438.338 175.491 437.159C175.491 435.94 174.846 435.216 173.895 435.216C172.973 435.216 172.299 435.979 172.299 437.159ZM177.58 433.273V432.321H178.314V433.273H177.58ZM177.61 439.578V434.74H178.284V439.578H177.61ZM179.697 437.159C179.697 435.622 180.669 434.631 181.937 434.631C183.117 434.631 183.821 435.325 183.969 436.396H183.295C183.167 435.682 182.73 435.216 181.937 435.216C181.065 435.216 180.401 435.999 180.401 437.159C180.401 438.319 181.035 439.102 181.937 439.102C182.73 439.102 183.167 438.636 183.295 437.922H183.969C183.821 438.993 183.117 439.687 181.937 439.687C180.55 439.687 179.697 438.695 179.697 437.159ZM185.065 437.159C185.065 435.662 186.016 434.631 187.295 434.631C188.514 434.631 189.377 435.474 189.377 436.931V437.208H185.768V437.248C185.798 438.368 186.373 439.102 187.325 439.102C188.108 439.102 188.554 438.666 188.663 438.11H189.337C189.208 438.983 188.405 439.687 187.325 439.687C185.868 439.687 185.065 438.695 185.065 437.159ZM187.295 435.216C186.532 435.216 185.957 435.791 185.808 436.703H188.693C188.623 435.702 188.098 435.216 187.295 435.216ZM193.455 436.624C193.108 436.624 192.82 436.336 192.82 435.989C192.82 435.642 193.108 435.355 193.455 435.355C193.802 435.355 194.089 435.642 194.089 435.989C194.089 436.336 193.802 436.624 193.455 436.624ZM198.037 439.578V432.758H198.741V439.578H198.037ZM200.634 439.578V434.74H201.278V435.533H201.308C201.595 434.928 202.18 434.631 202.894 434.631C203.845 434.631 204.648 435.156 204.648 436.614V439.578H203.974V436.703C203.974 435.622 203.479 435.216 202.755 435.216C201.962 435.216 201.308 435.86 201.308 437.06V439.578H200.634ZM205.993 437.159C205.993 435.622 206.964 434.631 208.233 434.631C209.412 434.631 210.116 435.325 210.265 436.396H209.591C209.462 435.682 209.026 435.216 208.233 435.216C207.361 435.216 206.696 435.999 206.696 437.159C206.696 438.319 207.331 439.102 208.233 439.102C209.026 439.102 209.462 438.636 209.591 437.922H210.265C210.116 438.993 209.412 439.687 208.233 439.687C206.845 439.687 205.993 438.695 205.993 437.159ZM211.36 437.159C211.36 435.612 212.342 434.631 213.66 434.631C215.058 434.631 215.96 435.612 215.96 437.159C215.96 438.705 214.978 439.687 213.66 439.687C212.262 439.687 211.36 438.705 211.36 437.159ZM212.064 437.159C212.064 438.338 212.718 439.102 213.66 439.102C214.582 439.102 215.256 438.338 215.256 437.159C215.256 435.94 214.612 435.216 213.66 435.216C212.738 435.216 212.064 435.979 212.064 437.159ZM217.375 439.578V434.74H218.02V435.533H218.049C218.337 434.928 218.922 434.631 219.586 434.631C220.26 434.631 220.835 434.919 221.102 435.662C221.43 434.919 222.054 434.631 222.768 434.631C223.68 434.631 224.413 435.156 224.413 436.554V439.578H223.739V436.643C223.739 435.612 223.343 435.216 222.629 435.216C221.886 435.216 221.231 435.85 221.231 437.07V439.578H220.557V436.643C220.557 435.612 220.121 435.216 219.447 435.216C218.704 435.216 218.049 435.86 218.049 437.06V439.578H217.375ZM225.764 437.159C225.764 435.662 226.716 434.631 227.995 434.631C229.214 434.631 230.076 435.474 230.076 436.931V437.208H226.468V437.248C226.498 438.368 227.073 439.102 228.024 439.102C228.807 439.102 229.254 438.666 229.363 438.11H230.037C229.908 438.983 229.105 439.687 228.024 439.687C226.567 439.687 225.764 438.695 225.764 437.159ZM227.995 435.216C227.231 435.216 226.656 435.791 226.508 436.703H229.392C229.323 435.702 228.798 435.216 227.995 435.216Z" fill="#6E7277"/>
</g>
<rect x="106.246" y="15.3229" width="267.374" height="550.546" rx="32.9271" stroke="#E1E2E5" stroke-width="1.8541"/>
<rect opacity="0.2" x="107.301" y="427.25" width="265.264" height="28" fill="url(#paint0_linear_3931_32050)"/>
</g>
<g filter="url(#filter3_dddd_3931_32050)">
<rect x="65.0903" y="226.823" width="350.188" height="81.4391" rx="14.5912" fill="#EFF2F0"/>
<g filter="url(#filter4_i_3931_32050)">
<path d="M65.0903 241.414C65.0903 233.356 71.623 226.823 79.6815 226.823H239.675V308.262H79.6815C71.623 308.262 65.0903 301.73 65.0903 293.671V241.414Z" fill="white"/>
<path d="M88.9218 261.543V250.878H92.9209C95.277 250.878 96.5015 252.01 96.5015 253.947C96.5015 255.575 95.649 256.738 93.9904 257.094L96.8115 261.543H95.618L92.8124 257.187H90.0223V261.543H88.9218ZM92.9674 251.839H90.0223V256.226H92.9674C94.5794 256.226 95.401 255.25 95.401 253.947C95.401 252.645 94.5639 251.839 92.9674 251.839ZM97.8655 257.761C97.8655 255.343 99.4001 253.808 101.462 253.808C103.647 253.808 105.058 255.343 105.058 257.761C105.058 260.179 103.523 261.713 101.462 261.713C99.2761 261.713 97.8655 260.179 97.8655 257.761ZM98.9661 257.761C98.9661 259.605 99.9891 260.799 101.462 260.799C102.903 260.799 103.957 259.605 103.957 257.761C103.957 255.854 102.95 254.722 101.462 254.722C100.02 254.722 98.9661 255.916 98.9661 257.761ZM106.837 258.613V253.978H107.891V258.474C107.891 260.163 108.666 260.799 109.782 260.799C111.022 260.799 111.999 259.807 111.999 257.9V253.978H113.053V261.543H112.045V260.303H111.999C111.518 261.279 110.635 261.713 109.565 261.713C108.077 261.713 106.837 260.892 106.837 258.613ZM115.715 259.373V254.831H114.227V253.978H115.715V251.684H116.769V253.978H118.83V254.831H116.769V259.326C116.769 260.303 117.125 260.628 117.978 260.628H118.83V261.543H117.838C116.412 261.543 115.715 260.861 115.715 259.373ZM120.402 251.684V250.196H121.549V251.684H120.402ZM120.448 261.543V253.978H121.503V261.543H120.448ZM123.975 261.543V253.978H124.983V255.219H125.029C125.479 254.273 126.393 253.808 127.51 253.808C128.998 253.808 130.253 254.629 130.253 256.908V261.543H129.199V257.048C129.199 255.358 128.424 254.722 127.293 254.722C126.052 254.722 125.029 255.73 125.029 257.606V261.543H123.975ZM132.231 262.473H133.239C133.239 263.573 134.169 264.209 135.486 264.209C136.912 264.209 138.059 263.449 138.059 261.217V260.194H138.013C137.517 261.248 136.525 261.713 135.347 261.713C133.487 261.713 132.045 260.256 132.045 257.823C132.045 255.389 133.564 253.808 135.44 253.808C136.618 253.808 137.532 254.288 138.013 255.327H138.059V253.978H139.067V261.217C139.067 264.069 137.47 265.077 135.486 265.077C133.626 265.077 132.231 264.162 132.231 262.473ZM133.146 257.823C133.146 259.745 134.215 260.799 135.579 260.799C136.912 260.799 137.935 259.745 138.013 257.9V257.621C137.935 255.792 136.912 254.722 135.579 254.722C134.215 254.722 133.146 255.916 133.146 257.823ZM144.895 261.543V253.978H145.903V255.219H145.949C146.399 254.273 147.313 253.808 148.429 253.808C149.917 253.808 151.173 254.629 151.173 256.908V261.543H150.119V257.048C150.119 255.358 149.344 254.722 148.212 254.722C146.972 254.722 145.949 255.73 145.949 257.606V261.543H144.895ZM153.414 258.613V253.978H154.468V258.474C154.468 260.163 155.243 260.799 156.359 260.799C157.599 260.799 158.576 259.807 158.576 257.9V253.978H159.63V261.543H158.622V260.303H158.576C158.095 261.279 157.212 261.713 156.142 261.713C154.654 261.713 153.414 260.892 153.414 258.613ZM162.106 261.543V253.978H163.113V255.219H163.16C163.609 254.273 164.524 253.808 165.563 253.808C166.617 253.808 167.516 254.257 167.934 255.42C168.446 254.257 169.422 253.808 170.538 253.808C171.964 253.808 173.111 254.629 173.111 256.815V261.543H172.057V256.955C172.057 255.343 171.437 254.722 170.321 254.722C169.159 254.722 168.136 255.715 168.136 257.621V261.543H167.082V256.955C167.082 255.343 166.4 254.722 165.346 254.722C164.183 254.722 163.16 255.73 163.16 257.606V261.543H162.106ZM175.487 261.543V250.196H176.541V252.506C176.541 252.878 176.541 254.598 176.495 255.327H176.541C177.022 254.273 178.029 253.808 179.207 253.808C181.067 253.808 182.509 255.265 182.509 257.699C182.509 260.132 180.99 261.713 179.114 261.713C177.936 261.713 177.022 261.248 176.541 260.194H176.495V261.543H175.487ZM176.541 257.621V257.761C176.541 259.683 177.611 260.799 178.975 260.799C180.339 260.799 181.408 259.605 181.408 257.699C181.408 255.777 180.323 254.722 178.975 254.722C177.642 254.722 176.588 255.792 176.541 257.621ZM183.966 257.761C183.966 255.42 185.454 253.808 187.453 253.808C189.36 253.808 190.708 255.126 190.708 257.404V257.838H185.066V257.9C185.113 259.652 186.012 260.799 187.5 260.799C188.724 260.799 189.422 260.117 189.592 259.249H190.646C190.445 260.613 189.189 261.713 187.5 261.713C185.221 261.713 183.966 260.163 183.966 257.761ZM187.453 254.722C186.26 254.722 185.361 255.622 185.128 257.048H189.639C189.53 255.482 188.709 254.722 187.453 254.722ZM192.577 261.543V253.978H193.585V255.219H193.631C193.988 254.35 194.685 253.808 195.662 253.808C195.987 253.808 196.359 253.854 196.731 254.118L196.39 255.064C196.034 254.878 195.739 254.815 195.445 254.815C194.251 254.815 193.631 256.102 193.631 257.544V261.543H192.577Z" fill="#6E7277"/>
<path d="M91.7562 283.722C89.1255 283.722 88.0792 281.39 88.0792 278.401C88.0792 275.411 89.1255 273.08 91.7562 273.08C94.387 273.08 95.4333 275.411 95.4333 278.401C95.4333 281.39 94.387 283.722 91.7562 283.722ZM91.7562 282.332C93.1164 282.332 93.7442 280.972 93.7442 278.401C93.7442 275.83 93.1164 274.47 91.7562 274.47C90.3811 274.47 89.7683 275.83 89.7683 278.401C89.7683 280.972 90.396 282.332 91.7562 282.332ZM96.6344 280.434H98.2188C98.2188 281.809 99.0559 282.407 100.192 282.407C101.388 282.407 102.165 281.794 102.165 280.643C102.165 279.507 101.283 278.894 100.162 278.894H99.3997V277.564H100.177C101.119 277.564 101.866 276.936 101.866 275.92C101.866 274.918 101.134 274.38 100.177 274.38C99.2352 274.38 98.4879 274.948 98.4879 276.099H97.023C97.023 274.231 98.3384 273.08 100.192 273.08C102.105 273.08 103.406 274.186 103.406 275.86C103.406 276.981 102.748 277.833 101.926 278.147C103.002 278.461 103.809 279.357 103.809 280.777C103.809 282.646 102.299 283.722 100.192 283.722C98.0693 283.722 96.6344 282.706 96.6344 280.434ZM106.042 276.772L105.339 275.576L108.717 273.259H109.853V282.197H112.245V283.543H105.683V282.197H108.239V275.262L106.042 276.772ZM123.995 283.543H117.029C117.104 281.181 117.866 280.075 119.495 278.999L120.661 278.236C121.663 277.564 122.276 277.145 122.276 276.069C122.276 275.262 121.782 274.425 120.557 274.425C119.406 274.425 118.793 275.068 118.703 276.353H117.179C117.298 273.887 118.868 273.08 120.572 273.08C122.53 273.08 123.905 274.186 123.905 276.039C123.905 277.758 122.903 278.505 121.708 279.268L120.557 280.03C119.181 280.927 118.927 281.57 118.883 282.197H123.98L123.995 283.543ZM126.317 276.772L125.614 275.576L128.992 273.259H130.128V282.197H132.52V283.543H125.958V282.197H128.514V275.262L126.317 276.772ZM133.93 280.792H135.545C135.664 281.585 136.247 282.407 137.503 282.407C138.519 282.407 139.461 281.689 139.461 280.359C139.461 279.044 138.624 278.281 137.503 278.281C136.725 278.281 136.202 278.67 135.739 279.253L134.259 279.133L134.573 273.259H140.492V274.649H136.023L135.843 277.594H135.918C136.322 277.235 136.935 276.966 137.772 276.966C139.625 276.966 141.075 278.177 141.075 280.254C141.075 282.601 139.356 283.722 137.503 283.722C135.335 283.722 134.095 282.571 133.93 280.792ZM145.71 280.792H147.324C147.444 281.585 148.027 282.407 149.282 282.407C150.299 282.407 151.24 281.689 151.24 280.359C151.24 279.044 150.403 278.281 149.282 278.281C148.505 278.281 147.982 278.67 147.519 279.253L146.039 279.133L146.353 273.259H152.272V274.649H147.803L147.623 277.594H147.698C148.101 277.235 148.714 276.966 149.551 276.966C151.405 276.966 152.855 278.177 152.855 280.254C152.855 282.601 151.136 283.722 149.282 283.722C147.115 283.722 145.874 282.571 145.71 280.792ZM154.19 278.64C154.19 274.5 155.969 273.08 158.121 273.08C160.289 273.08 161.186 274.216 161.305 275.89H159.721C159.646 275.023 159.272 274.395 158.121 274.395C156.911 274.395 155.954 275.352 155.879 278.147V278.177C156.283 277.414 157.314 276.966 158.316 276.966C160.124 276.966 161.544 278.192 161.544 280.299C161.544 282.511 159.855 283.722 158.017 283.722C155.924 283.722 154.19 282.422 154.19 278.64ZM158.062 278.281C156.911 278.281 156.059 279.148 156.059 280.329V280.344C156.059 281.555 156.851 282.407 157.972 282.407C159.063 282.407 159.93 281.674 159.93 280.314C159.93 279.073 159.078 278.281 158.062 278.281ZM162.671 280.434H164.255C164.255 281.809 165.092 282.407 166.228 282.407C167.424 282.407 168.201 281.794 168.201 280.643C168.201 279.507 167.319 278.894 166.198 278.894H165.436V277.564H166.213C167.155 277.564 167.902 276.936 167.902 275.92C167.902 274.918 167.17 274.38 166.213 274.38C165.272 274.38 164.524 274.948 164.524 276.099H163.059C163.059 274.231 164.375 273.08 166.228 273.08C168.142 273.08 169.442 274.186 169.442 275.86C169.442 276.981 168.784 277.833 167.962 278.147C169.038 278.461 169.845 279.357 169.845 280.777C169.845 282.646 168.336 283.722 166.228 283.722C164.106 283.722 162.671 282.706 162.671 280.434Z" fill="#151418"/>
</g>
<g filter="url(#filter5_i_3931_32050)">
<path d="M239.675 226.823H400.687C408.746 226.823 415.278 233.356 415.278 241.414V293.671C415.278 301.73 408.746 308.262 400.687 308.262H239.675V226.823Z" fill="white"/>
<g clip-path="url(#clip7_3931_32050)">
<path d="M262.329 261.543L266.343 250.878H267.63L271.644 261.543H270.497L269.366 258.474H264.561L263.429 261.543H262.329ZM264.902 257.528H269.009L266.994 252.025H266.932L264.902 257.528ZM272.738 257.761C272.738 255.358 274.257 253.808 276.241 253.808C278.086 253.808 279.186 254.893 279.419 256.567H278.365C278.163 255.451 277.481 254.723 276.241 254.723C274.877 254.723 273.839 255.947 273.839 257.761C273.839 259.574 274.831 260.799 276.241 260.799C277.481 260.799 278.163 260.07 278.365 258.954H279.419C279.186 260.628 278.086 261.713 276.241 261.713C274.071 261.713 272.738 260.163 272.738 257.761ZM280.821 257.761C280.821 255.358 282.34 253.808 284.324 253.808C286.169 253.808 287.27 254.893 287.502 256.567H286.448C286.246 255.451 285.564 254.723 284.324 254.723C282.96 254.723 281.922 255.947 281.922 257.761C281.922 259.574 282.914 260.799 284.324 260.799C285.564 260.799 286.246 260.07 286.448 258.954H287.502C287.27 260.628 286.169 261.713 284.324 261.713C282.154 261.713 280.821 260.163 280.821 257.761ZM288.905 257.761C288.905 255.343 290.439 253.808 292.501 253.808C294.686 253.808 296.097 255.343 296.097 257.761C296.097 260.179 294.562 261.713 292.501 261.713C290.315 261.713 288.905 260.179 288.905 257.761ZM290.005 257.761C290.005 259.605 291.028 260.799 292.501 260.799C293.942 260.799 294.996 259.605 294.996 257.761C294.996 255.854 293.989 254.723 292.501 254.723C291.059 254.723 290.005 255.916 290.005 257.761ZM297.876 258.613V253.979H298.93V258.474C298.93 260.163 299.705 260.799 300.821 260.799C302.061 260.799 303.038 259.807 303.038 257.9V253.979H304.092V261.543H303.084V260.303H303.038C302.557 261.279 301.674 261.713 300.604 261.713C299.116 261.713 297.876 260.892 297.876 258.613ZM306.568 261.543V253.979H307.575V255.219H307.622C308.071 254.273 308.986 253.808 310.102 253.808C311.59 253.808 312.846 254.63 312.846 256.908V261.543H311.792V257.048C311.792 255.358 311.017 254.723 309.885 254.723C308.645 254.723 307.622 255.73 307.622 257.606V261.543H306.568ZM315.306 259.373V254.831H313.818V253.979H315.306V251.684H316.36V253.979H318.422V254.831H316.36V259.326C316.36 260.303 316.717 260.628 317.57 260.628H318.422V261.543H317.43C316.004 261.543 315.306 260.861 315.306 259.373ZM323.385 261.543V253.979H324.393V255.219H324.439C324.889 254.273 325.803 253.808 326.919 253.808C328.407 253.808 329.663 254.63 329.663 256.908V261.543H328.609V257.048C328.609 255.358 327.834 254.723 326.702 254.723C325.462 254.723 324.439 255.73 324.439 257.606V261.543H323.385ZM331.905 258.613V253.979H332.959V258.474C332.959 260.163 333.734 260.799 334.85 260.799C336.09 260.799 337.066 259.807 337.066 257.9V253.979H338.12V261.543H337.113V260.303H337.066C336.586 261.279 335.702 261.713 334.633 261.713C333.145 261.713 331.905 260.892 331.905 258.613ZM340.596 261.543V253.979H341.604V255.219H341.65C342.1 254.273 343.014 253.808 344.053 253.808C345.107 253.808 346.006 254.258 346.424 255.42C346.936 254.258 347.912 253.808 349.029 253.808C350.455 253.808 351.602 254.63 351.602 256.815V261.543H350.548V256.955C350.548 255.343 349.928 254.723 348.812 254.723C347.649 254.723 346.626 255.715 346.626 257.621V261.543H345.572V256.955C345.572 255.343 344.89 254.723 343.836 254.723C342.673 254.723 341.65 255.73 341.65 257.606V261.543H340.596ZM353.978 261.543V250.196H355.032V252.506C355.032 252.878 355.032 254.599 354.985 255.327H355.032C355.512 254.273 356.52 253.808 357.698 253.808C359.558 253.808 360.999 255.265 360.999 257.699C360.999 260.132 359.48 261.713 357.605 261.713C356.427 261.713 355.512 261.248 355.032 260.194H354.985V261.543H353.978ZM355.032 257.621V257.761C355.032 259.683 356.101 260.799 357.465 260.799C358.829 260.799 359.899 259.605 359.899 257.699C359.899 255.777 358.814 254.723 357.465 254.723C356.132 254.723 355.078 255.792 355.032 257.621ZM362.456 257.761C362.456 255.42 363.944 253.808 365.944 253.808C367.85 253.808 369.199 255.126 369.199 257.404V257.838H363.557V257.9C363.603 259.652 364.502 260.799 365.99 260.799C367.215 260.799 367.912 260.117 368.083 259.249H369.137C368.935 260.613 367.68 261.713 365.99 261.713C363.712 261.713 362.456 260.163 362.456 257.761ZM365.944 254.723C364.75 254.723 363.851 255.622 363.619 257.048H368.129C368.021 255.482 367.199 254.723 365.944 254.723ZM371.067 261.543V253.979H372.075V255.219H372.121C372.478 254.351 373.175 253.808 374.152 253.808C374.477 253.808 374.849 253.855 375.221 254.118L374.88 255.064C374.524 254.878 374.229 254.816 373.935 254.816C372.741 254.816 372.121 256.102 372.121 257.544V261.543H371.067Z" fill="#6E7277"/>
<path d="M265.743 280.912C264.293 280.912 263.172 279.791 263.172 278.341C263.172 276.891 264.293 275.77 265.743 275.77C267.193 275.77 268.314 276.891 268.314 278.341C268.314 279.791 267.193 280.912 265.743 280.912ZM273.042 280.912C271.592 280.912 270.471 279.791 270.471 278.341C270.471 276.891 271.592 275.77 273.042 275.77C274.492 275.77 275.613 276.891 275.613 278.341C275.613 279.791 274.492 280.912 273.042 280.912ZM280.34 280.912C278.89 280.912 277.769 279.791 277.769 278.341C277.769 276.891 278.89 275.77 280.34 275.77C281.79 275.77 282.911 276.891 282.911 278.341C282.911 279.791 281.79 280.912 280.34 280.912ZM287.639 280.912C286.189 280.912 285.068 279.791 285.068 278.341C285.068 276.891 286.189 275.77 287.639 275.77C289.089 275.77 290.21 276.891 290.21 278.341C290.21 279.791 289.089 280.912 287.639 280.912ZM298.221 280.912C296.772 280.912 295.651 279.791 295.651 278.341C295.651 276.891 296.772 275.77 298.221 275.77C299.671 275.77 300.792 276.891 300.792 278.341C300.792 279.791 299.671 280.912 298.221 280.912ZM305.52 280.912C304.07 280.912 302.949 279.791 302.949 278.341C302.949 276.891 304.07 275.77 305.52 275.77C306.97 275.77 308.091 276.891 308.091 278.341C308.091 279.791 306.97 280.912 305.52 280.912ZM312.818 280.912C311.368 280.912 310.247 279.791 310.247 278.341C310.247 276.891 311.368 275.77 312.818 275.77C314.268 275.77 315.389 276.891 315.389 278.341C315.389 279.791 314.268 280.912 312.818 280.912ZM320.117 280.912C318.667 280.912 317.546 279.791 317.546 278.341C317.546 276.891 318.667 275.77 320.117 275.77C321.567 275.77 322.688 276.891 322.688 278.341C322.688 279.791 321.567 280.912 320.117 280.912ZM327.471 281.136V280.045L332.374 273.259H333.719V279.791H335.124V281.136H333.719V283.543H332.105V281.136H327.471ZM329.085 279.791H332.105V275.681L329.085 279.791ZM337.087 276.772L336.385 275.576L339.763 273.259H340.899V282.198H343.29V283.543H336.729V282.198H339.285V275.262L337.087 276.772ZM344.671 280.434H346.255C346.255 281.809 347.092 282.407 348.228 282.407C349.424 282.407 350.201 281.794 350.201 280.643C350.201 279.507 349.32 278.894 348.199 278.894H347.436V277.564H348.214C349.155 277.564 349.903 276.936 349.903 275.92C349.903 274.918 349.17 274.38 348.214 274.38C347.272 274.38 346.524 274.948 346.524 276.099H345.06C345.06 274.231 346.375 273.08 348.228 273.08C350.142 273.08 351.442 274.186 351.442 275.86C351.442 276.981 350.784 277.833 349.962 278.147C351.039 278.461 351.846 279.358 351.846 280.778C351.846 282.646 350.336 283.722 348.228 283.722C346.106 283.722 344.671 282.706 344.671 280.434ZM354.497 283.543L358.682 274.694H353.256V273.259H360.431V274.32L356.171 283.543H354.497Z" fill="#151418"/>
</g>
</g>
</g>
</g>
<defs>
<filter id="filter0_ddddddd_3931_32050" x="4.31885" y="-4.6041" width="471.228" height="925.4" filterUnits="userSpaceOnUse" color-interpolation-filters="sRGB">
<feFlood flood-opacity="0" result="BackgroundImageFix"/>
<feColorMatrix in="SourceAlpha" type="matrix" values="0 0 0 0 0 0 0 0 0 0 0 0 0 0 0 0 0 0 127 0" result="hardAlpha"/>
<feOffset dy="16"/>
<feGaussianBlur stdDeviation="17.5"/>
<feColorMatrix type="matrix" values="0 0 0 0 0 0 0 0 0 0 0 0 0 0 0 0 0 0 0.04 0"/>
<feBlend mode="normal" in2="BackgroundImageFix" result="effect1_dropShadow_3931_32050"/>
<feColorMatrix in="SourceAlpha" type="matrix" values="0 0 0 0 0 0 0 0 0 0 0 0 0 0 0 0 0 0 127 0" result="hardAlpha"/>
<feOffset dy="63"/>
<feGaussianBlur stdDeviation="31.5"/>
<feColorMatrix type="matrix" values="0 0 0 0 0 0 0 0 0 0 0 0 0 0 0 0 0 0 0.03 0"/>
<feBlend mode="normal" in2="effect1_dropShadow_3931_32050" result="effect2_dropShadow_3931_32050"/>
<feColorMatrix in="SourceAlpha" type="matrix" values="0 0 0 0 0 0 0 0 0 0 0 0 0 0 0 0 0 0 127 0" result="hardAlpha"/>
<feOffset dy="142"/>
<feGaussianBlur stdDeviation="42.5"/>
<feColorMatrix type="matrix" values="0 0 0 0 0 0 0 0 0 0 0 0 0 0 0 0 0 0 0.02 0"/>
<feBlend mode="normal" in2="effect2_dropShadow_3931_32050" result="effect3_dropShadow_3931_32050"/>
<feColorMatrix in="SourceAlpha" type="matrix" values="0 0 0 0 0 0 0 0 0 0 0 0 0 0 0 0 0 0 127 0" result="hardAlpha"/>
<feOffset dy="253"/>
<feGaussianBlur stdDeviation="50.5"/>
<feColorMatrix type="matrix" values="0 0 0 0 0 0 0 0 0 0 0 0 0 0 0 0 0 0 0.01 0"/>
<feBlend mode="normal" in2="effect3_dropShadow_3931_32050" result="effect4_dropShadow_3931_32050"/>
<feColorMatrix in="SourceAlpha" type="matrix" values="0 0 0 0 0 0 0 0 0 0 0 0 0 0 0 0 0 0 127 0" result="hardAlpha"/>
<feOffset dy="16"/>
<feGaussianBlur stdDeviation="17.5"/>
<feColorMatrix type="matrix" values="0 0 0 0 0 0 0 0 0 0 0 0 0 0 0 0 0 0 0.15 0"/>
<feBlend mode="normal" in2="effect4_dropShadow_3931_32050" result="effect5_dropShadow_3931_32050"/>
<feColorMatrix in="SourceAlpha" type="matrix" values="0 0 0 0 0 0 0 0 0 0 0 0 0 0 0 0 0 0 127 0" result="hardAlpha"/>
<feOffset dy="63"/>
<feGaussianBlur stdDeviation="31.5"/>
<feColorMatrix type="matrix" values="0 0 0 0 0 0 0 0 0 0 0 0 0 0 0 0 0 0 0.13 0"/>
<feBlend mode="normal" in2="effect5_dropShadow_3931_32050" result="effect6_dropShadow_3931_32050"/>
<feColorMatrix in="SourceAlpha" type="matrix" values="0 0 0 0 0 0 0 0 0 0 0 0 0 0 0 0 0 0 127 0" result="hardAlpha"/>
<feOffset dy="142"/>
<feGaussianBlur stdDeviation="42.5"/>
<feColorMatrix type="matrix" values="0 0 0 0 0 0 0 0 0 0 0 0 0 0 0 0 0 0 0.08 0"/>
<feBlend mode="normal" in2="effect6_dropShadow_3931_32050" result="effect7_dropShadow_3931_32050"/>
<feBlend mode="normal" in="SourceGraphic" in2="effect7_dropShadow_3931_32050" result="shape"/>
</filter>
<filter id="filter1_i_3931_32050" x="107.292" y="231.31" width="132.276" height="61.7031" filterUnits="userSpaceOnUse" color-interpolation-filters="sRGB">
<feFlood flood-opacity="0" result="BackgroundImageFix"/>
<feBlend mode="normal" in="SourceGraphic" in2="BackgroundImageFix" result="shape"/>
<feColorMatrix in="SourceAlpha" type="matrix" values="0 0 0 0 0 0 0 0 0 0 0 0 0 0 0 0 0 0 127 0" result="hardAlpha"/>
<feOffset dy="-0.707807"/>
<feComposite in2="hardAlpha" operator="arithmetic" k2="-1" k3="1"/>
<feColorMatrix type="matrix" values="0 0 0 0 0 0 0 0 0 0 0 0 0 0 0 0 0 0 0.05 0"/>
<feBlend mode="normal" in2="shape" result="effect1_innerShadow_3931_32050"/>
</filter>
<filter id="filter2_i_3931_32050" x="239.568" y="231.31" width="133.047" height="61.7031" filterUnits="userSpaceOnUse" color-interpolation-filters="sRGB">
<feFlood flood-opacity="0" result="BackgroundImageFix"/>
<feBlend mode="normal" in="SourceGraphic" in2="BackgroundImageFix" result="shape"/>
<feColorMatrix in="SourceAlpha" type="matrix" values="0 0 0 0 0 0 0 0 0 0 0 0 0 0 0 0 0 0 127 0" result="hardAlpha"/>
<feOffset dy="-0.707807"/>
<feComposite in2="hardAlpha" operator="arithmetic" k2="-1" k3="1"/>
<feColorMatrix type="matrix" values="0 0 0 0 0 0 0 0 0 0 0 0 0 0 0 0 0 0 0.05 0"/>
<feBlend mode="normal" in2="shape" result="effect1_innerShadow_3931_32050"/>
</filter>
<filter id="filter3_dddd_3931_32050" x="58.0903" y="225.823" width="364.188" height="106.439" filterUnits="userSpaceOnUse" color-interpolation-filters="sRGB">
<feFlood flood-opacity="0" result="BackgroundImageFix"/>
<feColorMatrix in="SourceAlpha" type="matrix" values="0 0 0 0 0 0 0 0 0 0 0 0 0 0 0 0 0 0 127 0" result="hardAlpha"/>
<feOffset dy="1"/>
<feGaussianBlur stdDeviation="1"/>
<feColorMatrix type="matrix" values="0 0 0 0 0 0 0 0 0 0 0 0 0 0 0 0 0 0 0.06 0"/>
<feBlend mode="normal" in2="BackgroundImageFix" result="effect1_dropShadow_3931_32050"/>
<feColorMatrix in="SourceAlpha" type="matrix" values="0 0 0 0 0 0 0 0 0 0 0 0 0 0 0 0 0 0 127 0" result="hardAlpha"/>
<feOffset dy="4"/>
<feGaussianBlur stdDeviation="2"/>
<feColorMatrix type="matrix" values="0 0 0 0 0 0 0 0 0 0 0 0 0 0 0 0 0 0 0.05 0"/>
<feBlend mode="normal" in2="effect1_dropShadow_3931_32050" result="effect2_dropShadow_3931_32050"/>
<feColorMatrix in="SourceAlpha" type="matrix" values="0 0 0 0 0 0 0 0 0 0 0 0 0 0 0 0 0 0 127 0" result="hardAlpha"/>
<feOffset dy="10"/>
<feGaussianBlur stdDeviation="3"/>
<feColorMatrix type="matrix" values="0 0 0 0 0 0 0 0 0 0 0 0 0 0 0 0 0 0 0.03 0"/>
<feBlend mode="normal" in2="effect2_dropShadow_3931_32050" result="effect3_dropShadow_3931_32050"/>
<feColorMatrix in="SourceAlpha" type="matrix" values="0 0 0 0 0 0 0 0 0 0 0 0 0 0 0 0 0 0 127 0" result="hardAlpha"/>
<feOffset dy="17"/>
<feGaussianBlur stdDeviation="3.5"/>
<feColorMatrix type="matrix" values="0 0 0 0 0 0 0 0 0 0 0 0 0 0 0 0 0 0 0.01 0"/>
<feBlend mode="normal" in2="effect3_dropShadow_3931_32050" result="effect4_dropShadow_3931_32050"/>
<feBlend mode="normal" in="SourceGraphic" in2="effect4_dropShadow_3931_32050" result="shape"/>
</filter>
<filter id="filter4_i_3931_32050" x="65.0903" y="226.823" width="174.585" height="81.4391" filterUnits="userSpaceOnUse" color-interpolation-filters="sRGB">
<feFlood flood-opacity="0" result="BackgroundImageFix"/>
<feBlend mode="normal" in="SourceGraphic" in2="BackgroundImageFix" result="shape"/>
<feColorMatrix in="SourceAlpha" type="matrix" values="0 0 0 0 0 0 0 0 0 0 0 0 0 0 0 0 0 0 127 0" result="hardAlpha"/>
<feOffset dy="-0.934202"/>
<feComposite in2="hardAlpha" operator="arithmetic" k2="-1" k3="1"/>
<feColorMatrix type="matrix" values="0 0 0 0 0 0 0 0 0 0 0 0 0 0 0 0 0 0 0.05 0"/>
<feBlend mode="normal" in2="shape" result="effect1_innerShadow_3931_32050"/>
</filter>
<filter id="filter5_i_3931_32050" x="239.675" y="226.823" width="175.603" height="81.4391" filterUnits="userSpaceOnUse" color-interpolation-filters="sRGB">
<feFlood flood-opacity="0" result="BackgroundImageFix"/>
<feBlend mode="normal" in="SourceGraphic" in2="BackgroundImageFix" result="shape"/>
<feColorMatrix in="SourceAlpha" type="matrix" values="0 0 0 0 0 0 0 0 0 0 0 0 0 0 0 0 0 0 127 0" result="hardAlpha"/>
<feOffset dy="-0.934202"/>
<feComposite in2="hardAlpha" operator="arithmetic" k2="-1" k3="1"/>
<feColorMatrix type="matrix" values="0 0 0 0 0 0 0 0 0 0 0 0 0 0 0 0 0 0 0.05 0"/>
<feBlend mode="normal" in2="shape" result="effect1_innerShadow_3931_32050"/>
</filter>
<linearGradient id="paint0_linear_3931_32050" x1="239.933" y1="427.25" x2="239.933" y2="455.25" gradientUnits="userSpaceOnUse">
<stop stop-color="#D9D9D9" stop-opacity="0"/>
<stop offset="1" stop-color="#646973" stop-opacity="0.5"/>
</linearGradient>
<clipPath id="clip0_3931_32050">
<rect x="107.173" y="16.25" width="265.52" height="548.692" rx="32" fill="white"/>
</clipPath>
<clipPath id="clip1_3931_32050">
<rect width="98.3014" height="39.0533" fill="white" transform="translate(124.279 242.635)"/>
</clipPath>
<clipPath id="clip2_3931_32050">
<rect width="99.0727" height="39.0533" fill="white" transform="translate(256.555 242.635)"/>
</clipPath>
<clipPath id="clip3_3931_32050">
<rect width="11.3289" height="11.3289" fill="white" transform="translate(128.435 365.269)"/>
</clipPath>
<clipPath id="clip4_3931_32050">
<rect x="139.056" y="373.765" width="11.3289" height="11.3289" rx="5.66443" fill="white"/>
</clipPath>
<clipPath id="clip5_3931_32050">
<rect width="11.3289" height="11.3289" fill="white" transform="translate(139.056 373.765)"/>
</clipPath>
<clipPath id="clip6_3931_32050">
<rect width="11.3289" height="11.3289" fill="white" transform="translate(128.435 421.913)"/>
</clipPath>
<clipPath id="clip7_3931_32050">
<rect width="130.761" height="46" fill="white" transform="translate(262.096 244.543)"/>
</clipPath>
</defs>
</svg>
