<?xml version="1.0" encoding="UTF-8"?>
<svg version="1.1" xmlns="http://www.w3.org/2000/svg" width="360" height="320">
<path d="M0 0 C0.89539993 -0.00700928 1.79079987 -0.01401855 2.71333313 -0.02124023 C5.65100815 -0.03873735 8.58770709 -0.02722697 11.52539062 -0.01367188 C13.57987654 -0.01636917 15.63436121 -0.02025356 17.68884277 -0.02526855 C21.98588261 -0.03115239 26.28258891 -0.02263647 30.57958984 -0.00390625 C36.07399804 0.01888242 41.56762454 0.00575338 47.06200409 -0.01819611 C51.30179685 -0.03268413 55.54140578 -0.02803429 59.78120422 -0.01768494 C61.80650425 -0.01502596 63.83182123 -0.01825808 65.85710144 -0.02760315 C68.69294126 -0.03781823 71.52753378 -0.02219851 74.36328125 0 C75.19156937 -0.00809692 76.01985748 -0.01619385 76.87324524 -0.02453613 C82.5839487 0.05783809 86.88480823 1.3678693 91.68164062 4.51757812 C95.4145453 8.49131536 95.80645148 12.11292928 95.80189514 17.42106628 C95.80395714 19.26995201 95.80395714 19.26995201 95.80606079 21.15618896 C95.80252166 22.52429223 95.79888685 23.89239526 95.79516602 25.26049805 C95.79488398 26.69934589 95.7950422 28.13819387 95.79560852 29.57704163 C95.79589586 33.48584279 95.79000936 37.39461338 95.78303456 41.30340743 C95.77679049 45.38735408 95.77619639 49.47130139 95.77500916 53.55525208 C95.77189896 61.2900062 95.76368975 69.02474622 95.75365967 76.75949413 C95.74248888 85.56471466 95.73698564 94.36993586 95.73196423 103.17516172 C95.72150689 121.28930852 95.70391345 139.40344219 95.68164062 157.51757812 C96.79152344 157.66831787 97.90140625 157.81905762 99.04492188 157.97436523 C106.52571138 159.09176297 111.45917479 162.47026857 116.20507812 168.31054688 C120.06302913 174.07706094 121.64519895 180.64067555 120.68164062 187.51757812 C119.27266688 193.81973202 116.73923575 198.52361489 112.68164062 203.51757812 C112.02164063 203.84757813 111.36164063 204.17757812 110.68164062 204.51757812 C114.97164062 204.84757813 119.26164063 205.17757812 123.68164062 205.51757812 C123.68164062 207.16757812 123.68164062 208.81757813 123.68164062 210.51757812 C122.62775146 210.50597656 121.5738623 210.494375 120.48803711 210.48242188 C116.55320463 210.44972833 112.62006164 210.46983768 108.68530273 210.50537109 C106.9870685 210.51344946 105.28870396 210.50747529 103.59057617 210.48681641 C93.91428169 210.02736568 93.91428169 210.02736568 85.13427734 213.2355957 C83.41639975 215.2441161 82.05432017 217.26490451 80.68164062 219.51757812 C68.02723437 230.40116338 52.11282599 235.27006108 35.57617188 234.86132812 C17.7187271 233.28514443 2.8243792 225.71049949 -9.31835938 212.51757812 C-9.31835938 211.85757813 -9.31835938 211.19757813 -9.31835938 210.51757812 C-20.20835938 210.51757812 -31.09835938 210.51757812 -42.31835938 210.51757812 C-42.31835938 208.86757813 -42.31835938 207.21757812 -42.31835938 205.51757812 C-29.94335938 205.02257812 -29.94335938 205.02257812 -17.31835938 204.51757812 C-18.80335937 202.53757812 -18.80335937 202.53757812 -20.31835938 200.51757812 C-21.48933046 197.00466486 -21.46648527 193.84201797 -21.4655304 190.18733215 C-21.46920708 189.43495622 -21.47288377 188.68258028 -21.47667187 187.90740508 C-21.48771113 185.37877426 -21.49155297 182.85018452 -21.49536133 180.3215332 C-21.50162583 178.51143259 -21.50827262 176.70133326 -21.51527405 174.89123535 C-21.53631955 168.93986914 -21.54667733 162.98850267 -21.55664062 157.03710938 C-21.56068809 154.98833388 -21.56480501 152.93955853 -21.56899071 150.89078331 C-21.58804395 141.26498182 -21.60227435 131.63918801 -21.61060268 122.01337129 C-21.62037408 110.90308184 -21.64669058 99.79299168 -21.68710357 88.68277246 C-21.71726896 80.09497051 -21.73207199 71.50722568 -21.73538369 62.91937178 C-21.73773383 57.79048079 -21.74668954 52.66180267 -21.77184486 47.53296852 C-21.79513771 42.70581744 -21.79935389 37.8790192 -21.78908348 33.05182648 C-21.78858829 31.28297184 -21.79490366 29.51409976 -21.80863953 27.74529839 C-21.93593997 10.37651405 -21.93593997 10.37651405 -17.31835938 4.51757812 C-12.0095049 0.39405643 -6.51801518 -0.06371681 0 0 Z " fill="#FDFDFD" transform="translate(139.318359375,60.482421875)"/>
<path d="M0 0 C0.89539993 -0.00700928 1.79079987 -0.01401855 2.71333313 -0.02124023 C5.65100815 -0.03873735 8.58770709 -0.02722697 11.52539062 -0.01367188 C13.57987654 -0.01636917 15.63436121 -0.02025356 17.68884277 -0.02526855 C21.98588261 -0.03115239 26.28258891 -0.02263647 30.57958984 -0.00390625 C36.07399804 0.01888242 41.56762454 0.00575338 47.06200409 -0.01819611 C51.30179685 -0.03268413 55.54140578 -0.02803429 59.78120422 -0.01768494 C61.80650425 -0.01502596 63.83182123 -0.01825808 65.85710144 -0.02760315 C68.69294126 -0.03781823 71.52753378 -0.02219851 74.36328125 0 C75.19156937 -0.00809692 76.01985748 -0.01619385 76.87324524 -0.02453613 C82.5839487 0.05783809 86.88480823 1.3678693 91.68164062 4.51757812 C95.4145453 8.49131536 95.80645148 12.11292928 95.80189514 17.42106628 C95.80395714 19.26995201 95.80395714 19.26995201 95.80606079 21.15618896 C95.80252166 22.52429223 95.79888685 23.89239526 95.79516602 25.26049805 C95.79488398 26.69934589 95.7950422 28.13819387 95.79560852 29.57704163 C95.79589586 33.48584279 95.79000936 37.39461338 95.78303456 41.30340743 C95.77679049 45.38735408 95.77619639 49.47130139 95.77500916 53.55525208 C95.77189896 61.2900062 95.76368975 69.02474622 95.75365967 76.75949413 C95.74248888 85.56471466 95.73698564 94.36993586 95.73196423 103.17516172 C95.72150689 121.28930852 95.70391345 139.40344219 95.68164062 157.51757812 C96.79152344 157.66831787 97.90140625 157.81905762 99.04492188 157.97436523 C106.52571138 159.09176297 111.45917479 162.47026857 116.20507812 168.31054688 C120.06302913 174.07706094 121.64519895 180.64067555 120.68164062 187.51757812 C119.27266688 193.81973202 116.73923575 198.52361489 112.68164062 203.51757812 C112.02164063 203.84757813 111.36164063 204.17757812 110.68164062 204.51757812 C114.97164062 204.84757813 119.26164063 205.17757812 123.68164062 205.51757812 C123.68164062 207.16757812 123.68164062 208.81757813 123.68164062 210.51757812 C122.62775146 210.50597656 121.5738623 210.494375 120.48803711 210.48242188 C116.55320463 210.44972833 112.62006164 210.46983768 108.68530273 210.50537109 C106.9870685 210.51344946 105.28870396 210.50747529 103.59057617 210.48681641 C93.91428169 210.02736568 93.91428169 210.02736568 85.13427734 213.2355957 C83.41639975 215.2441161 82.05432017 217.26490451 80.68164062 219.51757812 C68.02723437 230.40116338 52.11282599 235.27006108 35.57617188 234.86132812 C17.7187271 233.28514443 2.8243792 225.71049949 -9.31835938 212.51757812 C-9.31835938 211.85757813 -9.31835938 211.19757813 -9.31835938 210.51757812 C-20.20835938 210.51757812 -31.09835938 210.51757812 -42.31835938 210.51757812 C-42.31835938 208.86757813 -42.31835938 207.21757812 -42.31835938 205.51757812 C-29.94335938 205.02257812 -29.94335938 205.02257812 -17.31835938 204.51757812 C-18.80335937 202.53757812 -18.80335937 202.53757812 -20.31835938 200.51757812 C-21.48933046 197.00466486 -21.46648527 193.84201797 -21.4655304 190.18733215 C-21.46920708 189.43495622 -21.47288377 188.68258028 -21.47667187 187.90740508 C-21.48771113 185.37877426 -21.49155297 182.85018452 -21.49536133 180.3215332 C-21.50162583 178.51143259 -21.50827262 176.70133326 -21.51527405 174.89123535 C-21.53631955 168.93986914 -21.54667733 162.98850267 -21.55664062 157.03710938 C-21.56068809 154.98833388 -21.56480501 152.93955853 -21.56899071 150.89078331 C-21.58804395 141.26498182 -21.60227435 131.63918801 -21.61060268 122.01337129 C-21.62037408 110.90308184 -21.64669058 99.79299168 -21.68710357 88.68277246 C-21.71726896 80.09497051 -21.73207199 71.50722568 -21.73538369 62.91937178 C-21.73773383 57.79048079 -21.74668954 52.66180267 -21.77184486 47.53296852 C-21.79513771 42.70581744 -21.79935389 37.8790192 -21.78908348 33.05182648 C-21.78858829 31.28297184 -21.79490366 29.51409976 -21.80863953 27.74529839 C-21.93593997 10.37651405 -21.93593997 10.37651405 -17.31835938 4.51757812 C-12.0095049 0.39405643 -6.51801518 -0.06371681 0 0 Z M-16.31835938 11.51757812 C-16.80244929 14.32174179 -16.99733552 16.51308543 -16.95327759 19.30470276 C-16.96107754 20.06992577 -16.96887749 20.83514878 -16.97691381 21.62356037 C-16.99679758 24.17800232 -16.98108461 26.7309484 -16.96533203 29.28540039 C-16.97210974 31.12052274 -16.98101373 32.95563829 -16.99188232 34.79074097 C-17.01466241 39.76800526 -17.00584503 44.74475093 -16.9899869 49.7220242 C-16.97732318 54.93139109 -16.98906915 60.14071375 -16.99691772 65.3500824 C-17.00601209 74.09699473 -16.99403106 82.8436959 -16.97021484 91.59057617 C-16.94299554 101.70410877 -16.95182452 111.81713751 -16.97934687 121.93065792 C-17.00203281 130.61448085 -17.00524078 139.29815206 -16.99215353 147.98199505 C-16.9843573 153.16830801 -16.98332238 158.35438408 -16.99983597 163.54068184 C-17.01427422 168.41560471 -17.00427076 173.28987747 -16.97536469 178.16473007 C-16.96875079 179.95417514 -16.97065674 181.74367487 -16.98167801 183.53309822 C-16.99533356 185.97528419 -16.97822039 188.4153843 -16.95327759 190.85743713 C-16.9644312 191.56638754 -16.97558481 192.27533795 -16.9870764 193.0057717 C-16.90950986 196.91808596 -16.41416033 198.40479661 -13.84117699 201.43383694 C-13.00864717 202.12147153 -12.17611736 202.80910612 -11.31835938 203.51757812 C-10.98835938 203.84757813 -10.65835938 204.17757812 -10.31835938 204.51757812 C-7.54896971 204.61275616 -4.80458778 204.64312078 -2.03491211 204.63110352 C-1.1666983 204.63124954 -0.2984845 204.63139557 0.59603882 204.63154602 C3.48006649 204.63084658 6.36403042 204.62305275 9.24804688 204.61523438 C11.24201929 204.61337031 13.23599217 204.61194635 15.22996521 204.61094666 C20.48909765 204.6071206 25.74820265 204.59728958 31.00732422 204.58624268 C36.36946237 204.57603043 41.73160494 204.57144944 47.09375 204.56640625 C57.62305895 204.55566739 68.15234751 204.53858992 78.68164062 204.51757812 C78.27026855 203.98503418 77.85889648 203.45249023 77.43505859 202.90380859 C76.89510254 202.19627441 76.35514648 201.48874023 75.79882812 200.75976562 C74.99614502 199.71344971 74.99614502 199.71344971 74.17724609 198.64599609 C69.83762199 192.4702137 68.70278303 185.95464557 69.68164062 178.51757812 C71.2608655 171.87291498 74.07083105 167.45462202 79.19335938 162.99023438 C81.58474391 161.57492516 83.70484871 160.77861544 86.3371582 159.92553711 C87.15001785 159.66038803 87.9628775 159.39523895 88.80036926 159.12205505 C89.42118881 158.92257767 90.04200836 158.72310028 90.68164062 158.51757812 C90.77503938 139.28990181 90.84559792 120.06227147 90.88888931 100.83441544 C90.90952362 91.9067858 90.93766074 82.97929704 90.98339844 74.05175781 C91.02323971 66.27144076 91.04906712 58.4912257 91.0579946 50.71080947 C91.06321399 46.59024286 91.07549918 42.4699681 91.10456085 38.34949493 C91.13168733 34.47202862 91.14009136 30.59497468 91.13407135 26.71742249 C91.13517284 25.2935792 91.14314358 23.8697223 91.15846252 22.445961 C91.17834277 20.50315805 91.17119988 18.56013442 91.16265869 16.61724854 C91.16818945 14.98567495 91.16818945 14.98567495 91.17383194 13.32114029 C90.56312019 9.84247598 89.39812704 8.69766761 86.68164062 6.51757812 C83.29643972 4.82497767 79.44705239 5.33345089 75.72143555 5.30883789 C74.79283218 5.29905411 73.86422882 5.28927032 72.90748596 5.27919006 C69.82570844 5.24920544 66.74397436 5.2278432 63.66210938 5.20898438 C62.61105829 5.20241255 61.56000721 5.19584072 60.47710609 5.18906975 C54.91468273 5.15646406 49.35227863 5.1320151 43.78979492 5.11254883 C39.18111389 5.0947239 34.57304334 5.05988593 29.96459961 5.01000977 C24.40552141 4.94991018 18.84701008 4.9190871 13.28762245 4.90937614 C11.16767091 4.90080343 9.04773525 4.88194091 6.92796898 4.85263252 C3.96131375 4.81382065 0.99687709 4.81266996 -1.9699707 4.82055664 C-2.84652313 4.80055603 -3.72307556 4.78055542 -4.62619019 4.75994873 C-5.84380287 4.77448845 -5.84380287 4.77448845 -7.08601379 4.7893219 C-8.13710941 4.78297399 -8.13710941 4.78297399 -9.20943928 4.77649784 C-12.65090059 5.98583675 -14.5819612 8.43246894 -16.31835938 11.51757812 Z " fill="#3E3D43" transform="translate(139.318359375,60.482421875)"/>
<path d="M0 0 C32.67 0 65.34 0 99 0 C90.53609087 12.6958637 78.11851151 20.14419796 63.4375 24 C46.85933808 27.1237177 30.71562655 24.5445673 16.125 16.13671875 C2.20669185 6.62007555 2.20669185 6.62007555 0 0 Z " fill="#F0EEE9" transform="translate(129,270)"/>
<path d="M0 0 C5.09620539 3.01237564 8.70841667 7.93775001 10.5625 13.5 C11.23250408 20.91397958 11.20726115 27.41563452 6.5625 33.5 C2.37002549 37.95077863 -1.84811608 41.03858443 -8.05078125 41.8359375 C-15.16019199 41.93882333 -20.59703797 41.06972449 -25.93359375 36.109375 C-31.3927089 29.9536962 -33.0783166 24.57194828 -32.84765625 16.46875 C-31.87030222 9.39456845 -27.39172469 5.03439018 -22.0859375 0.62890625 C-16.31520649 -3.32308726 -6.20486518 -2.72965968 0 0 Z " fill="#FAFAFA" transform="translate(244.4375,224.5)"/>
<path d="M0 0 C1.12019531 -0.00128906 2.24039063 -0.00257812 3.39453125 -0.00390625 C4.57402344 -0.00003906 5.75351563 0.00382812 6.96875 0.0078125 C8.73798828 0.00201172 8.73798828 0.00201172 10.54296875 -0.00390625 C12.22326172 -0.00197266 12.22326172 -0.00197266 13.9375 0 C14.97326172 0.00112793 16.00902344 0.00225586 17.07617188 0.00341797 C19.46875 0.1328125 19.46875 0.1328125 20.46875 1.1328125 C20.62325072 4.04158558 20.70051915 6.91021309 20.71875 9.8203125 C20.739375 10.62404297 20.76 11.42777344 20.78125 12.25585938 C20.81431856 17.31121476 20.27845125 20.75846719 17.46875 25.1328125 C14.05517134 28.22128843 11.43169163 29.39712588 6.90625 29.5703125 C2.99675497 29.36696628 0.51076748 28.74025606 -2.53125 26.1328125 C-6.95320481 20.90315745 -7.06607658 16.84683269 -6.84375 10.3203125 C-6.83408203 9.44955078 -6.82441406 8.57878906 -6.81445312 7.68164062 C-6.67687674 0.00727102 -6.67687674 0.00727102 0 0 Z " fill="#3F3E41" transform="translate(139.53125,110.8671875)"/>
<path d="M0 0 C1.98 0 3.96 0 6 0 C6 1.32 6 2.64 6 4 C5.01 4 4.02 4 3 4 C3 4.99 3 5.98 3 7 C3.8353125 7.061875 3.8353125 7.061875 4.6875 7.125 C8.2517498 8.47363506 9.816026 10.96670278 12 14 C12 14.99 12 15.98 12 17 C13.32 17 14.64 17 16 17 C16 17.99 16 18.98 16 20 C14.68 20 13.36 20 12 20 C12 22.64 12 25.28 12 28 C13.32 28 14.64 28 16 28 C16 28.99 16 29.98 16 31 C5.44 31 -5.12 31 -16 31 C-16 29.68 -16 28.36 -16 27 C-14.68 27 -13.36 27 -12 27 C-12 25.02 -12 23.04 -12 21 C-13.32 21 -14.64 21 -16 21 C-16 19.68 -16 18.36 -16 17 C-14.35 17 -12.7 17 -11 17 C-10.979375 16.113125 -10.95875 15.22625 -10.9375 14.3125 C-9.77195118 10.1942275 -8.21782188 9.2026965 -4.7890625 6.8828125 C-3 6 -3 6 0 6 C0 4.02 0 2.04 0 0 Z " fill="#3B3B3E" transform="translate(146,158)"/>
<path d="M0 0 C3.17362329 0.28016067 4.41662234 1.08712627 6.88671875 3.05078125 C7.56089844 3.57285156 8.23507813 4.09492188 8.9296875 4.6328125 C10.69921875 6.23828125 10.69921875 6.23828125 12.69921875 9.23828125 C12.69921875 10.22828125 12.69921875 11.21828125 12.69921875 12.23828125 C13.68921875 12.23828125 14.67921875 12.23828125 15.69921875 12.23828125 C15.69921875 13.22828125 15.69921875 14.21828125 15.69921875 15.23828125 C14.70921875 15.23828125 13.71921875 15.23828125 12.69921875 15.23828125 C12.59609375 15.91890625 12.49296875 16.59953125 12.38671875 17.30078125 C11.54242518 20.9082174 10.36797082 25.56952918 7.69921875 28.23828125 C3.44449969 28.71102781 1.18485226 27.62842994 -2.30078125 25.23828125 C-2.63078125 26.22828125 -2.96078125 27.21828125 -3.30078125 28.23828125 C-5.30032871 28.28082481 -7.30119761 28.27908908 -9.30078125 28.23828125 C-10.88350726 26.65555524 -10.64813872 24.85794122 -10.86328125 22.67578125 C-10.94707031 21.84949219 -11.03085938 21.02320313 -11.1171875 20.171875 C-11.20806641 19.21474609 -11.20806641 19.21474609 -11.30078125 18.23828125 C-12.62078125 17.90828125 -13.94078125 17.57828125 -15.30078125 17.23828125 C-15.30078125 14.59828125 -15.30078125 11.95828125 -15.30078125 9.23828125 C-14.66140625 9.03203125 -14.02203125 8.82578125 -13.36328125 8.61328125 C-10.95153048 7.34289916 -10.95153048 7.34289916 -10.55078125 4.11328125 C-10.46828125 3.16453125 -10.38578125 2.21578125 -10.30078125 1.23828125 C-9.16640625 1.25890625 -8.03203125 1.27953125 -6.86328125 1.30078125 C-3.00222194 1.23304337 -3.34842254 0.3467806 0 0 Z " fill="#252428" transform="translate(146.30078125,210.76171875)"/>
<path d="M0 0 C5.94481181 -0.04934399 11.88950509 -0.08569282 17.83447266 -0.10986328 C19.85793127 -0.11993671 21.88137528 -0.13359595 23.90478516 -0.15087891 C26.80895589 -0.17506847 29.71293461 -0.18646949 32.6171875 -0.1953125 C33.52556366 -0.20563507 34.43393982 -0.21595764 35.36984253 -0.22659302 C36.21056305 -0.22674408 37.05128357 -0.22689514 37.91748047 -0.22705078 C39.03000687 -0.23371262 39.03000687 -0.23371262 40.16500854 -0.24050903 C42 0 42 0 44 2 C43.75 4.5625 43.75 4.5625 43 7 C39.63360724 8.68319638 35.82759311 8.16316848 32.125 8.16796875 C31.24473145 8.17129715 30.36446289 8.17462555 29.45751953 8.17805481 C27.59473189 8.18312167 25.73193515 8.18546321 23.86914062 8.18530273 C21.01156774 8.18749114 18.15437963 8.20565453 15.296875 8.22460938 C13.48958466 8.2275429 11.68229248 8.22952797 9.875 8.23046875 C8.58746826 8.24124702 8.58746826 8.24124702 7.27392578 8.25224304 C1.22882579 8.22882579 1.22882579 8.22882579 -1 6 C-0.625 2.875 -0.625 2.875 0 0 Z " fill="#3F3D44" transform="translate(155,72)"/>
<path d="M0 0 C6.93 0 13.86 0 21 0 C21.44062888 12.19073231 21.44062888 12.19073231 18 16 C15.01158633 18.32432174 11.70297381 18.47116644 7.96875 18.39453125 C4.61306974 17.72206358 3.04063604 15.59717314 1 13 C-0.92572521 9.14854957 -0.04883218 4.19956748 0 0 Z " fill="#E5E5E5" transform="translate(136,119)"/>
<path d="M0 0 C2.4375 1.625 2.4375 1.625 4 4 C4 7.77684879 3.78395245 10.03513544 1.375 13 C-2.11581787 14.46981805 -4.39148956 13.98413921 -8 13 C-8.43803955 12.33323242 -8.8760791 11.66646484 -9.32739258 10.97949219 C-10.88483645 8.71656069 -10.88483645 8.71656069 -13.8190918 8.45410156 C-14.93453369 8.4331543 -16.04997559 8.41220703 -17.19921875 8.390625 C-18.40771484 8.35839844 -19.61621094 8.32617188 -20.86132812 8.29296875 C-22.7552832 8.27169922 -22.7552832 8.27169922 -24.6875 8.25 C-25.96173828 8.22035156 -27.23597656 8.19070312 -28.54882812 8.16015625 C-31.69928292 8.08935951 -34.8489934 8.03670953 -38 8 C-38 6.68 -38 5.36 -38 4 C-28.76 4 -19.52 4 -10 4 C-9.34 2.68 -8.68 1.36 -8 0 C-5.02898609 -1.48550695 -3.16565278 -0.82306972 0 0 Z " fill="#121212" transform="translate(208,118)"/>
<path d="M0 0 C0.66 0 1.32 0 2 0 C2.33 1.32 2.66 2.64 3 4 C4.258125 4.20625 5.51625 4.4125 6.8125 4.625 C7.52019531 4.74101562 8.22789062 4.85703125 8.95703125 4.9765625 C11.31755824 5.19577848 11.31755824 5.19577848 14 3 C15.5 4.0625 15.5 4.0625 17 6 C17.38991688 10.36706908 17.46324069 12.30513897 15 16 C14.61500109 17.65549531 14.27206865 19.3222433 14 21 C13.01 21 12.02 21 11 21 C11 20.01 11 19.02 11 18 C9.88625 18.020625 8.7725 18.04125 7.625 18.0625 C4 18 4 18 2 17 C2 18.32 2 19.64 2 21 C1.34 21 0.68 21 0 21 C-0.66 17.7 -1.32 14.4 -2 11 C-2.99 11 -3.98 11 -5 11 C-5 9.68 -5 8.36 -5 7 C-4.01 6.67 -3.02 6.34 -2 6 C-0.77479736 2.99152582 -0.77479736 2.99152582 0 0 Z " fill="#F6F6F6" transform="translate(139,215)"/>
<path d="M0 0 C3.23421175 0 5.11377619 0.46826572 7.875 2.125 C9.70099685 5.16832808 9.42460581 7.54249555 9 11 C7.4375 13.5 7.4375 13.5 5 15 C1.4375 15 1.4375 15 -2 14 C-2.69766479 12.99791504 -2.69766479 12.99791504 -3.40942383 11.97558594 C-4.83286958 9.79602849 -4.83286958 9.79602849 -7.26831055 9.45410156 C-8.56442261 9.42268066 -8.56442261 9.42268066 -9.88671875 9.390625 C-10.82451172 9.35839844 -11.76230469 9.32617188 -12.72851562 9.29296875 C-13.70498047 9.27878906 -14.68144531 9.26460937 -15.6875 9.25 C-16.67556641 9.22035156 -17.66363281 9.19070312 -18.68164062 9.16015625 C-21.12117596 9.08944508 -23.55975525 9.03675735 -26 9 C-26 8.01 -26 7.02 -26 6 C-25.39003174 5.99589111 -24.78006348 5.99178223 -24.15161133 5.98754883 C-21.37094208 5.95452425 -18.59243843 5.88387432 -15.8125 5.8125 C-14.85279297 5.80669922 -13.89308594 5.80089844 -12.90429688 5.79492188 C-6.93497459 5.65807521 -6.93497459 5.65807521 -2.01953125 2.44921875 C-1.35308594 1.64097656 -0.68664062 0.83273438 0 0 Z " fill="#101010" transform="translate(196,167)"/>
<path d="M0 0 C3.32964855 1.20434097 4.86610965 2.19442106 6.9375 5.0625 C7.5 7.5 7.5 7.5 6.9375 10.0625 C4.875 12.9375 4.875 12.9375 1.9375 15.0625 C-1.6875 15.125 -1.6875 15.125 -5.0625 14.0625 C-5.51625 13.4025 -5.97 12.7425 -6.4375 12.0625 C-8.51366594 9.50721884 -9.54672382 9.65126016 -12.75 9.3125 C-14.18638098 9.21170133 -15.6238506 9.12282073 -17.0625 9.0625 C-17.0625 8.0725 -17.0625 7.0825 -17.0625 6.0625 C-16.47082031 6.04832031 -15.87914062 6.03414062 -15.26953125 6.01953125 C-8.57342727 5.61536184 -5.68813388 0.11608436 0 0 Z " fill="#111111" transform="translate(187.0625,216.9375)"/>
<path d="M0 0 C0.75 3.125 0.75 3.125 1 6 C-1.76276177 5.47731534 -4.3260876 4.89130413 -7 4 C-5.91215032 7.24983135 -5.91215032 7.24983135 -4 10 C-3.6875 13.375 -3.6875 13.375 -4 17 C-6.76237316 20.18735365 -9.90241149 20.64368796 -14 21 C-14.66 20.67 -15.32 20.34 -16 20 C-16.59355614 17.35139573 -16.74209269 14.70802678 -17 12 C-15.68 12 -14.36 12 -13 12 C-12.67 12.66 -12.34 13.32 -12 14 C-9.97536745 14.65213292 -9.97536745 14.65213292 -8 15 C-8.28875 14.48050781 -8.5775 13.96101562 -8.875 13.42578125 C-12.80767289 6.03836446 -12.80767289 6.03836446 -12 2 C-10.41164878 -0.34072811 -9.24938496 -0.91687168 -6.5625 -1.8125 C-3.55749322 -2.03237854 -2.33650541 -1.9192723 0 0 Z " fill="#413F46" transform="translate(242,235)"/>
<path d="M0 0 C3.25865271 1.06682083 4.92098279 2.97622852 6.96875 5.64453125 C7.78125 7.95703125 7.78125 7.95703125 7.96875 9.64453125 C8.95875 9.64453125 9.94875 9.64453125 10.96875 9.64453125 C10.96875 10.63453125 10.96875 11.62453125 10.96875 12.64453125 C9.97875 12.64453125 8.98875 12.64453125 7.96875 12.64453125 C7.63875 13.63453125 7.30875 14.62453125 6.96875 15.64453125 C6.30875 15.31453125 5.64875 14.98453125 4.96875 14.64453125 C4.824375 13.51015625 4.68 12.37578125 4.53125 11.20703125 C4.345625 10.03140625 4.16 8.85578125 3.96875 7.64453125 C2.97875 6.98453125 1.98875 6.32453125 0.96875 5.64453125 C0.30875 6.30453125 -0.35125 6.96453125 -1.03125 7.64453125 C-3.75994407 7.61165542 -6.3279118 7.08055354 -9.03125 6.64453125 C-9.36125 5.32453125 -9.69125 4.00453125 -10.03125 2.64453125 C-6.9257135 -0.59040261 -4.36070541 -0.74034364 0 0 Z " fill="#2D2C30" transform="translate(151.03125,213.35546875)"/>
<path d="M0 0 C9.24 0 18.48 0 28 0 C27.67 1.32 27.34 2.64 27 4 C18.09 4 9.18 4 0 4 C0 2.68 0 1.36 0 0 Z " fill="#49484E" transform="translate(170,122)"/>
<path d="M0 0 C2.375 1.875 2.375 1.875 4 4 C4 4.99 4 5.98 4 7 C-1.61 7 -7.22 7 -13 7 C-11.81927711 2.27710843 -11.81927711 2.27710843 -9 0 C-5.41563853 -1.19478716 -3.63093708 -0.96330984 0 0 Z " fill="#F7F7F7" transform="translate(151,168)"/>
<path d="M0 0 C7.92 0 15.84 0 24 0 C19 5 19 5 16.82763672 5.53588867 C16.11881348 5.4969751 15.40999023 5.45806152 14.6796875 5.41796875 C13.89722656 5.39283203 13.11476562 5.36769531 12.30859375 5.34179688 C11.50550781 5.29087891 10.70242187 5.23996094 9.875 5.1875 C8.26863523 5.10960791 6.6618286 5.04023846 5.0546875 4.98046875 C4.34812012 4.93817139 3.64155273 4.89587402 2.91357422 4.85229492 C0.66701133 4.86881046 0.66701133 4.86881046 -2 7 C-1.34 4.69 -0.68 2.38 0 0 Z " fill="#D4D4D5" transform="translate(194,223)"/>
<path d="M0 0 C6.93 0 13.86 0 21 0 C21 0.99 21 1.98 21 3 C14.07 3 7.14 3 0 3 C0 2.01 0 1.02 0 0 Z " fill="#343239" transform="translate(170,173)"/>
<path d="M0 0 C4.95 0.33 9.9 0.66 15 1 C15 1.99 15 2.98 15 4 C10.05 4.33 5.1 4.66 0 5 C0 3.35 0 1.7 0 0 Z " fill="#C7C7C8" transform="translate(205,172)"/>
<path d="M0 0 C2.31 0 4.62 0 7 0 C7 1.98 7 3.96 7 6 C4.69 6 2.38 6 0 6 C0 4.02 0 2.04 0 0 Z " fill="#FFFFFF" transform="translate(148,179)"/>
<path d="M0 0 C2.31 0 4.62 0 7 0 C7 1.98 7 3.96 7 6 C4.69 6 2.38 6 0 6 C0 4.02 0 2.04 0 0 Z " fill="#FFFFFF" transform="translate(138,179)"/>
<path d="M0 0 C-1.40844718 3.21524305 -3.10344786 5.32183868 -5.625 7.75 C-6.57246094 8.67039063 -6.57246094 8.67039063 -7.5390625 9.609375 C-8.02117187 10.06828125 -8.50328125 10.5271875 -9 11 C-9.99 10.67 -10.98 10.34 -12 10 C-11.06409496 8.8944811 -10.12620142 7.79064547 -9.1875 6.6875 C-8.66542969 6.07261719 -8.14335937 5.45773438 -7.60546875 4.82421875 C-7.07566406 4.22222656 -6.54585937 3.62023437 -6 3 C-5.50113281 2.42894531 -5.00226563 1.85789062 -4.48828125 1.26953125 C-3 0 -3 0 0 0 Z " fill="#2E2D31" transform="translate(152,122)"/>
<path d="M0 0 C2.125 0.375 2.125 0.375 4 1 C4.625 2.875 4.625 2.875 5 5 C4.34 5.66 3.68 6.32 3 7 C0.875 6.625 0.875 6.625 -1 6 C-1.625 4.125 -1.625 4.125 -2 2 C-1.34 1.34 -0.68 0.68 0 0 Z " fill="#E2E2E2" transform="translate(185,221)"/>
<path d="M0 0 C2.125 0.375 2.125 0.375 4 1 C4.625 2.875 4.625 2.875 5 5 C4.34 5.66 3.68 6.32 3 7 C0.875 6.625 0.875 6.625 -1 6 C-1.625 4.125 -1.625 4.125 -2 2 C-1.34 1.34 -0.68 0.68 0 0 Z " fill="#E1E1E1" transform="translate(203,121)"/>
<path d="M0 0 C2.0625 0.4375 2.0625 0.4375 4 1 C4 2.65 4 4.3 4 6 C2.125 6.625 2.125 6.625 0 7 C-0.66 6.34 -1.32 5.68 -2 5 C-1.46428571 1.46428571 -1.46428571 1.46428571 0 0 Z " fill="#EAEAEA" transform="translate(197,171)"/>
<path d="M0 0 C2.64 0 5.28 0 8 0 C8 1.32 8 2.64 8 4 C3.545 4.495 3.545 4.495 -1 5 C-0.67 3.35 -0.34 1.7 0 0 Z " fill="#D4D4D5" transform="translate(212,123)"/>
<path d="M0 0 C0.66 0.33 1.32 0.66 2 1 C2 1.99 2 2.98 2 4 C-1.12317517 6.23083941 -4.4134946 7.66786942 -8 9 C-6.64531705 4.12314139 -4.28324091 2.51407619 0 0 Z " fill="#3B3B3E" transform="translate(143,164)"/>
<path d="M0 0 C0.33 0.66 0.66 1.32 1 2 C0.67 2.66 0.34 3.32 0 4 C-2.97 4 -5.94 4 -9 4 C-9 3.01 -9 2.02 -9 1 C-4.545 0.505 -4.545 0.505 0 0 Z " fill="#333138" transform="translate(179,222)"/>
<path d="M0 0 C0.66 0 1.32 0 2 0 C2.12375 0.61875 2.2475 1.2375 2.375 1.875 C2.87197356 4.19120832 2.87197356 4.19120832 5 6 C4.34 6 3.68 6 3 6 C3 6.66 3 7.32 3 8 C1.35 7.67 -0.3 7.34 -2 7 C-1.34 4.69 -0.68 2.38 0 0 Z " fill="#C2C2C3" transform="translate(139,215)"/>
<path d="M0 0 C1.98 0.495 1.98 0.495 4 1 C4 1.99 4 2.98 4 4 C2.35 4 0.7 4 -1 4 C-0.67 2.68 -0.34 1.36 0 0 Z " fill="#E0DFE0" transform="translate(145,213)"/>
</svg>
