<svg width="180" height="160" viewBox="0 0 180 160" fill="none" xmlns="http://www.w3.org/2000/svg">
<mask id="mask0_1734_146197" style="mask-type:alpha" maskUnits="userSpaceOnUse" x="55" y="129" width="73" height="15">
<rect x="55.9999" y="129.631" width="72" height="14" fill="#D9D9D9"/>
</mask>
<g mask="url(#mask0_1734_146197)">
<circle cx="91.9679" cy="111.54" r="30.9681" fill="#F2F0EB"/>
</g>
<path d="M55.9999 129.131H128" stroke="#343239" stroke-width="2"/>
<rect x="19.7197" y="67.9173" width="66.0512" height="42.8849" rx="6.74325" transform="rotate(0.0739751 19.7197 67.9173)" fill="#EFF2F0" stroke="#343239" stroke-width="2" stroke-dasharray="4 4"/>
<path d="M27.7056 97.1309L50.4167 97.1602" stroke="#343239" stroke-width="2"/>
<path d="M27.6999 102.001L42.8406 102.021" stroke="#343239" stroke-width="2"/>
<rect x="26.7105" y="92.1423" width="11.3516" height="14.0235" rx="2.39161" transform="rotate(-89.926 26.7105 92.1423)" stroke="#343239" stroke-width="2"/>
<path d="M31.733 81.1289L31.7192 91.8164" stroke="#343239" stroke-width="2"/>
<path d="M35.7274 91.1543L35.736 84.4746L39.7438 84.4797" stroke="#343239" stroke-width="2"/>
<path d="M35.7274 91.1543L35.7308 88.4824L39.7386 88.4876" stroke="#343239" stroke-width="2"/>
<path d="M27.7158 88.4727L31.7236 88.4778" stroke="#343239" stroke-width="2"/>
<path d="M27.7202 84.4639L31.7281 84.469" stroke="#343239" stroke-width="2"/>
<rect x="59.2285" y="49.0228" width="66.0512" height="42.8849" rx="6.74325" transform="rotate(0.0739751 59.2285 49.0228)" fill="#EFF2F0" stroke="#343239" stroke-width="2" stroke-dasharray="4 4"/>
<path d="M67.2144 78.2363L89.9255 78.2657" stroke="#343239" stroke-width="2"/>
<path d="M67.2087 83.1064L82.3494 83.126" stroke="#343239" stroke-width="2"/>
<rect x="66.2193" y="73.2477" width="11.3516" height="14.0235" rx="2.39161" transform="rotate(-89.926 66.2193 73.2477)" stroke="#343239" stroke-width="2"/>
<path d="M71.2418 62.2343L71.228 72.9219" stroke="#343239" stroke-width="2"/>
<path d="M75.2361 72.2598L75.2448 65.58L79.2526 65.5852" stroke="#343239" stroke-width="2"/>
<path d="M75.2361 72.2598L75.2396 69.5879L79.2474 69.5931" stroke="#343239" stroke-width="2"/>
<path d="M67.2246 69.5781L71.2324 69.5833" stroke="#343239" stroke-width="2"/>
<path d="M67.229 65.5693L71.2369 65.5745" stroke="#343239" stroke-width="2"/>
<rect x="98.7321" y="30.1282" width="66.0512" height="42.8849" rx="6.74325" transform="rotate(0.0739751 98.7321 30.1282)" fill="white" stroke="#343239" stroke-width="2"/>
<circle opacity="0.6" cx="133.054" cy="99.2043" r="2.51005" transform="rotate(-180 133.054 99.2043)" stroke="#A69D79" stroke-width="1.38954"/>
<path d="M37.1583 31.1379C37.1065 30.9572 36.9414 30.833 36.7536 30.833C36.5658 30.833 36.4007 30.9572 36.3489 31.1379C35.8128 33.0035 35.4515 33.3648 33.5858 33.9009C33.4056 33.9527 33.2809 34.1178 33.2809 34.3056C33.2809 34.4935 33.4052 34.6586 33.5858 34.7104C35.4515 35.2465 35.8128 35.6082 36.3489 37.4734C36.4007 37.6541 36.5658 37.7783 36.7536 37.7783C36.9414 37.7783 37.1065 37.6541 37.1583 37.4734C37.6944 35.6082 38.0558 35.2469 39.9214 34.7104C40.1021 34.6586 40.2263 34.4931 40.2263 34.3056C40.2263 34.1178 40.1021 33.9527 39.9214 33.9009C38.0562 33.3648 37.6944 33.0035 37.1583 31.1379Z" fill="#A69D79"/>
<path d="M145.867 101.708C145.785 101.422 145.524 101.226 145.228 101.226C144.931 101.226 144.67 101.422 144.588 101.708C143.741 104.656 143.17 105.227 140.221 106.074C139.936 106.156 139.739 106.417 139.739 106.714C139.739 107.011 139.936 107.272 140.221 107.354C143.17 108.201 143.741 108.773 144.588 111.72C144.67 112.006 144.931 112.202 145.228 112.202C145.524 112.202 145.785 112.006 145.867 111.72C146.714 108.773 147.285 108.201 150.234 107.354C150.519 107.272 150.716 107.01 150.716 106.714C150.716 106.417 150.519 106.156 150.234 106.074C147.286 105.227 146.714 104.656 145.867 101.708Z" fill="#A69D79"/>
<path d="M106.718 59.3418L129.429 59.3711" stroke="#343239" stroke-width="2"/>
<path d="M106.712 64.2119L121.853 64.2315" stroke="#343239" stroke-width="2"/>
<rect x="105.723" y="54.3532" width="11.3516" height="14.0235" rx="2.39161" transform="rotate(-89.926 105.723 54.3532)" fill="#A69D79" stroke="#343239" stroke-width="2"/>
<path d="M110.745 43.3398L110.732 54.0273" stroke="#343239" stroke-width="2"/>
<path d="M114.74 53.3652L114.748 46.6855L118.756 46.6907" stroke="#343239" stroke-width="2"/>
<path d="M114.74 53.3652L114.743 50.6933L118.751 50.6985" stroke="#343239" stroke-width="2"/>
<path d="M106.728 50.6836L110.736 50.6888" stroke="#343239" stroke-width="2"/>
<path d="M106.733 46.6748L110.74 46.68" stroke="#343239" stroke-width="2"/>
</svg>
